<?xml version="1.0" encoding="utf-8"?>
<!-- Generator: Adobe Illustrator 22.1.0, SVG Export Plug-In . SVG Version: 6.00 Build 0)  -->
<svg version="1.1" id="Слой_1" xmlns="http://www.w3.org/2000/svg" xmlns:xlink="http://www.w3.org/1999/xlink" x="0px" y="0px"
	 viewBox="0 0 612 792" style="enable-background:new 0 0 612 792;" xml:space="preserve">
<style type="text/css">
	.st0{fill:#231F20;}
	.st1{font-family:'ArialMT';}
	.st2{font-size:4.5206px;}
	.st3{font-size:4.52px;}
	.st4{font-family:'Helvetica_cyr-Oblique';}
	.st5{fill:none;stroke:#231F20;stroke-width:0.855;stroke-miterlimit:2.613;}
	.st6{font-size:3.3803px;}
	.st7{fill:none;stroke:#231F20;stroke-width:0.427;stroke-miterlimit:2.613;}
	.st8{fill:none;stroke:#231F20;stroke-width:0.858;stroke-miterlimit:2.613;}
	.st9{fill:none;stroke:#231F20;stroke-width:0.868;stroke-miterlimit:2.613;}
	.st10{fill:none;stroke:#231F20;stroke-width:0.866;stroke-miterlimit:2.613;}
	.st11{fill:none;stroke:#231F20;stroke-width:0.861;stroke-miterlimit:2.613;}
	.st12{font-size:4.276px;}
	.st13{fill:none;stroke:#231F20;stroke-width:0.421;stroke-miterlimit:2.613;}
	.st14{font-size:4.9808px;}
	.st15{fill:none;}
	.st16{fill:none;stroke:#231F20;stroke-width:0.873;stroke-miterlimit:2.613;}
	.st17{fill:none;stroke:#231F20;stroke-width:0.441;stroke-miterlimit:2.613;}
	.st18{fill:none;stroke:#231F20;stroke-width:0.411;stroke-miterlimit:2.613;}
	.st19{letter-spacing:0.9;}
	.st20{fill:none;stroke:#231F20;stroke-width:0.954;stroke-miterlimit:2.613;}
	.st21{fill:none;stroke:#231F20;stroke-width:0.434;stroke-miterlimit:2.613;stroke-dasharray:2.1375,2.1375;}
	.st22{fill:none;stroke:#231F20;stroke-width:0.429;stroke-miterlimit:2.613;}
	.st23{fill:#FFFFFF;}
	.st24{fill:none;stroke:#FFFFFF;stroke-width:0.855;stroke-miterlimit:2.613;}
	.st25{fill:none;stroke:#231F20;stroke-width:0.421;}
	.st26{fill:none;stroke:#231F20;stroke-width:0.594;}
	.st27{font-family:'Arial-ItalicMT';}
	.st28{font-size:3.9595px;}
	.st29{fill:none;stroke:#231F20;stroke-width:0.427;}
	.st30{enable-background:new    ;}
</style>
<text transform="matrix(1.1018 0 0 1 174.9067 287.612)" class="st0 st1 st2">COUNTER</text>
<text transform="matrix(1.1018 0 0 1 239.8379 287.612)" class="st0 st1 st2">POINTER</text>
<text transform="matrix(1.1018 0 0 1 179.1709 313.2702)" class="st0 st1 st2">FLASH</text>
<text transform="matrix(1.1018 0 0 1 322.8535 313.2702)" class="st0 st1 st2">REGISTER</text>
<text transform="matrix(1.102 0 0 1 238.895 336.28)" class="st0 st1 st3">GENERAL</text>
<text transform="matrix(1.102 0 0 1 238.626 341.2888)" class="st0 st1 st3">PURPOSE</text>
<text transform="matrix(1.102 0 0 1 236.3823 346.2976)" class="st0 st1 st3">REGISTERS</text>
<text transform="matrix(1.1018 0 0 1 174.458 338.8864)" class="st0 st1 st2">REGISTER</text>
<text transform="matrix(1.1018 0 0 1 321.2271 333.6472)" class="st0 st1 st2">COUNTERS</text>
<text transform="matrix(1.1018 0 0 1 176.5225 364.5437)" class="st0 st1 st2">DECODER</text>
<text transform="matrix(1.1479 0 0 1 320.3545 497.7097)" class="st0 st4 st2">B</text>
<text transform="matrix(1.1479 0 0 1 212.7397 497.7097)" class="st0 st4 st2">E</text>
<text transform="matrix(1.1479 0 0 1 428.75 497.7507)" class="st0 st4 st2">D</text>
<text transform="matrix(1.1479 0 0 1 258.5508 497.7507)" class="st0 st4 st2">B</text>
<text transform="matrix(1.1479 0 0 1 150.936 497.7507)" class="st0 st4 st2">E</text>
<text transform="matrix(1.1479 0 0 1 366.5303 497.7507)" class="st0 st4 st2">D</text>
<text transform="matrix(1.1018 0 0 1 328.9316 352.4763)" class="st0 st1 st2">UNIT</text>
<text transform="matrix(1.1018 0 0 1 331.8789 439.3298)" class="st0 st1 st2">SPI</text>
<text transform="matrix(1.1018 0 0 1 238.0879 413.5007)" class="st0 st1 st2">REGISTER</text>
<rect x="166" y="277" class="st5" width="42.4" height="12.8"/>
<rect x="229.7" y="277" class="st5" width="42.5" height="12.8"/>
<rect x="166" y="302.6" class="st5" width="42.5" height="12.8"/>
<rect x="314.4" y="302.6" class="st5" width="42.4" height="12.8"/>
<text transform="matrix(1.1018 0 0 1 243.1909 310.1657)" class="st0 st1 st2">SRAM</text>
<rect x="229.6" y="302.6" class="st5" width="42.4" height="11.9"/>
<rect x="229.6" y="328.3" class="st5" width="42.4" height="38.4"/>
<rect x="166" y="328.3" class="st5" width="42.5" height="12.8"/>
<rect x="314" y="323" class="st5" width="42.4" height="12.8"/>
<rect x="166.1" y="353.9" class="st5" width="44.2" height="12.8"/>
<rect x="285.9" y="487.1" class="st5" width="44.2" height="12.8"/>
<rect x="178.3" y="487.1" class="st5" width="44.3" height="12.8"/>
<rect x="394.3" y="487.3" class="st5" width="44.2" height="12.8"/>
<rect x="231.2" y="487.1" class="st5" width="44.2" height="12.8"/>
<rect x="123.6" y="487.1" class="st5" width="44.3" height="12.8"/>
<rect x="339.5" y="487.3" class="st5" width="44.2" height="12.8"/>
<rect x="313.6" y="341.9" class="st5" width="42.4" height="12.8"/>
<rect x="313.5" y="360.8" class="st5" width="42.4" height="12.8"/>
<rect x="314.7" y="430.6" class="st5" width="42.4" height="12.8"/>
<rect x="187.5" y="431.3" class="st5" width="42.4" height="12.8"/>
<rect x="229.6" y="402.9" class="st5" width="42.4" height="12.8"/>
<text transform="matrix(1.1018 0 0 1 249.665 365.196)" class="st0 st1 st6">Z</text>
<text transform="matrix(1.1018 0 0 1 249.6201 359.1765)" class="st0 st1 st6">Y</text>
<text transform="matrix(1.1018 0 0 1 249.5752 353.24)" class="st0 st1 st6">X</text>
<line class="st7" x1="229.7" y1="360.8" x2="272" y2="360.8"/>
<line class="st7" x1="229.7" y1="354.9" x2="272" y2="354.9"/>
<line class="st7" x1="229.7" y1="348.9" x2="272" y2="348.9"/>
<polygon class="st5" points="229.6,376.4 247.2,376.4 250.8,382.8 254.3,376.4 272,376.4 263.2,392.4 238.4,392.4 "/>
<text transform="matrix(1.1018 0 0 1 245.9399 387.6355)" class="st0 st1 st2">ALU</text>
<line class="st5" x1="289.7" y1="229.8" x2="289.7" y2="456.5"/>
<line class="st5" x1="296.7" y1="229.8" x2="296.7" y2="456.6"/>
<polyline class="st5" points="513.6,456.2 513.6,453 520.7,459.3 513.6,465.8 513.6,462.6 "/>
<polyline class="st5" points="508.7,229.6 508.7,232.8 515.8,226.4 508.7,220 508.7,223.2 "/>
<polyline class="st5" points="99.2,462.9 99.2,466.2 92.1,459.8 99.2,453.3 99.2,456.5 "/>
<polyline class="st5" points="111.1,223 111.1,219.8 104.1,226.2 111.1,232.7 111.1,229.4 "/>
<line class="st5" x1="296.7" y1="456.5" x2="513.3" y2="456.4"/>
<line class="st5" x1="296.7" y1="229.7" x2="509.1" y2="229.6"/>
<line class="st8" x1="98.8" y1="456.5" x2="289.7" y2="456.5"/>
<line class="st9" x1="110.7" y1="229.6" x2="289.7" y2="229.7"/>
<line class="st10" x1="98.9" y1="462.9" x2="514" y2="462.9"/>
<line class="st11" x1="110.8" y1="223.2" x2="509.1" y2="223.2"/>
<line class="st7" x1="289.5" y1="499.9" x2="289.5" y2="510.8"/>
<path class="st0" d="M289.5,512.8l1.9-4c-1.3,0.6-2.5,0.6-3.8,0L289.5,512.8"/>
<line class="st7" x1="181.9" y1="499.9" x2="181.9" y2="510.8"/>
<path class="st0" d="M181.9,512.8l1.9-4c-1.3,0.6-2.5,0.6-3.8,0L181.9,512.8"/>
<line class="st7" x1="397.9" y1="500.1" x2="397.9" y2="511"/>
<path class="st0" d="M397.8,513l1.9-4c-1.3,0.6-2.5,0.6-3.8,0L397.8,513"/>
<line class="st7" x1="234.7" y1="501.9" x2="234.7" y2="510.8"/>
<path class="st0" d="M234.7,499.9l1.9,4c-1.3-0.6-2.5-0.6-3.8,0L234.7,499.9"/>
<path class="st0" d="M234.7,512.8l1.9-4c-1.3,0.6-2.5,0.6-3.8,0L234.7,512.8"/>
<line class="st7" x1="127.1" y1="501.9" x2="127.1" y2="510.8"/>
<path class="st0" d="M127.1,499.9l1.9,4c-1.3-0.6-2.5-0.6-3.8,0L127.1,499.9"/>
<path class="st0" d="M127.1,512.8l1.9-4c-1.3,0.6-2.5,0.6-3.8,0L127.1,512.8"/>
<line class="st7" x1="343" y1="502.1" x2="343" y2="510.9"/>
<path class="st0" d="M343,500.1l1.9,4c-1.3-0.6-2.5-0.6-3.8,0L343,500.1"/>
<path class="st0" d="M343,512.9l1.9-4c-1.3,0.6-2.5,0.6-3.8,0L343,512.9"/>
<line class="st7" x1="294.8" y1="499.9" x2="294.8" y2="510.8"/>
<path class="st0" d="M294.8,512.8l1.9-4c-1.3,0.6-2.5,0.6-3.8,0L294.8,512.8"/>
<line class="st7" x1="187.2" y1="499.9" x2="187.2" y2="510.8"/>
<path class="st0" d="M187.2,512.8l1.9-4c-1.3,0.6-2.5,0.6-3.8,0L187.2,512.8"/>
<line class="st7" x1="403.2" y1="500.1" x2="403.2" y2="510.9"/>
<path class="st0" d="M403.1,512.9l1.9-4c-1.3,0.6-2.5,0.6-3.8,0L403.1,512.9"/>
<line class="st7" x1="240" y1="501.9" x2="240" y2="510.8"/>
<path class="st0" d="M240,499.9l1.9,4c-1.3-0.6-2.5-0.6-3.8,0L240,499.9"/>
<path class="st0" d="M240,512.8l1.9-4c-1.3,0.6-2.5,0.6-3.8,0L240,512.8"/>
<line class="st7" x1="132.4" y1="501.9" x2="132.4" y2="510.8"/>
<path class="st0" d="M132.4,499.9l1.9,4c-1.3-0.6-2.5-0.6-3.8,0L132.4,499.9"/>
<path class="st0" d="M132.4,512.8l1.9-4c-1.3,0.6-2.5,0.6-3.8,0L132.4,512.8"/>
<line class="st7" x1="348.3" y1="502.1" x2="348.3" y2="510.9"/>
<path class="st0" d="M348.3,500.1l1.9,4c-1.3-0.6-2.5-0.6-3.8,0L348.3,500.1"/>
<path class="st0" d="M348.3,512.9l1.9-4c-1.3,0.6-2.5,0.6-3.8,0L348.3,512.9"/>
<line class="st7" x1="300.1" y1="499.9" x2="300.1" y2="510.8"/>
<path class="st0" d="M300.1,512.8l1.9-4c-1.3,0.6-2.5,0.6-3.8,0L300.1,512.8"/>
<line class="st7" x1="192.5" y1="499.9" x2="192.5" y2="510.8"/>
<path class="st0" d="M192.5,512.8l1.9-4c-1.3,0.6-2.5,0.6-3.8,0L192.5,512.8"/>
<line class="st7" x1="408.4" y1="500.1" x2="408.4" y2="511"/>
<path class="st0" d="M408.4,513l1.9-4c-1.3,0.6-2.5,0.6-3.8,0L408.4,513"/>
<line class="st7" x1="245.3" y1="501.9" x2="245.3" y2="510.8"/>
<path class="st0" d="M245.3,499.9l1.9,4c-1.3-0.6-2.5-0.6-3.8,0L245.3,499.9"/>
<path class="st0" d="M245.3,512.8l1.9-4c-1.3,0.6-2.5,0.6-3.8,0L245.3,512.8"/>
<line class="st7" x1="137.7" y1="501.9" x2="137.7" y2="510.8"/>
<path class="st0" d="M137.7,499.9l1.9,4c-1.3-0.6-2.5-0.6-3.8,0L137.7,499.9"/>
<path class="st0" d="M137.7,512.8l1.9-4c-1.3,0.6-2.5,0.6-3.8,0L137.7,512.8"/>
<line class="st7" x1="353.6" y1="502.1" x2="353.6" y2="510.9"/>
<path class="st0" d="M353.6,500.1l1.9,4c-1.3-0.6-2.5-0.6-3.8,0L353.6,500.1"/>
<path class="st0" d="M353.6,512.9l1.9-4c-1.3,0.6-2.5,0.6-3.8,0L353.6,512.9"/>
<line class="st7" x1="305.4" y1="499.9" x2="305.4" y2="510.8"/>
<path class="st0" d="M305.4,512.8l1.9-4c-1.3,0.6-2.5,0.6-3.8,0L305.4,512.8"/>
<line class="st7" x1="197.8" y1="499.9" x2="197.8" y2="510.8"/>
<path class="st0" d="M197.8,512.8l1.9-4c-1.3,0.6-2.5,0.6-3.8,0L197.8,512.8"/>
<line class="st7" x1="413.7" y1="500.1" x2="413.7" y2="510.9"/>
<path class="st0" d="M413.7,512.9l1.9-4c-1.3,0.6-2.5,0.6-3.8,0L413.7,512.9"/>
<line class="st7" x1="250.6" y1="501.9" x2="250.6" y2="510.8"/>
<path class="st0" d="M250.6,499.9l1.9,4c-1.3-0.6-2.5-0.6-3.8,0L250.6,499.9"/>
<path class="st0" d="M250.6,512.8l1.9-4c-1.3,0.6-2.5,0.6-3.8,0L250.6,512.8"/>
<line class="st7" x1="143" y1="501.9" x2="143" y2="510.8"/>
<path class="st0" d="M143,499.9l1.9,4c-1.3-0.6-2.5-0.6-3.8,0L143,499.9"/>
<path class="st0" d="M143,512.8l1.9-4c-1.3,0.6-2.5,0.6-3.8,0L143,512.8"/>
<line class="st7" x1="358.9" y1="502.1" x2="358.9" y2="510.9"/>
<path class="st0" d="M358.9,500.1l1.9,4c-1.3-0.6-2.5-0.6-3.8,0L358.9,500.1"/>
<path class="st0" d="M358.9,512.9l1.9-4c-1.3,0.6-2.5,0.6-3.8,0L358.9,512.9"/>
<line class="st7" x1="310.8" y1="499.9" x2="310.8" y2="510.7"/>
<path class="st0" d="M310.7,512.7l1.9-4c-1.3,0.6-2.5,0.6-3.8,0L310.7,512.7"/>
<line class="st7" x1="203.1" y1="499.9" x2="203.1" y2="510.7"/>
<path class="st0" d="M203.1,512.7l1.9-4c-1.3,0.6-2.5,0.6-3.8,0L203.1,512.7"/>
<line class="st7" x1="419.1" y1="500.1" x2="419.1" y2="511"/>
<path class="st0" d="M419.1,513l1.9-4c-1.3,0.6-2.5,0.6-3.8,0L419.1,513"/>
<line class="st7" x1="255.9" y1="501.9" x2="255.9" y2="510.7"/>
<path class="st0" d="M255.9,499.9l1.9,4c-1.3-0.6-2.5-0.6-3.8,0L255.9,499.9"/>
<path class="st0" d="M255.9,512.7l1.9-4c-1.3,0.6-2.5,0.6-3.8,0L255.9,512.7"/>
<line class="st7" x1="148.3" y1="501.9" x2="148.3" y2="510.7"/>
<path class="st0" d="M148.3,499.9l1.9,4c-1.3-0.6-2.5-0.6-3.8,0L148.3,499.9"/>
<path class="st0" d="M148.3,512.7l1.9-4c-1.3,0.6-2.5,0.6-3.8,0L148.3,512.7"/>
<line class="st7" x1="364.2" y1="502.1" x2="364.2" y2="510.9"/>
<path class="st0" d="M364.2,500.1l1.9,4c-1.3-0.6-2.5-0.6-3.8,0L364.2,500.1"/>
<path class="st0" d="M364.2,512.9l1.9-4c-1.3,0.6-2.5,0.6-3.8,0L364.2,512.9"/>
<line class="st7" x1="316" y1="499.9" x2="316" y2="510.8"/>
<path class="st0" d="M316,512.8l1.9-4c-1.3,0.6-2.5,0.6-3.8,0L316,512.8"/>
<line class="st7" x1="208.4" y1="499.9" x2="208.4" y2="510.8"/>
<path class="st0" d="M208.4,512.8l1.9-4c-1.3,0.6-2.5,0.6-3.8,0L208.4,512.8"/>
<line class="st7" x1="424.4" y1="500.1" x2="424.4" y2="511"/>
<path class="st0" d="M424.4,513l1.9-4c-1.3,0.6-2.5,0.6-3.8,0L424.4,513"/>
<line class="st7" x1="261.3" y1="501.9" x2="261.3" y2="510.8"/>
<path class="st0" d="M261.3,499.9l1.9,4c-1.3-0.6-2.5-0.6-3.8,0L261.3,499.9"/>
<path class="st0" d="M261.3,512.8l1.9-4c-1.3,0.6-2.5,0.6-3.8,0L261.3,512.8"/>
<line class="st7" x1="153.6" y1="501.9" x2="153.6" y2="510.8"/>
<path class="st0" d="M153.6,499.9l1.9,4c-1.3-0.6-2.5-0.6-3.8,0L153.6,499.9"/>
<path class="st0" d="M153.6,512.8l1.9-4c-1.3,0.6-2.5,0.6-3.8,0L153.6,512.8"/>
<line class="st7" x1="369.5" y1="502.1" x2="369.5" y2="510.9"/>
<path class="st0" d="M369.5,500.1l1.9,4c-1.3-0.6-2.5-0.6-3.8,0L369.5,500.1"/>
<path class="st0" d="M369.5,512.9l1.9-4c-1.3,0.6-2.5,0.6-3.8,0L369.5,512.9"/>
<line class="st7" x1="321.3" y1="499.9" x2="321.3" y2="510.8"/>
<path class="st0" d="M321.3,512.8l1.9-4c-1.3,0.6-2.5,0.6-3.8,0L321.3,512.8"/>
<line class="st7" x1="213.7" y1="499.9" x2="213.7" y2="510.8"/>
<path class="st0" d="M213.7,512.8l1.9-4c-1.3,0.6-2.5,0.6-3.8,0L213.7,512.8"/>
<line class="st7" x1="429.7" y1="500.1" x2="429.7" y2="511"/>
<path class="st0" d="M429.7,513l1.9-4c-1.3,0.6-2.5,0.6-3.8,0L429.7,513"/>
<line class="st7" x1="434.9" y1="500.1" x2="434.9" y2="510.9"/>
<path class="st0" d="M434.9,512.9l1.9-4c-1.3,0.6-2.5,0.6-3.8,0L434.9,512.9"/>
<line class="st7" x1="266.5" y1="501.9" x2="266.5" y2="510.8"/>
<path class="st0" d="M266.5,499.9l1.9,4c-1.3-0.6-2.5-0.6-3.8,0L266.5,499.9"/>
<path class="st0" d="M266.5,512.8l1.9-4c-1.3,0.6-2.5,0.6-3.8,0L266.5,512.8"/>
<line class="st7" x1="158.9" y1="501.9" x2="158.9" y2="510.8"/>
<path class="st0" d="M158.9,499.9l1.9,4c-1.3-0.6-2.5-0.6-3.8,0L158.9,499.9"/>
<path class="st0" d="M158.9,512.8l1.9-4c-1.3,0.6-2.5,0.6-3.8,0L158.9,512.8"/>
<line class="st7" x1="374.8" y1="502.1" x2="374.8" y2="510.9"/>
<path class="st0" d="M374.8,500.1l1.9,4c-1.3-0.6-2.5-0.6-3.8,0L374.8,500.1"/>
<path class="st0" d="M374.8,512.9l1.9-4c-1.3,0.6-2.5,0.6-3.8,0L374.8,512.9"/>
<line class="st7" x1="380.1" y1="502.1" x2="380.1" y2="510.9"/>
<path class="st0" d="M380.1,500.1l1.9,4c-1.3-0.6-2.5-0.6-3.8,0L380.1,500.1"/>
<path class="st0" d="M380.1,512.9l1.9-4c-1.3,0.6-2.5,0.6-3.8,0L380.1,512.9"/>
<line class="st7" x1="326.6" y1="499.9" x2="326.6" y2="510.8"/>
<path class="st0" d="M326.6,512.8l1.9-4c-1.3,0.6-2.5,0.6-3.8,0L326.6,512.8"/>
<line class="st7" x1="219" y1="499.9" x2="219" y2="510.8"/>
<path class="st0" d="M219,512.8l1.9-4c-1.3,0.6-2.5,0.6-3.8,0L219,512.8"/>
<line class="st7" x1="271.8" y1="501.9" x2="271.8" y2="510.8"/>
<path class="st0" d="M271.8,499.9l1.9,4c-1.3-0.6-2.5-0.6-3.8,0L271.8,499.9"/>
<path class="st0" d="M271.8,512.8l1.9-4c-1.3,0.6-2.5,0.6-3.8,0L271.8,512.8"/>
<line class="st7" x1="164.2" y1="501.9" x2="164.2" y2="510.8"/>
<path class="st0" d="M164.2,499.9l1.9,4c-1.3-0.6-2.5-0.6-3.8,0L164.2,499.9"/>
<path class="st0" d="M164.2,512.8l1.9-4c-1.3,0.6-2.5,0.6-3.8,0L164.2,512.8"/>
<rect x="231.2" y="512.8" class="st5" width="98.9" height="12.8"/>
<rect x="123.6" y="512.8" class="st5" width="98.9" height="12.8"/>
<rect x="125.4" y="171.9" class="st5" width="98.9" height="12.8"/>
<rect x="339.5" y="513" class="st5" width="98.9" height="12.8"/>
<rect x="363.8" y="172" class="st5" width="98.9" height="12.8"/>
<line class="st7" x1="243.7" y1="527.6" x2="243.7" y2="549.2"/>
<path class="st0" d="M243.7,525.6l1.9,4c-1.3-0.6-2.5-0.6-3.8,0L243.7,525.6"/>
<path class="st0" d="M243.7,551.2l1.9-4c-1.3,0.6-2.5,0.6-3.8,0L243.7,551.2"/>
<line class="st7" x1="136" y1="146.3" x2="136" y2="169.9"/>
<path class="st0" d="M136,171.9l1.9-4c-1.3,0.6-2.5,0.6-3.8,0L136,171.9"/>
<line class="st7" x1="352" y1="527.7" x2="352" y2="549.4"/>
<path class="st0" d="M351.9,525.7l1.9,4c-1.3-0.6-2.5-0.6-3.8,0L351.9,525.7"/>
<path class="st0" d="M351.9,551.4l1.9-4c-1.3,0.6-2.5,0.6-3.8,0L351.9,551.4"/>
<line class="st7" x1="376.2" y1="148.3" x2="376.2" y2="172"/>
<path class="st0" d="M376.2,146.3l1.9,4c-1.3-0.6-2.5-0.6-3.8,0L376.2,146.3"/>
<line class="st7" x1="254.3" y1="527.6" x2="254.3" y2="549.2"/>
<path class="st0" d="M254.2,525.6l1.9,4c-1.3-0.6-2.5-0.6-3.8,0L254.2,525.6"/>
<path class="st0" d="M254.2,551.2l1.9-4c-1.3,0.6-2.5,0.6-3.8,0L254.2,551.2"/>
<line class="st7" x1="146.6" y1="527.6" x2="146.6" y2="549.2"/>
<path class="st0" d="M146.6,525.6l1.9,4c-1.3-0.6-2.5-0.6-3.8,0L146.6,525.6"/>
<path class="st0" d="M146.6,551.2l1.9-4c-1.3,0.6-2.5,0.6-3.8,0L146.6,551.2"/>
<line class="st7" x1="146.6" y1="146.3" x2="146.6" y2="169.9"/>
<path class="st0" d="M146.5,171.9l1.9-4c-1.3,0.6-2.5,0.6-3.8,0L146.5,171.9"/>
<line class="st7" x1="362.4" y1="527.8" x2="362.6" y2="549.4"/>
<path class="st0" d="M362.4,525.8l1.9,4c-1.3-0.6-2.5-0.6-3.8,0L362.4,525.8"/>
<path class="st0" d="M362.6,551.4l1.8-4c-1.3,0.6-2.5,0.6-3.8,0L362.6,551.4"/>
<line class="st7" x1="386.6" y1="148.4" x2="386.9" y2="172"/>
<path class="st0" d="M386.6,146.4l1.9,4c-1.3-0.6-2.5-0.6-3.8,0L386.6,146.4"/>
<line class="st7" x1="264.8" y1="527.6" x2="264.8" y2="549.2"/>
<path class="st0" d="M264.8,525.6l1.9,4c-1.3-0.6-2.5-0.6-3.8,0L264.8,525.6"/>
<path class="st0" d="M264.8,551.2l1.9-4c-1.3,0.6-2.5,0.6-3.8,0L264.8,551.2"/>
<line class="st7" x1="157.2" y1="146.3" x2="157.2" y2="169.9"/>
<path class="st0" d="M157.2,171.9l1.9-4c-1.3,0.6-2.5,0.6-3.8,0L157.2,171.9"/>
<line class="st7" x1="373.2" y1="527.8" x2="373.2" y2="549.4"/>
<path class="st0" d="M373.2,525.8l1.9,4c-1.3-0.6-2.5-0.6-3.8,0L373.2,525.8"/>
<path class="st0" d="M373.2,551.4l1.9-4c-1.3,0.6-2.5,0.6-3.8,0L373.2,551.4"/>
<line class="st7" x1="275.4" y1="527.6" x2="275.4" y2="549.2"/>
<path class="st0" d="M275.4,525.6l1.9,4c-1.3-0.6-2.5-0.6-3.8,0L275.4,525.6"/>
<path class="st0" d="M275.4,551.2l1.9-4c-1.3,0.6-2.5,0.6-3.8,0L275.4,551.2"/>
<line class="st7" x1="167.8" y1="146.3" x2="167.8" y2="169.9"/>
<path class="st0" d="M167.8,171.9l1.9-4c-1.3,0.6-2.5,0.6-3.8,0L167.8,171.9"/>
<line class="st7" x1="383.8" y1="527.8" x2="383.8" y2="549.4"/>
<path class="st0" d="M383.8,525.8l1.9,4c-1.3-0.6-2.5-0.6-3.8,0L383.8,525.8"/>
<path class="st0" d="M383.8,551.4l1.9-4c-1.3,0.6-2.5,0.6-3.8,0L383.8,551.4"/>
<line class="st7" x1="286" y1="527.6" x2="286" y2="549.2"/>
<path class="st0" d="M286,525.6l1.9,4c-1.3-0.6-2.5-0.6-3.8,0L286,525.6"/>
<path class="st0" d="M286,551.2l1.9-4c-1.3,0.6-2.5,0.6-3.8,0L286,551.2"/>
<line class="st7" x1="394.4" y1="527.8" x2="394.4" y2="549.4"/>
<path class="st0" d="M394.4,525.8l1.9,4c-1.3-0.6-2.5-0.6-3.8,0L394.4,525.8"/>
<path class="st0" d="M394.4,551.4l1.9-4c-1.3,0.6-2.5,0.6-3.8,0L394.4,551.4"/>
<line class="st7" x1="296.4" y1="527.6" x2="296.6" y2="549.2"/>
<path class="st0" d="M296.4,525.6l1.9,4c-1.3-0.6-2.5-0.6-3.8,0L296.4,525.6"/>
<path class="st0" d="M296.6,551.2l1.8-4c-1.3,0.6-2.5,0.6-3.8,0L296.6,551.2"/>
<line class="st7" x1="189" y1="527.6" x2="189" y2="549.2"/>
<path class="st0" d="M189,525.6l1.9,4c-1.3-0.6-2.5-0.6-3.8,0L189,525.6"/>
<path class="st0" d="M189,551.2l1.9-4c-1.3,0.6-2.5,0.6-3.8,0L189,551.2"/>
<line class="st7" x1="404.8" y1="527.8" x2="405" y2="549.4"/>
<path class="st0" d="M404.8,525.8l1.9,4c-1.3-0.6-2.5-0.6-3.8,0L404.8,525.8"/>
<path class="st0" d="M404.9,551.4l1.8-4c-1.3,0.6-2.5,0.6-3.8,0L404.9,551.4"/>
<line class="st7" x1="307.1" y1="527.6" x2="307.3" y2="549.2"/>
<path class="st0" d="M307.1,525.6l1.9,4c-1.3-0.6-2.5-0.6-3.8,0L307.1,525.6"/>
<path class="st0" d="M307.2,551.2l1.8-4c-1.3,0.6-2.5,0.6-3.8,0L307.2,551.2"/>
<line class="st7" x1="199.5" y1="146.3" x2="199.5" y2="169.9"/>
<path class="st0" d="M199.5,171.9l1.9-4c-1.3,0.6-2.5,0.6-3.8,0L199.5,171.9"/>
<line class="st7" x1="415.5" y1="527.8" x2="415.5" y2="549.4"/>
<path class="st0" d="M415.5,525.8l1.9,4c-1.3-0.6-2.5-0.6-3.8,0L415.5,525.8"/>
<path class="st0" d="M415.5,551.4l1.9-4c-1.3,0.6-2.5,0.6-3.8,0L415.5,551.4"/>
<line class="st7" x1="426.1" y1="527.8" x2="426.1" y2="549.4"/>
<path class="st0" d="M426.1,525.8l1.9,4c-1.3-0.6-2.5-0.6-3.8,0L426.1,525.8"/>
<path class="st0" d="M426.1,551.4l1.9-4c-1.3,0.6-2.5,0.6-3.8,0L426.1,551.4"/>
<line class="st7" x1="317.8" y1="527.6" x2="317.8" y2="549.2"/>
<path class="st0" d="M317.8,525.6l1.9,4c-1.3-0.6-2.5-0.6-3.8,0L317.8,525.6"/>
<path class="st0" d="M317.8,551.2l1.9-4c-1.3,0.6-2.5,0.6-3.8,0L317.8,551.2"/>
<line class="st7" x1="210.2" y1="146.3" x2="210.2" y2="169.9"/>
<path class="st0" d="M210.2,171.9l1.9-4c-1.3,0.6-2.5,0.6-3.8,0L210.2,171.9"/>
<text transform="matrix(1.1649 0 0 1 277.4199 520.574)" class="st0 st4 st12">B</text>
<text transform="matrix(1.1018 0 0 1 168.8701 521.0837)" class="st0 st4 st2">E</text>
<text transform="matrix(1.1018 0 0 1 138.2407 180.0144)" class="st0 st1 st2">PO</text>
<text transform="matrix(1.1018 0 0 1 145.6237 180.0144)" class="st0 st1 st2">R</text>
<text transform="matrix(1.1018 0 0 1 149.4 180.0144)" class="st0 st1 st2">T</text>
<text transform="matrix(1.1018 0 0 1 160.2 179.9333)" class="st0 st4 st2">F</text>
<text transform="matrix(1.1018 0 0 1 170.8955 179.9333)" class="st0 st1 st2"> DRIVERS</text>
<text transform="matrix(1.1018 0 0 1 380.3164 520.7068)" class="st0 st4 st2">D</text>
<text transform="matrix(1.1018 0 0 1 406.5317 180.0144)" class="st0 st4 st2">C</text>
<text transform="matrix(1.1018 0 0 1 410.1274 180.0144)" class="st0 st1 st2"> DRIVERS</text>
<line class="st7" x1="254.2" y1="464.9" x2="254.2" y2="484.3"/>
<path class="st0" d="M254.2,462.9l1.9,4c-1.3-0.6-2.5-0.6-3.8,0L254.2,462.9"/>
<path class="st0" d="M254.2,487l1.9-4c-1.3,0.6-2.5,0.6-3.8,0L254.2,487"/>
<line class="st7" x1="141.8" y1="464.9" x2="141.8" y2="483.9"/>
<path class="st0" d="M141.8,462.9l1.9,4c-1.3-0.6-2.5-0.6-3.8,0L141.8,462.9"/>
<path class="st0" d="M141.8,487.1l1.9-4c-1.3,0.6-2.5,0.6-3.8,0L141.8,487.1"/>
<line class="st13" x1="365.8" y1="465.2" x2="365.8" y2="484.5"/>
<path class="st0" d="M365.8,487.3l1.9-4c-1.3,0.6-2.5,0.6-3.8,0L365.8,487.3"/>
<line class="st13" x1="308.5" y1="463.9" x2="308.5" y2="483.9"/>
<path class="st0" d="M308.5,463.2l1.9,4c-1.3-0.6-2.5-0.6-3.8,0L308.5,463.2"/>
<path class="st0" d="M308.4,487l1.9-4c-1.3,0.6-2.5,0.6-3.8,0L308.4,487"/>
<line class="st13" x1="200.3" y1="464.2" x2="200.3" y2="484.3"/>
<path class="st0" d="M200.4,463l1.9,4c-1.3-0.6-2.5-0.6-3.8,0L200.4,463"/>
<path class="st0" d="M200.3,487l1.9-4c-1.3,0.6-2.5,0.6-3.8,0L200.3,487"/>
<line class="st7" x1="416.2" y1="465.2" x2="416.2" y2="484.7"/>
<path class="st0" d="M416.2,487.1l1.9-4c-1.3,0.6-2.5,0.6-3.8,0L416.2,487.1"/>
<text transform="matrix(1.1018 0 0 1 260.8 557.6589)" class="st0 st1 st2">PB7 </text>
<text transform="matrix(1.1018 0 0 1 276.4199 557.281)" class="st0 st1 st2">-</text>
<text transform="matrix(1.1018 0 0 1 281.9165 557.6589)" class="st0 st1 st2"> PB0</text>
<text transform="matrix(1.1018 0 0 1 142.332 557.281)" class="st0 st1 st2">PE6</text>
<text transform="matrix(1.1018 0 0 1 133.7036 144.0603)" class="st0 st1 st2">PF7 </text>
<text transform="matrix(1.1018 0 0 1 144.0811 143.8718)" class="st0 st1 st2">-</text>
<text transform="matrix(1.1018 0 0 1 145.7 144.0603)" class="st0 st1 st2"> PF4</text>
<text transform="matrix(-5.557482e-17 -0.9076 1 -6.123361e-17 501.0654 149.2624)" class="st0 st1 st14">RESET</text>
<rect x="474.5" y="125.4" class="st7" width="7" height="9.6"/>
<line class="st5" x1="472.7" y1="127" x2="472.7" y2="133.5"/>
<line class="st5" x1="483.3" y1="127" x2="483.3" y2="133.5"/>
<line class="st5" x1="464" y1="119.7" x2="471" y2="119.7"/>
<line class="st5" x1="464" y1="118.2" x2="471" y2="118.2"/>
<line class="st5" x1="484.8" y1="119.6" x2="491.8" y2="119.6"/>
<line class="st5" x1="484.8" y1="118" x2="491.8" y2="118"/>
<line class="st5" x1="462.2" y1="113.3" x2="472.8" y2="113.3"/>
<line class="st5" x1="483" y1="113.2" x2="493.6" y2="113.2"/>
<line class="st5" x1="66.5" y1="198.6" x2="56" y2="198.6"/>
<line class="st5" x1="484.8" y1="111.5" x2="491.8" y2="111.5"/>
<line class="st5" x1="464" y1="111.7" x2="471" y2="111.7"/>
<line class="st5" x1="64.8" y1="200.2" x2="57.8" y2="200.2"/>
<line class="st5" x1="486.5" y1="109.9" x2="490" y2="109.9"/>
<line class="st5" x1="465.7" y1="110.1" x2="469.3" y2="110.1"/>
<line class="st5" x1="63" y1="201.8" x2="59.5" y2="201.8"/>
<line class="st7" x1="488.3" y1="113.2" x2="488.3" y2="118"/>
<line class="st7" x1="467.5" y1="113.5" x2="467.5" y2="118.3"/>
<line class="st7" x1="467.5" y1="130.2" x2="472.7" y2="130.2"/>
<line class="st7" x1="483.3" y1="130.2" x2="488.4" y2="130.2"/>
<path class="st0" d="M467.5,129.5c0.4,0,0.9,0.4,0.9,0.8c0,0.4-0.4,0.8-0.9,0.8c-0.4,0-0.9-0.4-0.9-0.8
	C466.6,129.8,467.1,129.5,467.5,129.5z"/>
<path class="st7" d="M467.5,129.5c0.4,0,0.9,0.4,0.9,0.8c0,0.4-0.4,0.8-0.9,0.8c-0.4,0-0.9-0.4-0.9-0.8
	C466.6,129.8,467.1,129.5,467.5,129.5z"/>
<path class="st0" d="M488.2,129.3c0.4,0,0.9,0.4,0.9,0.8c0,0.4-0.4,0.8-0.9,0.8c-0.4,0-0.8-0.4-0.8-0.8
	C487.4,129.7,487.8,129.3,488.2,129.3z"/>
<path class="st7" d="M488.2,129.3c0.4,0,0.9,0.4,0.9,0.8c0,0.4-0.4,0.8-0.9,0.8c-0.4,0-0.8-0.4-0.8-0.8
	C487.4,129.7,487.8,129.3,488.2,129.3z"/>
<polyline class="st7" points="61.3,198.5 61.3,192.1 81.5,192.1 "/>
<polyline class="st7" points="96.8,181 61.3,180.9 61.3,173.3 "/>
<path class="st0" d="M61.3,171.3l-1.9,4c1.3-0.6,2.5-0.6,3.8,0L61.3,171.3"/>
<text transform="matrix(1.1018 0 0 1 67.4487 179.238)" class="st0 st1 st2">VCC</text>
<text transform="matrix(1.1018 0 0 1 66.9106 190.4783)" class="st0 st1 st2">GND</text>
<text transform="matrix(-5.557482e-17 -0.9076 1 -6.123361e-17 465.7861 149.2106)" class="st0 st1 st14">XTAL1</text>
<polyline class="st7" points="287.5,271.3 187.2,271.3 187.2,274.6 "/>
<path class="st0" d="M289.6,271.3l-4.4,1.7c0.6-1.1,0.6-2.3,0-3.4L289.6,271.3"/>
<path class="st0" d="M229.6,238.7l-4.4,1.7c0.6-1.1,0.6-2.3,0-3.4L229.6,238.7"/>
<path class="st0" d="M229.6,246.2l-4.4,1.7c0.6-1.1,0.6-2.3,0-3.4L229.6,246.2"/>
<path class="st0" d="M187.2,276.9l1.9-4c-1.3,0.6-2.5,0.6-3.8,0L187.2,276.9"/>
<line class="st7" x1="274.2" y1="283.4" x2="287.5" y2="283.4"/>
<path class="st0" d="M272,283.4l4.4-1.7c-0.6,1.1-0.6,2.3,0,3.4L272,283.4"/>
<path class="st0" d="M289.7,283.4l-4.4-1.7c0.6,1.1,0.6,2.3,0,3.4L289.7,283.4"/>
<line class="st7" x1="287.5" y1="309" x2="274.2" y2="309"/>
<path class="st0" d="M289.7,309l-4.4,1.7c0.6-1.1,0.6-2.3,0-3.4L289.7,309"/>
<path class="st0" d="M272,309l4.4,1.7c-0.6-1.1-0.6-2.3,0-3.4L272,309"/>
<line class="st7" x1="274.1" y1="339" x2="287.4" y2="339"/>
<path class="st0" d="M271.9,339l4.4-1.7c-0.6,1.1-0.6,2.3,0,3.4L271.9,339"/>
<path class="st0" d="M289.6,339l-4.4-1.7c0.6,1.1,0.6,2.3,0,3.4L289.6,339"/>
<line class="st7" x1="312.2" y1="279.4" x2="298.9" y2="279.4"/>
<path class="st0" d="M314.4,279.4l-4.4,1.7c0.6-1.1,0.6-2.3,0-3.4L314.4,279.4"/>
<path class="st0" d="M296.7,279.4l4.4,1.7c-0.6-1.1-0.6-2.3,0-3.4L296.7,279.4"/>
<line class="st7" x1="312.2" y1="309" x2="298.9" y2="309"/>
<path class="st0" d="M314.4,309l-4.4,1.7c0.6-1.1,0.6-2.3,0-3.4L314.4,309"/>
<path class="st0" d="M296.7,309l4.4,1.7c-0.6-1.1-0.6-2.3,0-3.4L296.7,309"/>
<line class="st7" x1="311.8" y1="329.4" x2="298.5" y2="329.4"/>
<path class="st0" d="M314,329.4l-4.4,1.7c0.6-1.1,0.6-2.3,0-3.4L314,329.4"/>
<path class="st0" d="M296.3,329.4l4.4,1.7c-0.6-1.1-0.6-2.3,0-3.4L296.3,329.4"/>
<line class="st7" x1="311.4" y1="348.3" x2="298.1" y2="348.3"/>
<path class="st0" d="M313.6,348.3l-4.4,1.7c0.6-1.1,0.6-2.3,0-3.4L313.6,348.3"/>
<path class="st0" d="M295.9,348.3l4.4,1.7c-0.6-1.1-0.6-2.3,0-3.4L295.9,348.3"/>
<line class="st7" x1="311.7" y1="365.7" x2="298.4" y2="365.7"/>
<path class="st0" d="M313.9,365.7l-4.4,1.7c0.6-1.1,0.6-2.3,0-3.4L313.9,365.7"/>
<path class="st0" d="M296.2,365.7l4.4,1.7c-0.6-1.1-0.6-2.3,0-3.4L296.2,365.7"/>
<line class="st7" x1="299.4" y1="434.3" x2="312.6" y2="434.3"/>
<path class="st0" d="M297.1,434.3l4.4-1.7c-0.6,1.1-0.6,2.3,0,3.4L297.1,434.3"/>
<path class="st0" d="M314.8,434.3l-4.4-1.7c0.6,1.1,0.6,2.3,0,3.4L314.8,434.3"/>
<line class="st15" x1="299.7" y1="379.4" x2="389.1" y2="379.4"/>
<line class="st7" x1="299.7" y1="379.4" x2="389.1" y2="379.4"/>
<path class="st0" d="M297.9,379.4l4.4-1.7c-0.6,1.1-0.6,2.3,0,3.4L297.9,379.4"/>
<line class="st7" x1="274.2" y1="409.3" x2="287.5" y2="409.3"/>
<path class="st0" d="M272,409.3l4.4-1.7c-0.6,1.1-0.6,2.3,0,3.4L272,409.3"/>
<path class="st0" d="M289.7,409.3l-4.4-1.7c0.6,1.1,0.6,2.3,0,3.4L289.7,409.3"/>
<line class="st7" x1="187.2" y1="289.8" x2="187.2" y2="300.6"/>
<path class="st0" d="M187.2,302.6l1.9-4c-1.3,0.6-2.5,0.6-3.8,0L187.2,302.6"/>
<line class="st7" x1="187.2" y1="315.5" x2="187.2" y2="326.3"/>
<path class="st0" d="M187.2,328.3l1.9-4c-1.3,0.6-2.5,0.6-3.8,0L187.2,328.3"/>
<line class="st7" x1="187.2" y1="341.1" x2="187.2" y2="351.9"/>
<path class="st0" d="M187.2,353.9l1.9-4c-1.3,0.6-2.5,0.6-3.8,0L187.2,353.9"/>
<line class="st7" x1="250.8" y1="289.8" x2="250.8" y2="300.6"/>
<path class="st0" d="M250.8,302.6l1.9-4c-1.3,0.6-2.5,0.6-3.8,0L250.8,302.6"/>
<line class="st7" x1="187.2" y1="366.7" x2="187.2" y2="377.6"/>
<path class="st0" d="M187.2,379.6l1.9-4c-1.3,0.6-2.5,0.6-3.8,0L187.2,379.6"/>
<text transform="matrix(1.1018 0 0 1 179.9775 389.4275)" class="st0 st1 st2">LINES</text>
<line class="st7" x1="238.4" y1="366.7" x2="238.4" y2="374.4"/>
<path class="st0" d="M238.4,376.4l1.9-4c-1.3,0.6-2.5,0.6-3.8,0L238.4,376.4"/>
<line class="st7" x1="263.2" y1="366.7" x2="263.2" y2="374.4"/>
<path class="st0" d="M263.2,376.4l1.9-4c-1.3,0.6-2.5,0.6-3.8,0L263.2,376.4"/>
<line class="st7" x1="250.8" y1="392.8" x2="250.8" y2="400.9"/>
<line class="st7" x1="250.8" y1="396.5" x2="287.5" y2="396.5"/>
<path class="st0" d="M289.7,396.5l-4.4-1.7c0.6,1.1,0.6,2.3,0,3.4L289.7,396.5"/>
<polyline class="st7" points="187.2,347.5 217.2,347.5 217.2,305.8 227.4,305.8 "/>
<path class="st0" d="M229.6,305.8l-4.4-1.7c0.6,1.1,0.6,2.3,0,3.4L229.6,305.8"/>
<line class="st7" x1="217.2" y1="338.9" x2="227.4" y2="338.9"/>
<path class="st0" d="M229.6,338.9l-4.4-1.7c0.6,1.1,0.6,2.3,0,3.4L229.6,338.9"/>
<line class="st7" x1="229.6" y1="351.7" x2="224.8" y2="351.7"/>
<path class="st0" d="M222.6,351.7l4.4,1.7c-0.6-1.1-0.6-2.3,0-3.4L222.6,351.7"/>
<line class="st7" x1="229.6" y1="357.6" x2="224.8" y2="357.6"/>
<path class="st0" d="M222.6,357.6l4.4,1.7c-0.6-1.1-0.6-2.3,0-3.4L222.6,357.6"/>
<polyline class="st7" points="229.6,363.6 222.6,363.6 222.6,283.4 210.7,283.4 "/>
<path class="st0" d="M208.5,283.4l4.4,1.7c-0.6-1.1-0.6-2.3,0-3.4L208.5,283.4"/>
<path class="st0" d="M272.3,246.2l4.4,1.7c-0.6-1.1-0.6-2.3,0-3.4L272.3,246.2"/>
<path class="st0" d="M229.6,238.5l-4.4,1.7c0.6-1.1,0.6-2.3,0-3.4L229.6,238.5"/>
<path class="st0" d="M272.3,238.5l4.4,1.7c-0.6-1.1-0.6-2.3,0-3.4L272.3,238.5"/>
<line class="st7" x1="222.5" y1="311.3" x2="227.4" y2="311.3"/>
<path class="st0" d="M229.6,311.3l-4.4-1.7c0.6,1.1,0.6,2.3,0,3.4L229.6,311.3"/>
<polyline class="st7" points="379.7,270.9 370.9,270.9 370.9,306.9 375.8,306.9 "/>
<polyline class="st7" points="357,277.2 360.5,277.2 360.5,310.2 375.8,310.2 "/>
<polyline class="st7" points="358.6,344.3 398.8,344.3 398.8,317.6 "/>
<path class="st0" d="M356.8,344.3l4.4-1.7c-0.6,1.1-0.6,2.3,0,3.4L356.8,344.3"/>
<path class="st0" d="M398.8,315.2l-1.9,4c1.3-0.6,2.5-0.6,3.8,0L398.8,315.2"/>
<line class="st7" x1="358.6" y1="327.6" x2="399.1" y2="327.6"/>
<path class="st0" d="M356.8,327.5l4.4-1.7c-0.6,1.1-0.6,2.3,0,3.4L356.8,327.5"/>
<line class="st7" x1="356.8" y1="313.6" x2="375.8" y2="313.6"/>
<path class="st0" d="M356.4,352.6l4.4,1.7c-0.6-1.1-0.6-2.3,0-3.4L356.4,352.6"/>
<line class="st13" x1="335.3" y1="443.8" x2="335.3" y2="452.9"/>
<path class="st0" d="M335.3,456.3l1.9-4c-1.3,0.6-2.5,0.6-3.8,0L335.3,456.3"/>
<path class="st0" d="M343.8,430.5l1.9-4c-1.3,0.6-2.5,0.6-3.8,0L343.8,430.5"/>
<text transform="matrix(1.1018 0 0 1 369.7578 143.8708)" class="st0 st1 st2">PC7</text>
<polyline class="st7" points="356.7,484.1 356.7,475.5 371,475.5 371,331.9 359.1,331.9 "/>
<path class="st0" d="M356.3,332l4.4,1.7c-0.6-1.1-0.6-2.3,0-3.4L356.3,332"/>
<text transform="matrix(1.1018 0 0 1 323.2563 250.2683)" class="st0 st1 st2">INTERNAL</text>
<text transform="matrix(1.1018 0 0 1 321.9246 275.8)" class="st0 st1 st2">WATCHDOG</text>
<text transform="matrix(1.1018 0 0 1 327.833 280.9753)" class="st0 st1 st2">TIMER</text>
<rect x="314.4" y="244.7" class="st5" width="42.4" height="12.8"/>
<rect x="314.4" y="270.3" class="st5" width="42.4" height="12.8"/>
<line class="st7" x1="335.6" y1="257.5" x2="335.6" y2="268.3"/>
<path class="st0" d="M335.6,270.3l1.9-4c-1.3,0.6-2.5,0.6-3.8,0L335.6,270.3"/>
<polyline class="st7" points="422.4,268.9 468,268.9 467.8,119.7 "/>
<polyline class="st7" points="422.5,272.6 488.9,272.6 488.7,119.7 "/>
<text transform="matrix(1.1018 0 0 1 304.7003 219.5907)" class="st0 st1 st2">8</text>
<text transform="matrix(1.1018 0 0 1 307.5755 218.9659)" class="st0 st1 st2">-</text>
<text transform="matrix(1.1018 0 0 1 309.243 219.5905)" class="st0 st1 st2">BIT </text>
<text transform="matrix(1.1018 0 0 1 318.4739 219.5903)" class="st0 st1 st2">D</text>
<text transform="matrix(1.1018 0 0 1 321.9248 219.5904)" class="st0 st1 st2">A</text>
<text transform="matrix(1.1018 0 0 1 324.5089 219.5906)" class="st0 st1 st2">T</text>
<text transform="matrix(1.1018 0 0 1 327.0533 219.5906)" class="st0 st1 st2">A </text>
<text transform="matrix(1.1018 0 0 1 333.1708 219.2576)" class="st0 st1 st2">B</text>
<text transform="matrix(1.1018 0 0 1 336.2283 219.2573)" class="st0 st1 st2">US</text>
<path class="st0" d="M165.9,283.4l-4.4-1.7c0.6,1.1,0.6,2.3,0,3.4L165.9,283.4"/>
<line class="st7" x1="163.8" y1="309" x2="159.1" y2="309"/>
<path class="st0" d="M166,309l-4.4-1.7c0.6,1.1,0.6,2.3,0,3.4L166,309"/>
<line class="st7" x1="495.7" y1="149.3" x2="495.7" y2="133.2"/>
<line class="st7" x1="199.6" y1="159.1" x2="196" y2="162.3"/>
<line class="st7" x1="167.8" y1="159.1" x2="164.2" y2="162.3"/>
<line class="st7" x1="157.2" y1="159.1" x2="153.6" y2="162.3"/>
<line class="st7" x1="146.6" y1="159.1" x2="143" y2="162.3"/>
<line class="st7" x1="136" y1="159.1" x2="132.4" y2="162.3"/>
<path class="st0" d="M356.2,348.5l4.4,1.7c-0.6-1.1-0.6-2.3,0-3.4L356.2,348.5"/>
<path class="st0" d="M132,487.1l1.9-4c-1.3,0.6-2.5,0.6-3.8,0L132,487.1"/>
<path class="st0" d="M146.4,531.6c0.4,0,0.9,0.4,0.9,0.8c0,0.4-0.4,0.8-0.9,0.8c-0.4,0-0.9-0.4-0.9-0.8
	C145.6,532,146,531.6,146.4,531.6z"/>
<path class="st7" d="M146.4,531.6c0.4,0,0.9,0.4,0.9,0.8c0,0.4-0.4,0.8-0.9,0.8c-0.4,0-0.9-0.4-0.9-0.8
	C145.6,532,146,531.6,146.4,531.6z"/>
<path class="st0" d="M167.7,158.3c0.4,0,0.9,0.4,0.9,0.8c0,0.4-0.4,0.8-0.9,0.8c-0.4,0-0.9-0.4-0.9-0.8
	C166.9,158.7,167.3,158.3,167.7,158.3z"/>
<path class="st7" d="M167.7,158.3c0.4,0,0.9,0.4,0.9,0.8c0,0.4-0.4,0.8-0.9,0.8c-0.4,0-0.9-0.4-0.9-0.8
	C166.9,158.7,167.3,158.3,167.7,158.3z"/>
<path class="st0" d="M157.1,158.3c0.4,0,0.9,0.4,0.9,0.8c0,0.4-0.4,0.8-0.9,0.8c-0.4,0-0.9-0.4-0.9-0.8
	C156.3,158.6,156.7,158.3,157.1,158.3z"/>
<path class="st7" d="M157.1,158.3c0.4,0,0.9,0.4,0.9,0.8c0,0.4-0.4,0.8-0.9,0.8c-0.4,0-0.9-0.4-0.9-0.8
	C156.3,158.6,156.7,158.3,157.1,158.3z"/>
<path class="st0" d="M146.6,158.3c0.4,0,0.9,0.4,0.9,0.8c0,0.4-0.4,0.8-0.9,0.8c-0.4,0-0.9-0.4-0.9-0.8
	C145.7,158.7,146.1,158.3,146.6,158.3z"/>
<path class="st7" d="M146.6,158.3c0.4,0,0.9,0.4,0.9,0.8c0,0.4-0.4,0.8-0.9,0.8c-0.4,0-0.9-0.4-0.9-0.8
	C145.7,158.7,146.1,158.3,146.6,158.3z"/>
<path class="st0" d="M135.9,158.3c0.4,0,0.9,0.4,0.9,0.8c0,0.4-0.4,0.8-0.9,0.8c-0.4,0-0.8-0.4-0.8-0.8
	C135.1,158.7,135.5,158.3,135.9,158.3z"/>
<path class="st7" d="M135.9,158.3c0.4,0,0.9,0.4,0.9,0.8c0,0.4-0.4,0.8-0.9,0.8c-0.4,0-0.8-0.4-0.8-0.8
	C135.1,158.7,135.5,158.3,135.9,158.3z"/>
<path class="st0" d="M210.2,158.3c0.4,0,0.9,0.4,0.9,0.8c0,0.4-0.4,0.8-0.9,0.8c-0.4,0-0.8-0.4-0.8-0.8
	C209.3,158.6,209.7,158.3,210.2,158.3z"/>
<path class="st7" d="M210.2,158.3c0.4,0,0.9,0.4,0.9,0.8c0,0.4-0.4,0.8-0.9,0.8c-0.4,0-0.8-0.4-0.8-0.8
	C209.3,158.6,209.7,158.3,210.2,158.3z"/>
<path class="st0" d="M199.5,158.3c0.4,0,0.9,0.4,0.9,0.8c0,0.4-0.4,0.8-0.9,0.8c-0.4,0-0.9-0.4-0.9-0.8
	C198.7,158.7,199.1,158.3,199.5,158.3z"/>
<path class="st7" d="M199.5,158.3c0.4,0,0.9,0.4,0.9,0.8c0,0.4-0.4,0.8-0.9,0.8c-0.4,0-0.9-0.4-0.9-0.8
	C198.7,158.7,199.1,158.3,199.5,158.3z"/>
<rect x="381.8" y="412.6" class="st5" width="33.7" height="30.9"/>
<path class="st0" d="M365.8,462.7l1.9,4c-1.3-0.6-2.5-0.6-3.8,0L365.8,462.7"/>
<path class="st0" d="M416.1,463.1l1.9,4c-1.3-0.6-2.5-0.6-3.8,0L416.1,463.1"/>
<rect x="423.2" y="430.7" class="st5" width="53.8" height="12.8"/>
<line class="st7" x1="399.1" y1="445.6" x2="399.1" y2="452.6"/>
<path class="st0" d="M399,455.4l1.9-4c-1.3,0.6-2.5,0.6-3.8,0L399,455.4"/>
<path class="st0" d="M399.3,443.9l1.9,4c-1.3-0.6-2.5-0.6-3.8,0L399.3,443.9"/>
<line class="st7" x1="450.6" y1="446.9" x2="450.6" y2="455.7"/>
<path class="st0" d="M450.6,457l1.9-4c-1.3,0.6-2.5,0.6-3.8,0L450.6,457"/>
<path class="st0" d="M450.7,443.9l1.9,4c-1.3-0.6-2.5-0.6-3.8,0L450.7,443.9"/>
<text transform="matrix(1.1018 0 0 1 386.5781 307.7068)" class="st0 st1 st2">TIMING AND</text>
<rect x="380.2" y="301.7" class="st16" width="42.5" height="13.4"/>
<rect x="379.9" y="264.3" class="st5" width="42.4" height="12.8"/>
<rect x="379.7" y="244.7" class="st5" width="42.4" height="12.8"/>
<path class="st0" d="M379.9,306.9l-4.4-1.8c0.6,1.2,0.6,2.4,0,3.6L379.9,306.9"/>
<path class="st0" d="M379.9,310.2l-4.4-1.8c0.6,1.2,0.6,2.4,0,3.6L379.9,310.2"/>
<path class="st0" d="M379.9,313.6l-4.4-1.8c0.6,1.2,0.6,2.4,0,3.6L379.9,313.6"/>
<path class="st0" d="M379.9,303.3l-4.4-1.8c0.6,1.2,0.6,2.4,0,3.6L379.9,303.3"/>
<path class="st0" d="M375.2,303.3"/>
<polyline class="st7" points="376.9,303.3 374.6,303.3 374.6,251.4 379.3,251.4 "/>
<text transform="matrix(1.1479 0 0 1 392.2659 209.3509)" class="st0 st4 st2">C</text>
<rect x="419" y="197.8" class="st5" width="44.2" height="12.8"/>
<rect x="364.2" y="197.9" class="st5" width="44.2" height="12.8"/>
<line class="st7" x1="422.6" y1="197.9" x2="422.6" y2="187.1"/>
<path class="st0" d="M422.6,185.1l-1.9,4c1.3-0.6,2.5-0.6,3.8,0L422.6,185.1"/>
<line class="st7" x1="367.7" y1="187.1" x2="367.7" y2="196"/>
<path class="st0" d="M367.7,185.1l1.9,4c-1.3-0.6-2.5-0.6-3.8,0L367.7,185.1"/>
<path class="st0" d="M367.7,197.9l1.9-4c-1.3,0.6-2.5,0.6-3.8,0L367.7,197.9"/>
<line class="st7" x1="427.9" y1="197.9" x2="427.9" y2="187.1"/>
<path class="st0" d="M427.9,185.1l-1.9,4c1.3-0.6,2.5-0.6,3.8,0L427.9,185.1"/>
<line class="st7" x1="373" y1="187.1" x2="373" y2="196"/>
<path class="st0" d="M373,185.1l1.9,4c-1.3-0.6-2.5-0.6-3.8,0L373,185.1"/>
<path class="st0" d="M373,197.9l1.9-4c-1.3,0.6-2.5,0.6-3.8,0L373,197.9"/>
<line class="st7" x1="433.2" y1="197.9" x2="433.2" y2="187.1"/>
<path class="st0" d="M433.2,185.1l-1.9,4c1.3-0.6,2.5-0.6,3.8,0L433.2,185.1"/>
<line class="st7" x1="378.3" y1="187.1" x2="378.3" y2="196"/>
<path class="st0" d="M378.3,185.1l1.9,4c-1.3-0.6-2.5-0.6-3.8,0L378.3,185.1"/>
<path class="st0" d="M378.3,197.9l1.9-4c-1.3,0.6-2.5,0.6-3.8,0L378.3,197.9"/>
<line class="st7" x1="438.5" y1="197.9" x2="438.5" y2="187.1"/>
<path class="st0" d="M438.5,185.1l-1.9,4c1.3-0.6,2.5-0.6,3.8,0L438.5,185.1"/>
<line class="st7" x1="383.6" y1="187.1" x2="383.6" y2="196"/>
<path class="st0" d="M383.6,185.1l1.9,4c-1.3-0.6-2.5-0.6-3.8,0L383.6,185.1"/>
<path class="st0" d="M383.6,197.9l1.9-4c-1.3,0.6-2.5,0.6-3.8,0L383.6,197.9"/>
<line class="st7" x1="443.8" y1="197.9" x2="443.8" y2="187.1"/>
<path class="st0" d="M443.8,185.1l-1.9,4c1.3-0.6,2.5-0.6,3.8,0L443.8,185.1"/>
<line class="st7" x1="388.9" y1="187.1" x2="388.9" y2="195.9"/>
<path class="st0" d="M388.9,185.1l1.9,4c-1.3-0.6-2.5-0.6-3.8,0L388.9,185.1"/>
<path class="st0" d="M388.9,197.9l1.9-4c-1.3,0.6-2.5,0.6-3.8,0L388.9,197.9"/>
<line class="st7" x1="385.4" y1="212.7" x2="385.4" y2="221.5"/>
<path class="st0" d="M385.4,210.7l1.9,4c-1.3-0.6-2.5-0.6-3.8,0L385.4,210.7"/>
<path class="st0" d="M385.4,223.5l1.9-4c-1.3,0.6-2.5,0.6-3.8,0L385.4,223.5"/>
<line class="st7" x1="440.2" y1="212.7" x2="440.2" y2="221.5"/>
<path class="st0" d="M440.1,210.7l1.9,4c-1.3-0.6-2.5-0.6-3.8,0L440.1,210.7"/>
<path class="st0" d="M440.1,223.5l1.9-4c-1.3,0.6-2.5,0.6-3.8,0L440.1,223.5"/>
<line class="st7" x1="449.1" y1="197.9" x2="449.1" y2="187.1"/>
<path class="st0" d="M449.1,185.1l-1.9,4c1.3-0.6,2.5-0.6,3.8,0L449.1,185.1"/>
<line class="st7" x1="394.2" y1="187.1" x2="394.2" y2="196"/>
<path class="st0" d="M394.2,185.1l1.9,4c-1.3-0.6-2.5-0.6-3.8,0L394.2,185.1"/>
<path class="st0" d="M394.2,197.9l1.9-4c-1.3,0.6-2.5,0.6-3.8,0L394.2,197.9"/>
<line class="st7" x1="454.4" y1="197.9" x2="454.4" y2="187.1"/>
<path class="st0" d="M454.4,185.1l-1.9,4c1.3-0.6,2.5-0.6,3.8,0L454.4,185.1"/>
<line class="st7" x1="399.5" y1="187.1" x2="399.5" y2="196"/>
<path class="st0" d="M399.5,185.1l1.9,4c-1.3-0.6-2.5-0.6-3.8,0L399.5,185.1"/>
<path class="st0" d="M399.5,197.9l1.9-4c-1.3,0.6-2.5,0.6-3.8,0L399.5,197.9"/>
<line class="st7" x1="459.7" y1="197.9" x2="459.7" y2="187.1"/>
<path class="st0" d="M459.7,185.1l-1.9,4c1.3-0.6,2.5-0.6,3.8,0L459.7,185.1"/>
<line class="st7" x1="404.8" y1="187.1" x2="404.8" y2="196"/>
<path class="st0" d="M404.8,185.1l1.9,4c-1.3-0.6-2.5-0.6-3.8,0L404.8,185.1"/>
<path class="st0" d="M404.8,197.9l1.9-4c-1.3,0.6-2.5,0.6-3.8,0L404.8,197.9"/>
<rect x="98.1" y="302.8" class="st5" width="42.5" height="12.8"/>
<rect x="97.9" y="277.5" class="st5" width="42.5" height="12.8"/>
<rect x="185.5" y="293.9" class="st5" width="3.3" height="2.8"/>
<rect x="185.7" y="319.3" class="st5" width="2.9" height="2.8"/>
<polyline class="st7" points="189.1,295.4 212.5,295.5 212.5,320.8 188.6,320.8 "/>
<path class="st0" d="M185.2,295.7l-4.4-1.7c0.6,1.1,0.6,2.3,0,3.4L185.2,295.7"/>
<path class="st0" d="M188.7,320.7l4.4,1.7c-0.6-1.1-0.6-2.3,0-3.4L188.7,320.7"/>
<path class="st0" d="M140.6,312l4.4,1.7c-0.6-1.1-0.6-2.3,0-3.4L140.6,312"/>
<path class="st0" d="M120.6,302.9l1.9-4c-1.3,0.6-2.5,0.6-3.8,0L120.6,302.9"/>
<line class="st7" x1="120.6" y1="302.9" x2="120.4" y2="290.5"/>
<path class="st0" d="M120.5,290.3l-1.9,4c1.3-0.6,2.5-0.6,3.8,0L120.5,290.3"/>
<path class="st0" d="M120.6,277.3l1.9-4c-1.3,0.6-2.5,0.6-3.8,0L120.6,277.3"/>
<rect x="98.3" y="325.9" class="st5" width="42.5" height="12.8"/>
<text transform="matrix(1.1018 0 0 1 111.6982 362.2126)" class="st0 st1 st2">LOGIC</text>
<rect x="98.2" y="351.6" class="st5" width="42.4" height="12.8"/>
<polyline class="st7" points="140.5,356.6 158.9,356.6 158.9,283.4 163.3,283.4 "/>
<text transform="matrix(1.1018 0 0 1 113.1924 336.8464)" class="st0 st1 st2">SCAN</text>
<line class="st7" x1="98" y1="285.4" x2="90.7" y2="285.4"/>
<line class="st7" x1="97.8" y1="309.3" x2="90.5" y2="309.3"/>
<line class="st7" x1="98" y1="332.6" x2="90.7" y2="332.6"/>
<line class="st7" x1="98.1" y1="359" x2="90.8" y2="359"/>
<line class="st17" x1="90.7" y1="285.1" x2="90.7" y2="359.2"/>
<path class="st0" d="M98.1,332.6l-4.4-1.7c0.6,1.1,0.6,2.3,0,3.4L98.1,332.6"/>
<path class="st0" d="M97.9,309.3l-4.4-1.7c0.6,1.1,0.6,2.3,0,3.4L97.9,309.3"/>
<path class="st0" d="M98.1,359l-4.4-1.7c0.6,1.1,0.6,2.3,0,3.4L98.1,359"/>
<polyline class="st7" points="309.1,370.1 129.2,370.1 129.2,364.9 "/>
<path class="st0" d="M98.2,285.4l-4.4-1.7c0.6,1.1,0.6,2.3,0,3.4L98.2,285.4"/>
<line class="st7" x1="209.1" y1="446.9" x2="209.1" y2="455.7"/>
<path class="st0" d="M209.1,457l1.9-4c-1.3,0.6-2.5,0.6-3.8,0L209.1,457"/>
<path class="st0" d="M209,444.3l1.9,4c-1.3-0.6-2.5-0.6-3.8,0L209,444.3"/>
<polyline class="st7" points="109.7,364.5 109.8,420.9 328.1,420.8 328.1,430.8 "/>
<path class="st0" d="M109.6,364.6l1.9,4c-1.3-0.6-2.5-0.6-3.8,0L109.6,364.6"/>
<line class="st7" x1="131.9" y1="484.7" x2="132.1" y2="450.5"/>
<polyline class="st18" points="262.8,484 262.6,439.3 314.9,439.2 "/>
<path class="st0" d="M262.7,486.9l1.9-4c-1.3,0.6-2.5,0.6-3.8,0L262.7,486.9"/>
<path class="st0" d="M314.7,438.9l-4.4-1.7c0.6,1.1,0.6,2.3,0,3.4L314.7,438.9"/>
<path class="st0" d="M381.4,438.3"/>
<path class="st7" d="M381.4,438.3"/>
<path class="st0" d="M371,438.5"/>
<path class="st7" d="M371,438.5"/>
<path class="st0" d="M371,412.8"/>
<path class="st0" d="M450.9,430.5l1.9-4c-1.3,0.6-2.5,0.6-3.8,0L450.9,430.5"/>
<text transform="matrix(1.3623 0 0 1 189.478 202.7988)" class="st0 st1 st2">D</text>
<text transform="matrix(1.1479 0 0 1 193.9256 202.7985)" class="st0 st1 st2">A</text>
<text transform="matrix(1.1479 0 0 1 196.9272 202.7985)" class="st0 st1 st2">T</text>
<text transform="matrix(1.1479 0 0 1 200.1105 202.7985)" class="st0 st1 st2 st19">A</text>
<text transform="matrix(1.1479 0 0 1 205.0273 202.7985)" class="st0 st1 st2">DIR</text>
<text transform="matrix(1.1479 0 0 1 213.6273 202.7985)" class="st0 st1 st2">.</text>
<text transform="matrix(1.1479 0 0 1 185.9712 208.1404)" class="st0 st1 st2">REG</text>
<text transform="matrix(1.1479 0 0 1 191.8252 208.1404)" class="st0 st1 st2 st19">.</text>
<text transform="matrix(1.1479 0 0 1 199.4075 208.1402)" class="st0 st1 st2">PO</text>
<text transform="matrix(1.1479 0 0 1 206.5615 208.1402)" class="st0 st1 st2">R</text>
<text transform="matrix(1.1479 0 0 1 210.2 208.1824)" class="st0 st1 st2">T</text>
<text transform="matrix(1.1479 0 0 1 214.0669 208.1404)" class="st0 st4 st2">F</text>
<text transform="matrix(1.1479 0 0 1 127.2162 203.1726)" class="st0 st1 st2">D</text>
<text transform="matrix(1.1479 0 0 1 136.6761 203.1316)" class="st0 st1 st2">A</text>
<text transform="matrix(1.1479 0 0 1 133.7035 203.1726)" class="st0 st1 st2">T</text>
<text transform="matrix(1.1479 0 0 1 130.7181 203.1726)" class="st0 st1 st2 st19">A</text>
<text transform="matrix(1.1479 0 0 1 141.225 203.1726)" class="st0 st1 st2">REGISTER</text>
<text transform="matrix(1.1479 0 0 1 152.2188 208.1824)" class="st0 st4 st2">F</text>
<rect x="179.7" y="197.5" class="st5" width="44.2" height="12.8"/>
<rect x="125" y="197.6" class="st5" width="44.2" height="12.8"/>
<line class="st7" x1="183.3" y1="197.6" x2="183.3" y2="186.8"/>
<path class="st0" d="M183.3,184.8l-1.9,4c1.3-0.6,2.5-0.6,3.8,0L183.3,184.8"/>
<line class="st7" x1="128.4" y1="186.8" x2="128.4" y2="195.6"/>
<path class="st0" d="M128.4,184.8l1.9,4c-1.3-0.6-2.5-0.6-3.8,0L128.4,184.8"/>
<path class="st0" d="M128.4,197.6l1.9-4c-1.3,0.6-2.5,0.6-3.8,0L128.4,197.6"/>
<line class="st7" x1="188.6" y1="197.6" x2="188.6" y2="186.8"/>
<path class="st0" d="M188.6,184.8l-1.9,4c1.3-0.6,2.5-0.6,3.8,0L188.6,184.8"/>
<line class="st7" x1="133.7" y1="186.8" x2="133.7" y2="195.6"/>
<path class="st0" d="M133.7,184.8l1.9,4c-1.3-0.6-2.5-0.6-3.8,0L133.7,184.8"/>
<path class="st0" d="M133.7,197.6l1.9-4c-1.3,0.6-2.5,0.6-3.8,0L133.7,197.6"/>
<line class="st7" x1="193.9" y1="197.6" x2="193.9" y2="186.8"/>
<path class="st0" d="M193.9,184.8l-1.9,4c1.3-0.6,2.5-0.6,3.8,0L193.9,184.8"/>
<line class="st7" x1="139" y1="186.8" x2="139" y2="195.6"/>
<path class="st0" d="M139,184.8l1.9,4c-1.3-0.6-2.5-0.6-3.8,0L139,184.8"/>
<path class="st0" d="M139,197.6l1.9-4c-1.3,0.6-2.5,0.6-3.8,0L139,197.6"/>
<line class="st7" x1="199.2" y1="197.6" x2="199.2" y2="186.8"/>
<path class="st0" d="M199.2,184.8l-1.9,4c1.3-0.6,2.5-0.6,3.8,0L199.2,184.8"/>
<line class="st7" x1="144.3" y1="186.8" x2="144.3" y2="195.6"/>
<path class="st0" d="M144.3,184.8l1.9,4c-1.3-0.6-2.5-0.6-3.8,0L144.3,184.8"/>
<path class="st0" d="M144.3,197.6l1.9-4c-1.3,0.6-2.5,0.6-3.8,0L144.3,197.6"/>
<line class="st7" x1="204.6" y1="197.6" x2="204.6" y2="186.8"/>
<path class="st0" d="M204.6,184.8l-1.9,4c1.3-0.6,2.5-0.6,3.8,0L204.6,184.8"/>
<line class="st7" x1="149.6" y1="186.8" x2="149.6" y2="195.6"/>
<path class="st0" d="M149.6,184.8l1.9,4c-1.3-0.6-2.5-0.6-3.8,0L149.6,184.8"/>
<path class="st0" d="M149.6,197.6l1.9-4c-1.3,0.6-2.5,0.6-3.8,0L149.6,197.6"/>
<line class="st7" x1="151.3" y1="212.3" x2="151.3" y2="221.2"/>
<path class="st0" d="M151.3,210.3l1.9,4c-1.3-0.6-2.5-0.6-3.8,0L151.3,210.3"/>
<path class="st0" d="M151.3,223.2l1.9-4c-1.3,0.6-2.5,0.6-3.8,0L151.3,223.2"/>
<line class="st7" x1="200.9" y1="212.4" x2="200.9" y2="221.2"/>
<path class="st0" d="M200.9,210.4l1.9,4c-1.3-0.6-2.5-0.6-3.8,0L200.9,210.4"/>
<path class="st0" d="M200.9,223.2l1.9-4c-1.3,0.6-2.5,0.6-3.8,0L200.9,223.2"/>
<line class="st7" x1="209.9" y1="197.6" x2="209.9" y2="186.8"/>
<path class="st0" d="M209.9,184.8l-1.9,4c1.3-0.6,2.5-0.6,3.8,0L209.9,184.8"/>
<line class="st7" x1="155" y1="186.8" x2="155" y2="195.6"/>
<path class="st0" d="M155,184.8l1.9,4c-1.3-0.6-2.5-0.6-3.8,0L155,184.8"/>
<path class="st0" d="M155,197.6l1.9-4c-1.3,0.6-2.5,0.6-3.8,0L155,197.6"/>
<line class="st7" x1="215.2" y1="197.6" x2="215.2" y2="186.8"/>
<path class="st0" d="M215.1,184.8l-1.9,4c1.3-0.6,2.5-0.6,3.8,0L215.1,184.8"/>
<line class="st7" x1="160.2" y1="186.8" x2="160.2" y2="195.6"/>
<path class="st0" d="M160.2,184.8l1.9,4c-1.3-0.6-2.5-0.6-3.8,0L160.2,184.8"/>
<path class="st0" d="M160.2,197.6l1.9-4c-1.3,0.6-2.5,0.6-3.8,0L160.2,197.6"/>
<line class="st7" x1="220.4" y1="197.6" x2="220.4" y2="186.8"/>
<path class="st0" d="M220.4,184.8l-1.9,4c1.3-0.6,2.5-0.6,3.8,0L220.4,184.8"/>
<line class="st7" x1="165.5" y1="186.8" x2="165.5" y2="195.6"/>
<path class="st0" d="M165.5,184.8l1.9,4c-1.3-0.6-2.5-0.6-3.8,0L165.5,184.8"/>
<path class="st0" d="M165.5,197.6l1.9-4c-1.3,0.6-2.5,0.6-3.8,0L165.5,197.6"/>
<rect x="229.6" y="234.8" class="st20" width="42.5" height="16"/>
<text transform="matrix(1.1479 0 0 1 236.3823 240.9617)" class="st0 st1 st2">POR </text>
<text transform="matrix(1.1479 0 0 1 250.0859 240.9617)" class="st0 st1 st2">-</text>
<text transform="matrix(1.1479 0 0 1 252.2656 240.9617)" class="st0 st1 st2"> BOD</text>
<text transform="matrix(1.1479 0 0 1 243.1021 246.9558)" class="st0 st1 st2">RESET</text>
<text transform="matrix(1.1018 0 0 1 378.2003 560.0125)" class="st0 st1 st2">PD7 </text>
<text transform="matrix(1.1018 0 0 1 391.9182 560.0125)" class="st0 st1 st2">-</text>
<text transform="matrix(1.1018 0 0 1 397.1002 560.0125)" class="st0 st1 st2"> PD0</text>
<path class="st7" d="M466.7,527.8"/>
<line class="st15" x1="466.7" y1="525.8" x2="466.7" y2="525.8"/>
<path class="st7" d="M509.1,527.8"/>
<line class="st15" x1="509.1" y1="525.8" x2="509.1" y2="525.8"/>
<line class="st15" x1="509.1" y1="551.5" x2="509.1" y2="551.5"/>
<rect x="81.6" y="153.4" class="st21" width="446.2" height="386.8"/>
<path class="st0" d="M357,486.9l1.9-4c-1.3,0.6-2.5,0.6-3.8,0L357,486.9"/>
<path class="st0" d="M142.7,210.5l-1.9,4c1.3-0.6,2.5-0.6,3.8,0L142.7,210.5"/>
<path class="st0" d="M376.2,172l1.9-4c-1.3,0.6-2.5,0.6-3.8,0L376.2,172"/>
<path class="st0" d="M386.6,171.9l1.9-4c-1.3,0.6-2.5,0.6-3.8,0L386.6,171.9"/>
<path class="st0" d="M135.9,146.3l1.9,4c-1.3-0.6-2.5-0.6-3.8,0L135.9,146.3"/>
<path class="st0" d="M146.5,146.3l1.9,4c-1.3-0.6-2.5-0.6-3.8,0L146.5,146.3"/>
<path class="st0" d="M157.1,146.3l1.9,4c-1.3-0.6-2.5-0.6-3.8,0L157.1,146.3"/>
<path class="st0" d="M167.7,146.3l1.9,4c-1.3-0.6-2.5-0.6-3.8,0L167.7,146.3"/>
<path class="st0" d="M199.5,146.3l1.9,4c-1.3-0.6-2.5-0.6-3.8,0L199.5,146.3"/>
<path class="st0" d="M210.1,146.3l1.9,4c-1.3-0.6-2.5-0.6-3.8,0L210.1,146.3"/>
<path class="st22" d="M375,420.8"/>
<path class="st0" d="M250.8,402.8l1.9-4c-1.3,0.6-2.5,0.6-3.8,0L250.8,402.8"/>
<path class="st0" d="M328.1,430.5l1.9-4c-1.3,0.6-2.5,0.6-3.8,0L328.1,430.5"/>
<rect x="353.6" y="363.2" class="st23" width="2.4" height="2.5"/>
<rect x="353.6" y="363.2" class="st24" width="2.4" height="2.5"/>
<path class="st13" d="M153.8,474.1"/>
<path class="st7" d="M172.9,468.9"/>
<path class="st0" d="M335.3,443.4l1.9,4c-1.3-0.6-2.5-0.6-3.8,0L335.3,443.4"/>
<line class="st13" x1="347.7" y1="451.5" x2="347.7" y2="484.2"/>
<path class="st0" d="M347.7,487.1l1.9-4c-1.3,0.6-2.5,0.6-3.8,0L347.7,487.1"/>
<path class="st0" d="M347.6,450.2l1.9,4c-1.3-0.6-2.5-0.6-3.8,0L347.6,450.2"/>
<path class="st0" d="M209.3,430.4l1.9-4c-1.3,0.6-2.5,0.6-3.8,0L209.3,430.4"/>
<path class="st0" d="M343.7,424.6"/>
<polyline class="st7" points="343.8,427.9 343.8,424.6 209.4,424.8 209.3,430.8 "/>
<path class="st0" d="M160.2,487l1.9-4c-1.3,0.6-2.5,0.6-3.8,0L160.2,487"/>
<line class="st15" x1="160.1" y1="475.8" x2="356.7" y2="475.8"/>
<line class="st25" x1="160.1" y1="475.8" x2="356.7" y2="475.8"/>
<line class="st7" x1="160.1" y1="484.7" x2="160.1" y2="475.8"/>
<line class="st7" x1="245.1" y1="476.9" x2="245.1" y2="484.3"/>
<path class="st0" d="M245.1,475.6l1.9,4c-1.3-0.6-2.5-0.6-3.8,0L245.1,475.6"/>
<path class="st0" d="M245.1,487l1.9-4c-1.3,0.6-2.5,0.6-3.8,0L245.1,487"/>
<polyline class="st25" points="120.9,274.4 120.9,270.4 142.5,270.4 142.5,213.4 "/>
<polyline class="st7" points="140.8,307 153.4,307 153.4,295.6 182.2,295.6 "/>
<polyline class="st7" points="141,333.2 147.5,333.2 147.5,246.2 229.1,246.2 "/>
<polyline class="st7" points="314.5,274.2 305.3,274.2 305.3,246.2 273.8,246.2 "/>
<polyline class="st7" points="143.5,311.9 153.4,311.9 153.4,320.7 185.5,320.7 "/>
<line class="st7" x1="502.7" y1="238.5" x2="272.3" y2="238.5"/>
<polyline class="st7" points="229.5,238.6 96.8,238.6 96.8,180.9 "/>
<polyline class="st13" points="343.8,424.5 377,424.5 377,372.6 451.2,372.6 450.9,429.6 "/>
<text transform="matrix(1.1018 0 0 1 394.2144 394.7351)" class="st0 st1 st2">PLL</text>
<rect x="381.4" y="386.1" class="st5" width="34.6" height="12.8"/>
<path class="st7" d="M399.1,392.5"/>
<path class="st0" d="M381.4,401.2"/>
<path class="st7" d="M381.4,401.2"/>
<path class="st0" d="M398.8,386.3l-1.9-4c1.3,0.6,2.5,0.6,3.8,0L398.8,386.3"/>
<line class="st13" x1="398.8" y1="344.3" x2="398.8" y2="383"/>
<rect x="314" y="389.2" class="st5" width="42.4" height="20"/>
<text transform="matrix(1.1018 0 0 1 318.9648 397.5876)" class="st0 st1 st2">HIGH SPEED</text>
<line class="st7" x1="311.8" y1="399.3" x2="298.5" y2="399.3"/>
<path class="st0" d="M314,399.3l-4.4,1.7c0.6-1.1,0.6-2.3,0-3.4L314,399.3"/>
<path class="st0" d="M296.3,399.3l4.4,1.7c-0.6-1.1-0.6-2.3,0-3.4L296.3,399.3"/>
<line class="st7" x1="399.1" y1="405.4" x2="359.2" y2="405.4"/>
<text transform="matrix(1.1018 0 0 1 183.8813 556.7156)" class="st0 st1 st2">PE2</text>
<text transform="matrix(1.1018 0 0 1 382.4312 144.0603)" class="st0 st1 st2">PC6</text>
<text transform="matrix(1.1018 0 0 1 194.8364 144.0603)" class="st0 st1 st2">PF1</text>
<text transform="matrix(1.1018 0 0 1 207.0942 143.8718)" class="st0 st1 st2">PF0</text>
<path class="st0" d="M356.9,475.9l1.9,4c-1.3-0.6-2.5-0.6-3.8,0L356.9,475.9"/>
<rect x="462.7" y="353.2" class="st5" width="42.4" height="30.4"/>
<path class="st23" d="M505.8,358.6c1.4-0.5,3.2-1.3,4.3-2.2l-0.9,2.2l0.9,2.2C508.9,359.9,507.2,359.1,505.8,358.6"/>
<line class="st26" x1="508.8" y1="358.6" x2="545.6" y2="358.6"/>
<path class="st0" d="M505.8,358.6c1.4-0.5,3.2-1.3,4.3-2.2l-0.9,2.2l0.9,2.2C508.9,359.9,507.2,359.1,505.8,358.6"/>
<path class="st23" d="M505.8,358.6c1.4-0.5,3.2-1.3,4.3-2.2l-0.9,2.2l0.9,2.2C508.9,359.9,507.2,359.1,505.8,358.6"/>
<line class="st26" x1="545.3" y1="358.7" x2="545.3" y2="353.3"/>
<line class="st26" x1="543.4" y1="353.2" x2="546.5" y2="353.2"/>
<line class="st26" x1="544.9" y1="377.3" x2="544.9" y2="386.5"/>
<line class="st26" x1="541" y1="386.5" x2="548.8" y2="386.5"/>
<line class="st26" x1="541" y1="389.1" x2="548.8" y2="389.1"/>
<line class="st26" x1="544.7" y1="389" x2="544.7" y2="395.1"/>
<text transform="matrix(1.1018 0 0 1 550.0293 389.0759)" class="st0 st27 st28">1uF</text>
<line class="st5" x1="549.5" y1="395.4" x2="538.9" y2="395.4"/>
<line class="st5" x1="547.8" y1="397" x2="540.7" y2="397"/>
<line class="st5" x1="546" y1="398.6" x2="542.5" y2="398.6"/>
<path class="st0" d="M505.6,358.1l4.4-1.7c-0.6,1.1-0.6,2.3,0,3.4L505.6,358.1"/>
<line class="st29" x1="544.9" y1="377.3" x2="505.4" y2="377.4"/>
<line class="st15" x1="408.3" y1="409.3" x2="408.3" y2="404"/>
<line class="st29" x1="408.3" y1="409.3" x2="408.3" y2="404"/>
<line class="st15" x1="408.3" y1="404" x2="517.7" y2="404"/>
<line class="st29" x1="408.3" y1="404" x2="517.7" y2="404"/>
<line class="st15" x1="517.6" y1="404" x2="517.6" y2="377.3"/>
<line class="st29" x1="517.6" y1="404" x2="517.6" y2="377.3"/>
<line class="st13" x1="270.2" y1="451.3" x2="270.2" y2="484"/>
<path class="st0" d="M270.2,450.4l1.9,4c-1.3-0.6-2.5-0.6-3.8,0L270.2,450.4"/>
<path class="st0" d="M270.2,486.9l1.9-4c-1.3,0.6-2.5,0.6-3.8,0L270.2,486.9"/>
<line class="st29" x1="359.2" y1="352.5" x2="366.7" y2="352.5"/>
<polyline class="st29" points="366.2,352.5 366.2,450.5 132,450.5 "/>
<path class="st0" d="M313.3,370l-4.4,1.7c0.6-1.1,0.6-2.3,0-3.4L313.3,370"/>
<path class="st0" d="M389.1,386.3l-1.9-4c1.3,0.6,2.5,0.6,3.8,0L389.1,386.3"/>
<polyline class="st13" points="362.1,392.9 362.1,365.7 398.2,365.7 "/>
<path class="st0" d="M356.4,405.5l4.4,1.7c-0.6-1.1-0.6-2.3,0-3.4L356.4,405.5"/>
<line class="st7" x1="356" y1="397.3" x2="370.5" y2="397.3"/>
<path class="st0" d="M356.9,393l4.4,1.7c-0.6-1.1-0.6-2.3,0-3.4L356.9,393"/>
<line class="st29" x1="399.1" y1="398.5" x2="399.1" y2="409.8"/>
<path class="st0" d="M399,412.8l-1.9-4c1.3,0.6,2.5,0.6,3.8,0L399,412.8"/>
<rect x="126.4" y="429.8" class="st20" width="42.5" height="14.5"/>
<text transform="matrix(1.1479 0 0 1 137.3018 435.0388)" class="st0 st1 st2">ANALOG</text>
<polyline class="st7" points="146.4,532.4 115.7,532.4 116.1,439.2 "/>
<line class="st7" x1="389.1" y1="383.8" x2="389.1" y2="379.7"/>
<polyline class="st7" points="502.9,133.4 502.9,308.8 422.8,308.8 "/>
<path class="st0" d="M422.7,308.6l4.4-1.7c-0.6,1.1-0.6,2.3,0,3.4L422.7,308.6"/>
<path class="st0" d="M408.1,412.7l-1.9-4c1.3,0.6,2.5,0.6,3.8,0L408.1,412.7"/>
<line class="st29" x1="415.4" y1="423.4" x2="501.7" y2="423.4"/>
<line class="st29" x1="415.7" y1="419.2" x2="543.8" y2="419.2"/>
<polyline class="st29" points="415.7,415.2 501.4,415.2 501.3,410.8 "/>
<line class="st29" x1="501.7" y1="423.4" x2="501.7" y2="428.1"/>
<line class="st29" x1="501.3" y1="410.8" x2="543.2" y2="410.8"/>
<line class="st29" x1="501.7" y1="428.1" x2="543.5" y2="428.1"/>
<text transform="matrix(1.1018 0 0 1 545.583 421.0349)" class="st0 st1 st2">DP</text>
<text transform="matrix(1.1018 0 0 1 545.79 429.8962)" class="st0 st1 st2">DM</text>
<rect x="127.5" y="392.4" class="st20" width="40.8" height="22.8"/>
<text transform="matrix(1.1479 0 0 1 142.9102 403.739)" class="st0 st1 st2">ADC</text>
<path class="st0" d="M126,438.9l-4.4-1.7c0.6,1.1,0.6,2.3,0,3.4L126,438.9z"/>
<path class="st29" d="M126,438.9l-4.4-1.7c0.6,1.1,0.6,2.3,0,3.4L126,438.9z"/>
<line class="st29" x1="116.1" y1="439.2" x2="125.3" y2="439.2"/>
<line class="st7" x1="156.3" y1="446.5" x2="156.3" y2="455.4"/>
<path class="st0" d="M156.3,456.7l1.9-4c-1.3,0.6-2.5,0.6-3.8,0L156.3,456.7"/>
<path class="st0" d="M156.3,443.9l1.9,4c-1.3-0.6-2.5-0.6-3.8,0L156.3,443.9"/>
<line class="st29" x1="132" y1="450.5" x2="131.9" y2="444.1"/>
<path class="st0" d="M132,444.1l-1.9,4c1.3-0.6,2.5-0.6,3.8,0L132,444.1"/>
<text transform="matrix(1.1018 0 0 1 50.9979 407.5999)" class="st0 st1 st2">AGND</text>
<text transform="matrix(1.1018 0 0 1 51.6826 416.9392)" class="st0 st1 st2">AREF</text>
<text transform="matrix(1.1018 0 0 1 52.6815 395.2002)" class="st0 st1 st2">AVCC</text>
<polyline class="st7" points="126.7,402 70.6,402 70.6,396.9 50.6,396.9 "/>
<line class="st7" x1="126.5" y1="406.1" x2="67" y2="406.1"/>
<polyline class="st7" points="126.3,410.2 70.5,410.2 70.5,418.1 50.6,418.1 "/>
<path class="st0" d="M126.9,401.9l-4.4-1.8c0.6,1.2,0.6,2.4,0,3.6L126.9,401.9"/>
<path class="st0" d="M177.8,456.6l1.9-4c-1.3,0.6-2.5,0.6-3.8,0L177.8,456.6"/>
<line class="st29" x1="177.6" y1="453.9" x2="177.6" y2="407.9"/>
<path class="st0" d="M168.8,407.7l4.4,1.7c-0.6-1.1-0.6-2.3,0-3.4L168.8,407.7"/>
<polyline class="st7" points="209.3,159 205.9,162.1 86.2,162.1 86.2,537.7 "/>
<path class="st0" d="M127.1,405.8l-4.4-1.8c0.6,1.2,0.6,2.4,0,3.6L127.1,405.8"/>
<path class="st0" d="M126.9,410l-4.4-1.8c0.6,1.2,0.6,2.4,0,3.6L126.9,410"/>
<line class="st7" x1="126.9" y1="395.1" x2="86.2" y2="395.1"/>
<path class="st0" d="M127.1,394.9l-4.4-1.8c0.6,1.2,0.6,2.4,0,3.6L127.1,394.9"/>
<line class="st7" x1="126.7" y1="433.4" x2="86" y2="433.4"/>
<path class="st0" d="M126.1,433.1l-4.4-1.8c0.6,1.2,0.6,2.4,0,3.6L126.1,433.1"/>
<line class="st7" x1="380.4" y1="537.3" x2="86" y2="537.3"/>
<line class="st7" x1="383.6" y1="534.4" x2="380.2" y2="537.5"/>
<line class="st7" x1="362" y1="534.3" x2="358.6" y2="537.3"/>
<line class="st7" x1="351.4" y1="534.3" x2="348" y2="537.4"/>
<line class="st7" x1="254.2" y1="534.3" x2="250.7" y2="537.4"/>
<line class="st7" x1="264.5" y1="534.3" x2="261.3" y2="537.4"/>
<line class="st7" x1="275.4" y1="534.3" x2="271.9" y2="537.4"/>
<path class="st0" d="M254.2,533.7c0.4,0,0.9,0.4,0.9,0.8c0,0.4-0.4,0.8-0.9,0.8c-0.4,0-0.9-0.4-0.9-0.8
	C253.3,534,253.7,533.7,254.2,533.7z"/>
<path class="st7" d="M254.2,533.7c0.4,0,0.9,0.4,0.9,0.8c0,0.4-0.4,0.8-0.9,0.8c-0.4,0-0.9-0.4-0.9-0.8
	C253.3,534,253.7,533.7,254.2,533.7z"/>
<path class="st0" d="M264.5,533.7c0.4,0,0.9,0.4,0.9,0.8c0,0.4-0.4,0.8-0.9,0.8c-0.4,0-0.9-0.4-0.9-0.8
	C263.7,534,264.1,533.7,264.5,533.7z"/>
<path class="st7" d="M264.5,533.7c0.4,0,0.9,0.4,0.9,0.8c0,0.4-0.4,0.8-0.9,0.8c-0.4,0-0.9-0.4-0.9-0.8
	C263.7,534,264.1,533.7,264.5,533.7z"/>
<path class="st0" d="M275.2,533.5c0.4,0,0.9,0.4,0.9,0.8c0,0.4-0.4,0.8-0.9,0.8c-0.4,0-0.9-0.4-0.9-0.8
	C274.4,533.9,274.8,533.5,275.2,533.5z"/>
<path class="st7" d="M275.2,533.5c0.4,0,0.9,0.4,0.9,0.8c0,0.4-0.4,0.8-0.9,0.8c-0.4,0-0.9-0.4-0.9-0.8
	C274.4,533.9,274.8,533.5,275.2,533.5z"/>
<path class="st0" d="M351.4,533.2c0.4,0,0.9,0.4,0.9,0.8c0,0.4-0.4,0.8-0.9,0.8c-0.4,0-0.9-0.4-0.9-0.8
	C350.6,533.6,351,533.2,351.4,533.2z"/>
<path class="st7" d="M351.4,533.2c0.4,0,0.9,0.4,0.9,0.8c0,0.4-0.4,0.8-0.9,0.8c-0.4,0-0.9-0.4-0.9-0.8
	C350.6,533.6,351,533.2,351.4,533.2z"/>
<path class="st0" d="M362.2,533.5c0.4,0,0.9,0.4,0.9,0.8c0,0.4-0.4,0.8-0.9,0.8c-0.4,0-0.9-0.4-0.9-0.8
	C361.3,533.9,361.7,533.5,362.2,533.5z"/>
<path class="st7" d="M362.2,533.5c0.4,0,0.9,0.4,0.9,0.8c0,0.4-0.4,0.8-0.9,0.8c-0.4,0-0.9-0.4-0.9-0.8
	C361.3,533.9,361.7,533.5,362.2,533.5z"/>
<path class="st0" d="M383.6,533.8c0.4,0,0.9,0.4,0.9,0.8c0,0.4-0.4,0.8-0.9,0.8c-0.4,0-0.9-0.4-0.9-0.8
	C382.8,534.1,383.2,533.8,383.6,533.8z"/>
<path class="st7" d="M383.6,533.8c0.4,0,0.9,0.4,0.9,0.8c0,0.4-0.4,0.8-0.9,0.8c-0.4,0-0.9-0.4-0.9-0.8
	C382.8,534.1,383.2,533.8,383.6,533.8z"/>
<path class="st0" d="M169,399.1l4.4,1.7c-0.6-1.1-0.6-2.3,0-3.4L169,399.1"/>
<polyline class="st7" points="171.8,398.9 213.8,398.9 213.8,324.2 276.1,324.2 276.1,318.9 365,318.9 "/>
<polyline class="st7" points="359.6,348.4 365,348.4 365,318.6 "/>
<line class="st29" x1="177.6" y1="407.9" x2="172.2" y2="407.9"/>
<path class="st0" d="M371.1,396.4c0.4,0,0.9,0.4,0.9,0.8s-0.4,0.8-0.9,0.8c-0.4,0-0.9-0.4-0.9-0.8
	C370.3,396.8,370.7,396.4,371.1,396.4z"/>
<path class="st7" d="M371.1,396.4c0.4,0,0.9,0.4,0.9,0.8s-0.4,0.8-0.9,0.8c-0.4,0-0.9-0.4-0.9-0.8
	C370.3,396.8,370.7,396.4,371.1,396.4z"/>
<path class="st0" d="M398.9,404.5c0.4,0,0.9,0.4,0.9,0.8s-0.4,0.8-0.9,0.8c-0.4,0-0.9-0.4-0.9-0.8
	C398.1,404.9,398.5,404.5,398.9,404.5z"/>
<path class="st7" d="M398.9,404.5c0.4,0,0.9,0.4,0.9,0.8s-0.4,0.8-0.9,0.8c-0.4,0-0.9-0.4-0.9-0.8
	C398.1,404.9,398.5,404.5,398.9,404.5z"/>
<path class="st0" d="M356.8,397.3l4.4,1.7c-0.6-1.1-0.6-2.3,0-3.4L356.8,397.3"/>
<path class="st0" d="M356.5,401l4.4,1.7c-0.6-1.1-0.6-2.3,0-3.4L356.5,401"/>
<line class="st7" x1="359.6" y1="401.1" x2="365.5" y2="401.1"/>
<path class="st0" d="M365.9,400.3c0.4,0,0.9,0.4,0.9,0.8s-0.4,0.8-0.9,0.8c-0.4,0-0.9-0.4-0.9-0.8
	C365.1,400.6,365.5,400.3,365.9,400.3z"/>
<path class="st7" d="M365.9,400.3c0.4,0,0.9,0.4,0.9,0.8s-0.4,0.8-0.9,0.8c-0.4,0-0.9-0.4-0.9-0.8
	C365.1,400.6,365.5,400.3,365.9,400.3z"/>
<line class="st13" x1="359.9" y1="392.9" x2="361.8" y2="392.9"/>
<path class="st0" d="M86.1,432.2c0.4,0,0.9,0.4,0.9,0.8s-0.4,0.8-0.9,0.8c-0.4,0-0.9-0.4-0.9-0.8S85.6,432.2,86.1,432.2z"/>
<path class="st7" d="M86.1,432.2c0.4,0,0.9,0.4,0.9,0.8s-0.4,0.8-0.9,0.8c-0.4,0-0.9-0.4-0.9-0.8S85.6,432.2,86.1,432.2z"/>
<path class="st0" d="M86.2,394.4c0.4,0,0.9,0.4,0.9,0.8s-0.4,0.8-0.9,0.8c-0.4,0-0.9-0.4-0.9-0.8C85.3,394.8,85.7,394.4,86.2,394.4z
	"/>
<path class="st7" d="M86.2,394.4c0.4,0,0.9,0.4,0.9,0.8s-0.4,0.8-0.9,0.8c-0.4,0-0.9-0.4-0.9-0.8C85.3,394.8,85.7,394.4,86.2,394.4z
	"/>
<path class="st0" d="M415.7,415.1l4.4,1.7c-0.6-1.1-0.6-2.3,0-3.4L415.7,415.1"/>
<path class="st0" d="M415.4,418.8l4.4,1.7c-0.6-1.1-0.6-2.3,0-3.4L415.4,418.8"/>
<path class="st0" d="M415.7,423l4.4,1.7c-0.6-1.1-0.6-2.3,0-3.4L415.7,423"/>
<rect x="126.7" y="374.9" class="st20" width="41.2" height="13.6"/>
<text transform="matrix(1.1142 0 0 1 136.7793 385.6394)" class="st0 st1 st2">SENSOR</text>
<line class="st7" x1="116.8" y1="382.2" x2="126.1" y2="382.2"/>
<line class="st7" x1="116.8" y1="382.1" x2="116.8" y2="395.1"/>
<path class="st0" d="M116.7,394.1c0.4,0,0.9,0.4,0.9,0.8s-0.4,0.8-0.9,0.8c-0.4,0-0.9-0.4-0.9-0.8
	C115.8,394.5,116.2,394.1,116.7,394.1z"/>
<path class="st7" d="M116.7,394.1c0.4,0,0.9,0.4,0.9,0.8s-0.4,0.8-0.9,0.8c-0.4,0-0.9-0.4-0.9-0.8
	C115.8,394.5,116.2,394.1,116.7,394.1z"/>
<text transform="matrix(1.1018 0 0 1 137.4203 208.1404)" class="st0 st1 st2">PO</text>
<text transform="matrix(1.1018 0 0 1 144.8032 208.1404)" class="st0 st1 st2">R</text>
<text transform="matrix(1.1018 0 0 1 148.5796 208.1404)" class="st0 st1 st2">T</text>
<text transform="matrix(1.1018 0 0 1 386.4414 179.9333)" class="st0 st1 st2">PO</text>
<text transform="matrix(1.1018 0 0 1 393.8243 179.9333)" class="st0 st1 st2">R</text>
<text transform="matrix(1.1018 0 0 1 397.6007 179.9333)" class="st0 st1 st2">T</text>
<text transform="matrix(-5.557482e-17 -0.9076 1 -6.123361e-17 485.8503 149.2999)" class="st0 st1 st14">XTAL2</text>
<text transform="matrix(1.3623 0 0 1 427.5431 202.7986)" class="st0 st1 st2">D</text>
<text transform="matrix(1.1479 0 0 1 431.9905 202.7983)" class="st0 st1 st2">A</text>
<text transform="matrix(1.1479 0 0 1 434.9922 202.7983)" class="st0 st1 st2">T</text>
<text transform="matrix(1.1479 0 0 1 438.1755 202.7983)" class="st0 st1 st2 st19">A</text>
<text transform="matrix(1.1479 0 0 1 443.0923 202.7983)" class="st0 st1 st2">DIR</text>
<text transform="matrix(1.1479 0 0 1 451.6921 202.7983)" class="st0 st1 st2">.</text>
<text transform="matrix(1.1479 0 0 1 424.0361 208.1402)" class="st0 st1 st2">REG</text>
<text transform="matrix(1.1479 0 0 1 429.8901 208.1402)" class="st0 st1 st2 st19">.</text>
<text transform="matrix(1.1479 0 0 1 437.4724 208.1401)" class="st0 st1 st2">PO</text>
<text transform="matrix(1.1479 0 0 1 444.6265 208.1401)" class="st0 st1 st2">R</text>
<text transform="matrix(1.1479 0 0 1 448.2649 208.1822)" class="st0 st1 st2">T</text>
<text transform="matrix(1.1479 0 0 1 365.7998 204.2409)" class="st0 st1 st2">D</text>
<text transform="matrix(1.1479 0 0 1 375.2598 204.1999)" class="st0 st1 st2">A</text>
<text transform="matrix(1.1479 0 0 1 372.2871 204.2409)" class="st0 st1 st2">T</text>
<text transform="matrix(1.1479 0 0 1 369.3018 204.2409)" class="st0 st1 st2 st19">A</text>
<text transform="matrix(1.1479 0 0 1 379.8086 204.2409)" class="st0 st1 st2">REGISTER</text>
<text transform="matrix(1.1018 0 0 1 376.0039 209.2087)" class="st0 st1 st2">PO</text>
<text transform="matrix(1.1018 0 0 1 383.3867 209.2087)" class="st0 st1 st2">R</text>
<text transform="matrix(1.1018 0 0 1 387.1631 209.2087)" class="st0 st1 st2">T</text>
<text transform="matrix(1.1479 0 0 1 452.3631 208.2824)" class="st0 st4 st2">C</text>
<text transform="matrix(1.1479 0 0 1 321.2271 255.3249)" class="st0 st1 st2">OSCILATOR</text>
<text transform="matrix(1.1018 0 0 1 387.4998 252.55)" class="st0 st1 st2">CALIB. OSC</text>
<text transform="matrix(1.1018 0 0 1 386.2997 272.1001)" class="st0 st1 st2">OSCILLATOR</text>
<text transform="matrix(1.1018 0 0 1 243.7129 282.6032)" class="st0 st1 st2">STACK</text>
<text transform="matrix(1.1018 0 0 1 174.9961 282.6032)" class="st0 st1 st2">PROGRAM</text>
<text transform="matrix(1.1018 0 0 1 108.0231 285.0998)" class="st0 st1 st2">JTAG TAP</text>
<text transform="matrix(1.1018 0 0 1 99.1661 311)" class="st0 st1 st2">ON-CHIP DEBUG</text>
<text transform="matrix(1.1018 0 0 1 105.6661 331.5002)" class="st0 st1 st2">BOUNDARY-</text>
<text transform="matrix(1.1018 0 0 1 100.2913 356.6001)" class="st0 st1 st2">PROGRAMMING</text>
<text transform="matrix(1.1018 0 0 1 175.6503 308.2602)" class="st0 st1 st2">PROGRAM</text>
<text transform="matrix(1.1018 0 0 1 171.1999 333.6469)" class="st0 st1 st2">INSTRUCTION</text>
<text transform="matrix(1.1018 0 0 1 171.8002 359.2998)" class="st0 st1 st2">INSTRUCTION</text>
<text transform="matrix(1.1018 0 0 1 175.6503 383.5525)" class="st0 st1 st2">CONTROL</text>
<text transform="matrix(1.1142 0 0 1 128.709 381.0144)" class="st0 st1 st2">TEMPERATURE</text>
<text transform="matrix(1.1018 0 0 1 241.0254 409.3003)" class="st0 st1 st2">STATUS</text>
<text transform="matrix(1.1479 0 0 1 129.1999 441.2859)" class="st0 st1 st2">COMPARATOR</text>
<text transform="matrix(1.1479 0 0 1 198.5 439.2)" class="st0 st1 st2">USART1</text>
<text transform="matrix(1.1018 0 0 1 316.7285 308.2602)" class="st0 st1 st2">MCU CONTROL</text>
<text transform="matrix(1.1018 0 0 1 389.1003 312.7702)" class="st0 st1 st2">CONTROL</text>
<text transform="matrix(1.1018 0 0 1 321.2275 328.6999)" class="st0 st1 st2">TIMERS/</text>
<text transform="matrix(1.1018 0 0 1 321.2271 347.7263)" class="st0 st1 st2">INTERRUPT</text>
<text transform="matrix(1.1018 0 0 1 324.5089 368.9763)" class="st0 st1 st2">EEPROM</text>
<text transform="matrix(1.1018 0 0 1 320.3546 404.4998)" class="st0 st1 st2">TIMER/PWM</text>
<text transform="matrix(1.1018 0 0 1 388.9995 429.8962)" class="st0 st1 st2">USB 2.0</text>
<text transform="matrix(1.1018 0 0 1 428.7495 436.55)" class="st30"><tspan x="0" y="0" class="st0 st1 st2">TWO-WIRE SERIAL</tspan><tspan x="0" y="5.4" class="st0 st1 st2">      INTERFACE</tspan></text>
<text transform="matrix(1.1018 0 0 1 467.749 363.6499)" class="st30"><tspan x="0" y="0" class="st0 st1 st2">ON-CHIP</tspan><tspan x="0" y="5.4" class="st0 st1 st2">USB PAD 3V</tspan><tspan x="0" y="10.8" class="st0 st1 st2">REGULATOR</tspan></text>
<text transform="matrix(1.1018 0 0 1 540.7 350.8333)" class="st0 st1 st2">UVcc</text>
<text transform="matrix(1.1018 0 0 1 539.7 375.6666)" class="st0 st1 st2">UCap</text>
<text transform="matrix(1.1018 0 0 1 545.9998 412.3333)" class="st0 st1 st2">VBUS</text>
<text transform="matrix(1.1018 0 0 1 358.4727 521.0837)" class="st0 st1 st2">PO</text>
<text transform="matrix(1.1018 0 0 1 365.8555 521.0837)" class="st0 st1 st2">R</text>
<text transform="matrix(1.1018 0 0 1 369.6318 521.0837)" class="st0 st1 st2">T</text>
<text transform="matrix(1.1018 0 0 1 391.1274 521.0027)" class="st0 st1 st2"> DRIVERS</text>
<text transform="matrix(1.1018 0 0 1 145.7726 521.1243)" class="st0 st1 st2">PO</text>
<text transform="matrix(1.1018 0 0 1 153.1555 521.1243)" class="st0 st1 st2">R</text>
<text transform="matrix(1.1018 0 0 1 156.9319 521.1243)" class="st0 st1 st2">T</text>
<text transform="matrix(1.1018 0 0 1 178.4274 521.0432)" class="st0 st1 st2"> DRIVERS</text>
<text transform="matrix(1.1018 0 0 1 253.5726 520.1648)" class="st0 st1 st2">PO</text>
<text transform="matrix(1.1018 0 0 1 260.9556 520.1648)" class="st0 st1 st2">R</text>
<text transform="matrix(1.1018 0 0 1 264.7319 520.1648)" class="st0 st1 st2">T</text>
<text transform="matrix(1.1018 0 0 1 286.2274 520.0837)" class="st0 st1 st2"> DRIVERS</text>
<text transform="matrix(1.3623 0 0 1 403.5562 492.7014)" class="st0 st1 st2">D</text>
<text transform="matrix(1.1479 0 0 1 408.0038 492.7011)" class="st0 st1 st2">A</text>
<text transform="matrix(1.1479 0 0 1 411.0054 492.7011)" class="st0 st1 st2">T</text>
<text transform="matrix(1.1479 0 0 1 414.1887 492.7011)" class="st0 st1 st2 st19">A</text>
<text transform="matrix(1.1479 0 0 1 419.1055 492.7011)" class="st0 st1 st2">DIR</text>
<text transform="matrix(1.1479 0 0 1 427.7054 492.7011)" class="st0 st1 st2">.</text>
<text transform="matrix(1.1479 0 0 1 400.0493 498.0429)" class="st0 st1 st2">REG</text>
<text transform="matrix(1.1479 0 0 1 413.4856 498.0428)" class="st0 st1 st2">PO</text>
<text transform="matrix(1.1479 0 0 1 420.6396 498.0428)" class="st0 st1 st2">R</text>
<text transform="matrix(1.1479 0 0 1 424.2781 498.0849)" class="st0 st1 st2">T</text>
<text transform="matrix(1.1479 0 0 1 341.2944 493.0752)" class="st0 st1 st2">D</text>
<text transform="matrix(1.1479 0 0 1 350.7544 493.0341)" class="st0 st1 st2">A</text>
<text transform="matrix(1.1479 0 0 1 347.7817 493.0752)" class="st0 st1 st2">T</text>
<text transform="matrix(1.1479 0 0 1 344.7964 493.0752)" class="st0 st1 st2 st19">A</text>
<text transform="matrix(1.1479 0 0 1 355.3032 493.0752)" class="st0 st1 st2">REGISTER</text>
<text transform="matrix(1.1018 0 0 1 351.4985 498.0429)" class="st0 st1 st2">PO</text>
<text transform="matrix(1.1018 0 0 1 358.8813 498.0429)" class="st0 st1 st2">R</text>
<text transform="matrix(1.1018 0 0 1 362.6577 498.0429)" class="st0 st1 st2">T</text>
<text transform="matrix(1.3623 0 0 1 187.9263 492.7011)" class="st0 st1 st2">D</text>
<text transform="matrix(1.1479 0 0 1 192.3738 492.7009)" class="st0 st1 st2">A</text>
<text transform="matrix(1.1479 0 0 1 195.3755 492.7009)" class="st0 st1 st2">T</text>
<text transform="matrix(1.1479 0 0 1 198.5588 492.7009)" class="st0 st1 st2 st19">A</text>
<text transform="matrix(1.1479 0 0 1 203.4755 492.7009)" class="st0 st1 st2">DIR</text>
<text transform="matrix(1.1479 0 0 1 212.0755 492.7009)" class="st0 st1 st2">.</text>
<text transform="matrix(1.1479 0 0 1 184.4194 498.0427)" class="st0 st1 st2">REG</text>
<text transform="matrix(1.1479 0 0 1 197.8557 498.0426)" class="st0 st1 st2">PO</text>
<text transform="matrix(1.1479 0 0 1 205.0097 498.0426)" class="st0 st1 st2">R</text>
<text transform="matrix(1.1479 0 0 1 208.6482 498.0847)" class="st0 st1 st2">T</text>
<text transform="matrix(1.1479 0 0 1 125.6644 493.0749)" class="st0 st1 st2">D</text>
<text transform="matrix(1.1479 0 0 1 135.1244 493.0339)" class="st0 st1 st2">A</text>
<text transform="matrix(1.1479 0 0 1 132.1517 493.0749)" class="st0 st1 st2">T</text>
<text transform="matrix(1.1479 0 0 1 129.1664 493.0749)" class="st0 st1 st2 st19">A</text>
<text transform="matrix(1.1479 0 0 1 139.6732 493.0749)" class="st0 st1 st2">REGISTER</text>
<text transform="matrix(1.1018 0 0 1 135.8685 498.0427)" class="st0 st1 st2">PO</text>
<text transform="matrix(1.1018 0 0 1 143.2515 498.0427)" class="st0 st1 st2">R</text>
<text transform="matrix(1.1018 0 0 1 147.0278 498.0427)" class="st0 st1 st2">T</text>
<text transform="matrix(1.3623 0 0 1 295.1562 492.3261)" class="st0 st1 st2">D</text>
<text transform="matrix(1.1479 0 0 1 299.6038 492.3259)" class="st0 st1 st2">A</text>
<text transform="matrix(1.1479 0 0 1 302.6055 492.3259)" class="st0 st1 st2">T</text>
<text transform="matrix(1.1479 0 0 1 305.7887 492.3259)" class="st0 st1 st2 st19">A</text>
<text transform="matrix(1.1479 0 0 1 310.7054 492.3259)" class="st0 st1 st2">DIR</text>
<text transform="matrix(1.1479 0 0 1 319.3054 492.3259)" class="st0 st1 st2">.</text>
<text transform="matrix(1.1479 0 0 1 291.6494 497.6677)" class="st0 st1 st2">REG</text>
<text transform="matrix(1.1479 0 0 1 305.0857 497.6676)" class="st0 st1 st2">PO</text>
<text transform="matrix(1.1479 0 0 1 312.2396 497.6676)" class="st0 st1 st2">R</text>
<text transform="matrix(1.1479 0 0 1 315.8782 497.7097)" class="st0 st1 st2">T</text>
<text transform="matrix(1.1479 0 0 1 232.8944 492.6999)" class="st0 st1 st2">D</text>
<text transform="matrix(1.1479 0 0 1 242.3544 492.6589)" class="st0 st1 st2">A</text>
<text transform="matrix(1.1479 0 0 1 239.3817 492.6999)" class="st0 st1 st2">T</text>
<text transform="matrix(1.1479 0 0 1 236.3964 492.6999)" class="st0 st1 st2 st19">A</text>
<text transform="matrix(1.1479 0 0 1 246.9032 492.6999)" class="st0 st1 st2">REGISTER</text>
<text transform="matrix(1.1018 0 0 1 243.0985 497.6677)" class="st0 st1 st2">PO</text>
<text transform="matrix(1.1018 0 0 1 250.4814 497.6677)" class="st0 st1 st2">R</text>
<text transform="matrix(1.1018 0 0 1 254.2578 497.6677)" class="st0 st1 st2">T</text>
</svg>
