<?xml version="1.0" encoding="utf-8"?>
<!-- Generator: Adobe Illustrator 22.1.0, SVG Export Plug-In . SVG Version: 6.00 Build 0)  -->
<svg version="1.1" id="Слой_1" xmlns="http://www.w3.org/2000/svg" xmlns:xlink="http://www.w3.org/1999/xlink" x="0px" y="0px"
	 viewBox="0 0 509 452" style="enable-background:new 0 0 509 452;" xml:space="preserve">
<style type="text/css">
	.st0{fill:#211C1D;}
	.st1{font-family:'ArialMT';}
	.st2{font-size:4.5206px;}
	.st3{font-size:4.52px;}
	.st4{font-family:'Helvetica_cyr-Oblique';}
	.st5{fill:none;stroke:#211C1D;stroke-width:0.855;stroke-miterlimit:2.613;}
	.st6{font-size:3.3803px;}
	.st7{fill:none;stroke:#211C1D;stroke-width:0.427;stroke-miterlimit:2.613;}
	.st8{fill:none;stroke:#211C1D;stroke-width:0.858;stroke-miterlimit:2.613;}
	.st9{fill:none;stroke:#211C1D;stroke-width:0.868;stroke-miterlimit:2.613;}
	.st10{fill:none;stroke:#211C1D;stroke-width:0.866;stroke-miterlimit:2.613;}
	.st11{fill:none;stroke:#211C1D;stroke-width:0.861;stroke-miterlimit:2.613;}
	.st12{font-size:4.276px;}
	.st13{fill:none;stroke:#211C1D;stroke-width:0.421;stroke-miterlimit:2.613;}
	.st14{font-size:4.9808px;}
	.st15{fill:none;}
	.st16{fill:none;stroke:#211C1D;stroke-width:0.873;stroke-miterlimit:2.613;}
	.st17{fill:none;stroke:#211C1D;stroke-width:0.441;stroke-miterlimit:2.613;}
	.st18{fill:none;stroke:#211C1D;stroke-width:0.411;stroke-miterlimit:2.613;}
	.st19{fill:none;stroke:#211C1D;stroke-width:0.954;stroke-miterlimit:2.613;}
	.st20{fill:none;stroke:#211C1D;stroke-width:0.434;stroke-miterlimit:2.613;stroke-dasharray:2.1375,2.1375;}
	.st21{fill:none;stroke:#211C1D;stroke-width:0.429;stroke-miterlimit:2.613;}
	.st22{fill:none;stroke:#211C1D;stroke-width:0.421;}
	.st23{fill:#FFFFFF;}
	.st24{fill:none;stroke:#211C1D;stroke-width:0.594;}
	.st25{font-family:'Arial-ItalicMT';}
	.st26{font-size:3.9595px;}
	.st27{fill:none;stroke:#211C1D;stroke-width:0.427;}
	.st28{letter-spacing:0.9;}
	.st29{enable-background:new    ;}
</style>
<text transform="matrix(1.1018 0 0 1 124.3067 178.1396)" class="st0 st1 st2">COUNTER</text>
<text transform="matrix(1.1018 0 0 1 189.2379 178.1396)" class="st0 st1 st2">POINTER</text>
<text transform="matrix(1.1018 0 0 1 128.5709 203.7978)" class="st0 st1 st2">FLASH</text>
<text transform="matrix(1.1018 0 0 1 272.2535 203.7978)" class="st0 st1 st2">REGISTER</text>
<text transform="matrix(1.102 0 0 1 188.295 226.8075)" class="st0 st1 st3">GENERAL</text>
<text transform="matrix(1.102 0 0 1 188.026 231.8163)" class="st0 st1 st3">PURPOSE</text>
<text transform="matrix(1.102 0 0 1 185.7823 236.8251)" class="st0 st1 st3">REGISTERS</text>
<text transform="matrix(1.1018 0 0 1 123.858 229.414)" class="st0 st1 st2">REGISTER</text>
<text transform="matrix(1.1018 0 0 1 270.627 224.1747)" class="st0 st1 st2">COUNTERS</text>
<text transform="matrix(1.1018 0 0 1 125.9225 255.0712)" class="st0 st1 st2">DECODER</text>
<text transform="matrix(1.1479 0 0 1 269.7545 388.2372)" class="st0 st4 st2">B</text>
<text transform="matrix(1.1479 0 0 1 162.1397 388.2372)" class="st0 st4 st2">E</text>
<text transform="matrix(1.1479 0 0 1 378.15 388.2783)" class="st0 st4 st2">D</text>
<text transform="matrix(1.1479 0 0 1 207.9508 388.2783)" class="st0 st4 st2">B</text>
<text transform="matrix(1.1479 0 0 1 100.336 388.2783)" class="st0 st4 st2">E</text>
<text transform="matrix(1.1479 0 0 1 315.9303 388.2783)" class="st0 st4 st2">D</text>
<text transform="matrix(1.1018 0 0 1 278.3316 243.0038)" class="st0 st1 st2">UNIT</text>
<text transform="matrix(1.1018 0 0 1 281.2789 329.8574)" class="st0 st1 st2">SPI</text>
<text transform="matrix(1.1018 0 0 1 187.4879 304.0283)" class="st0 st1 st2">REGISTER</text>
<rect x="115.4" y="167.5" class="st5" width="42.4" height="12.8"/>
<rect x="179.1" y="167.5" class="st5" width="42.5" height="12.8"/>
<rect x="115.4" y="193.1" class="st5" width="42.5" height="12.8"/>
<rect x="263.8" y="193.1" class="st5" width="42.4" height="12.8"/>
<text transform="matrix(1.1018 0 0 1 192.5909 200.6933)" class="st0 st1 st2">SRAM</text>
<rect x="179" y="193.1" class="st5" width="42.4" height="11.9"/>
<rect x="179" y="218.8" class="st5" width="42.4" height="38.4"/>
<rect x="115.4" y="218.8" class="st5" width="42.5" height="12.8"/>
<rect x="263.4" y="213.5" class="st5" width="42.4" height="12.8"/>
<rect x="115.5" y="244.4" class="st5" width="44.2" height="12.8"/>
<rect x="235.3" y="377.6" class="st5" width="44.2" height="12.8"/>
<rect x="127.7" y="377.6" class="st5" width="44.3" height="12.8"/>
<rect x="343.7" y="377.8" class="st5" width="44.2" height="12.8"/>
<rect x="180.6" y="377.6" class="st5" width="44.2" height="12.8"/>
<rect x="73" y="377.6" class="st5" width="44.3" height="12.8"/>
<rect x="288.9" y="377.8" class="st5" width="44.2" height="12.8"/>
<rect x="263" y="232.4" class="st5" width="42.4" height="12.8"/>
<rect x="262.9" y="251.3" class="st5" width="42.4" height="12.8"/>
<rect x="264.1" y="321.1" class="st5" width="42.4" height="12.8"/>
<rect x="136.9" y="321.8" class="st5" width="42.4" height="12.8"/>
<rect x="179" y="293.4" class="st5" width="42.4" height="12.8"/>
<text transform="matrix(1.1018 0 0 1 199.065 255.7236)" class="st0 st1 st6">Z</text>
<text transform="matrix(1.1018 0 0 1 199.0201 249.704)" class="st0 st1 st6">Y</text>
<text transform="matrix(1.1018 0 0 1 198.9752 243.7675)" class="st0 st1 st6">X</text>
<line class="st7" x1="179.1" y1="251.3" x2="221.4" y2="251.3"/>
<line class="st7" x1="179.1" y1="245.4" x2="221.4" y2="245.4"/>
<line class="st7" x1="179.1" y1="239.4" x2="221.4" y2="239.4"/>
<polygon class="st5" points="179,266.9 196.6,266.9 200.2,273.3 203.7,266.9 221.4,266.9 212.6,282.9 187.8,282.9 "/>
<text transform="matrix(1.1018 0 0 1 195.3399 278.163)" class="st0 st1 st2">ALU</text>
<line class="st5" x1="239.1" y1="120.3" x2="239.1" y2="347"/>
<line class="st5" x1="246.1" y1="120.3" x2="246.1" y2="347.1"/>
<polyline class="st5" points="463,346.7 463,343.5 470.1,349.8 463,356.3 463,353.1 "/>
<polyline class="st5" points="458.1,120.1 458.1,123.3 465.2,116.9 458.1,110.5 458.1,113.7 "/>
<polyline class="st5" points="48.6,353.4 48.6,356.7 41.5,350.3 48.6,343.8 48.6,347 "/>
<polyline class="st5" points="60.5,113.5 60.5,110.3 53.5,116.7 60.5,123.2 60.5,119.9 "/>
<line class="st5" x1="246.1" y1="347" x2="462.7" y2="346.9"/>
<line class="st5" x1="246.1" y1="120.2" x2="458.5" y2="120.1"/>
<line class="st8" x1="48.2" y1="347" x2="239.1" y2="347"/>
<line class="st9" x1="60.1" y1="120.1" x2="239.1" y2="120.2"/>
<line class="st10" x1="48.3" y1="353.4" x2="463.4" y2="353.4"/>
<line class="st11" x1="60.2" y1="113.7" x2="458.5" y2="113.7"/>
<line class="st7" x1="238.9" y1="390.4" x2="238.9" y2="401.3"/>
<path class="st0" d="M238.9,403.3l1.9-4c-1.3,0.6-2.5,0.6-3.8,0L238.9,403.3"/>
<line class="st7" x1="131.3" y1="390.4" x2="131.3" y2="401.3"/>
<path class="st0" d="M131.3,403.3l1.9-4c-1.3,0.6-2.5,0.6-3.8,0L131.3,403.3"/>
<line class="st7" x1="347.3" y1="390.6" x2="347.3" y2="401.5"/>
<path class="st0" d="M347.2,403.5l1.9-4c-1.3,0.6-2.5,0.6-3.8,0L347.2,403.5"/>
<line class="st7" x1="184.1" y1="392.4" x2="184.1" y2="401.3"/>
<path class="st0" d="M184.1,390.4l1.9,4c-1.3-0.6-2.5-0.6-3.8,0L184.1,390.4"/>
<path class="st0" d="M184.1,403.3l1.9-4c-1.3,0.6-2.5,0.6-3.8,0L184.1,403.3"/>
<line class="st7" x1="76.5" y1="392.4" x2="76.5" y2="401.3"/>
<path class="st0" d="M76.5,390.4l1.9,4c-1.3-0.6-2.5-0.6-3.8,0L76.5,390.4"/>
<path class="st0" d="M76.5,403.3l1.9-4c-1.3,0.6-2.5,0.6-3.8,0L76.5,403.3"/>
<line class="st7" x1="292.4" y1="392.6" x2="292.4" y2="401.4"/>
<path class="st0" d="M292.4,390.6l1.9,4c-1.3-0.6-2.5-0.6-3.8,0L292.4,390.6"/>
<path class="st0" d="M292.4,403.4l1.9-4c-1.3,0.6-2.5,0.6-3.8,0L292.4,403.4"/>
<line class="st7" x1="244.2" y1="390.4" x2="244.2" y2="401.3"/>
<path class="st0" d="M244.2,403.3l1.9-4c-1.3,0.6-2.5,0.6-3.8,0L244.2,403.3"/>
<line class="st7" x1="136.6" y1="390.4" x2="136.6" y2="401.3"/>
<path class="st0" d="M136.6,403.3l1.9-4c-1.3,0.6-2.5,0.6-3.8,0L136.6,403.3"/>
<line class="st7" x1="352.6" y1="390.6" x2="352.6" y2="401.4"/>
<path class="st0" d="M352.5,403.4l1.9-4c-1.3,0.6-2.5,0.6-3.8,0L352.5,403.4"/>
<line class="st7" x1="189.4" y1="392.4" x2="189.4" y2="401.3"/>
<path class="st0" d="M189.4,390.4l1.9,4c-1.3-0.6-2.5-0.6-3.8,0L189.4,390.4"/>
<path class="st0" d="M189.4,403.3l1.9-4c-1.3,0.6-2.5,0.6-3.8,0L189.4,403.3"/>
<line class="st7" x1="81.8" y1="392.4" x2="81.8" y2="401.3"/>
<path class="st0" d="M81.8,390.4l1.9,4c-1.3-0.6-2.5-0.6-3.8,0L81.8,390.4"/>
<path class="st0" d="M81.8,403.3l1.9-4c-1.3,0.6-2.5,0.6-3.8,0L81.8,403.3"/>
<line class="st7" x1="297.7" y1="392.6" x2="297.7" y2="401.4"/>
<path class="st0" d="M297.7,390.6l1.9,4c-1.3-0.6-2.5-0.6-3.8,0L297.7,390.6"/>
<path class="st0" d="M297.7,403.4l1.9-4c-1.3,0.6-2.5,0.6-3.8,0L297.7,403.4"/>
<line class="st7" x1="249.5" y1="390.4" x2="249.5" y2="401.3"/>
<path class="st0" d="M249.5,403.3l1.9-4c-1.3,0.6-2.5,0.6-3.8,0L249.5,403.3"/>
<line class="st7" x1="141.9" y1="390.4" x2="141.9" y2="401.3"/>
<path class="st0" d="M141.9,403.3l1.9-4c-1.3,0.6-2.5,0.6-3.8,0L141.9,403.3"/>
<line class="st7" x1="357.8" y1="390.6" x2="357.8" y2="401.5"/>
<path class="st0" d="M357.8,403.5l1.9-4c-1.3,0.6-2.5,0.6-3.8,0L357.8,403.5"/>
<line class="st7" x1="194.7" y1="392.4" x2="194.7" y2="401.3"/>
<path class="st0" d="M194.7,390.4l1.9,4c-1.3-0.6-2.5-0.6-3.8,0L194.7,390.4"/>
<path class="st0" d="M194.7,403.3l1.9-4c-1.3,0.6-2.5,0.6-3.8,0L194.7,403.3"/>
<line class="st7" x1="87.1" y1="392.4" x2="87.1" y2="401.3"/>
<path class="st0" d="M87.1,390.4l1.9,4c-1.3-0.6-2.5-0.6-3.8,0L87.1,390.4"/>
<path class="st0" d="M87.1,403.3l1.9-4c-1.3,0.6-2.5,0.6-3.8,0L87.1,403.3"/>
<line class="st7" x1="303" y1="392.6" x2="303" y2="401.4"/>
<path class="st0" d="M303,390.6l1.9,4c-1.3-0.6-2.5-0.6-3.8,0L303,390.6"/>
<path class="st0" d="M303,403.4l1.9-4c-1.3,0.6-2.5,0.6-3.8,0L303,403.4"/>
<line class="st7" x1="254.8" y1="390.4" x2="254.8" y2="401.3"/>
<path class="st0" d="M254.8,403.3l1.9-4c-1.3,0.6-2.5,0.6-3.8,0L254.8,403.3"/>
<line class="st7" x1="147.2" y1="390.4" x2="147.2" y2="401.3"/>
<path class="st0" d="M147.2,403.3l1.9-4c-1.3,0.6-2.5,0.6-3.8,0L147.2,403.3"/>
<line class="st7" x1="363.1" y1="390.6" x2="363.1" y2="401.4"/>
<path class="st0" d="M363.1,403.4l1.9-4c-1.3,0.6-2.5,0.6-3.8,0L363.1,403.4"/>
<line class="st7" x1="200" y1="392.4" x2="200" y2="401.3"/>
<path class="st0" d="M200,390.4l1.9,4c-1.3-0.6-2.5-0.6-3.8,0L200,390.4"/>
<path class="st0" d="M200,403.3l1.9-4c-1.3,0.6-2.5,0.6-3.8,0L200,403.3"/>
<line class="st7" x1="92.4" y1="392.4" x2="92.4" y2="401.3"/>
<path class="st0" d="M92.4,390.4l1.9,4c-1.3-0.6-2.5-0.6-3.8,0L92.4,390.4"/>
<path class="st0" d="M92.4,403.3l1.9-4c-1.3,0.6-2.5,0.6-3.8,0L92.4,403.3"/>
<line class="st7" x1="308.3" y1="392.6" x2="308.3" y2="401.4"/>
<path class="st0" d="M308.3,390.6l1.9,4c-1.3-0.6-2.5-0.6-3.8,0L308.3,390.6"/>
<path class="st0" d="M308.3,403.4l1.9-4c-1.3,0.6-2.5,0.6-3.8,0L308.3,403.4"/>
<line class="st7" x1="260.2" y1="390.4" x2="260.2" y2="401.2"/>
<path class="st0" d="M260.1,403.2l1.9-4c-1.3,0.6-2.5,0.6-3.8,0L260.1,403.2"/>
<line class="st7" x1="152.5" y1="390.4" x2="152.5" y2="401.2"/>
<path class="st0" d="M152.5,403.2l1.9-4c-1.3,0.6-2.5,0.6-3.8,0L152.5,403.2"/>
<line class="st7" x1="368.5" y1="390.6" x2="368.5" y2="401.5"/>
<path class="st0" d="M368.5,403.5l1.9-4c-1.3,0.6-2.5,0.6-3.8,0L368.5,403.5"/>
<line class="st7" x1="205.3" y1="392.4" x2="205.3" y2="401.2"/>
<path class="st0" d="M205.3,390.4l1.9,4c-1.3-0.6-2.5-0.6-3.8,0L205.3,390.4"/>
<path class="st0" d="M205.3,403.2l1.9-4c-1.3,0.6-2.5,0.6-3.8,0L205.3,403.2"/>
<line class="st7" x1="97.7" y1="392.4" x2="97.7" y2="401.2"/>
<path class="st0" d="M97.7,390.4l1.9,4c-1.3-0.6-2.5-0.6-3.8,0L97.7,390.4"/>
<path class="st0" d="M97.7,403.2l1.9-4c-1.3,0.6-2.5,0.6-3.8,0L97.7,403.2"/>
<line class="st7" x1="313.6" y1="392.6" x2="313.6" y2="401.4"/>
<path class="st0" d="M313.6,390.6l1.9,4c-1.3-0.6-2.5-0.6-3.8,0L313.6,390.6"/>
<path class="st0" d="M313.6,403.4l1.9-4c-1.3,0.6-2.5,0.6-3.8,0L313.6,403.4"/>
<line class="st7" x1="265.4" y1="390.4" x2="265.4" y2="401.3"/>
<path class="st0" d="M265.4,403.3l1.9-4c-1.3,0.6-2.5,0.6-3.8,0L265.4,403.3"/>
<line class="st7" x1="157.8" y1="390.4" x2="157.8" y2="401.3"/>
<path class="st0" d="M157.8,403.3l1.9-4c-1.3,0.6-2.5,0.6-3.8,0L157.8,403.3"/>
<line class="st7" x1="373.8" y1="390.6" x2="373.8" y2="401.5"/>
<path class="st0" d="M373.8,403.5l1.9-4c-1.3,0.6-2.5,0.6-3.8,0L373.8,403.5"/>
<line class="st7" x1="210.7" y1="392.4" x2="210.7" y2="401.3"/>
<path class="st0" d="M210.7,390.4l1.9,4c-1.3-0.6-2.5-0.6-3.8,0L210.7,390.4"/>
<path class="st0" d="M210.7,403.3l1.9-4c-1.3,0.6-2.5,0.6-3.8,0L210.7,403.3"/>
<line class="st7" x1="103" y1="392.4" x2="103" y2="401.3"/>
<path class="st0" d="M103,390.4l1.9,4c-1.3-0.6-2.5-0.6-3.8,0L103,390.4"/>
<path class="st0" d="M103,403.3l1.9-4c-1.3,0.6-2.5,0.6-3.8,0L103,403.3"/>
<line class="st7" x1="318.9" y1="392.6" x2="318.9" y2="401.4"/>
<path class="st0" d="M318.9,390.6l1.9,4c-1.3-0.6-2.5-0.6-3.8,0L318.9,390.6"/>
<path class="st0" d="M318.9,403.4l1.9-4c-1.3,0.6-2.5,0.6-3.8,0L318.9,403.4"/>
<line class="st7" x1="270.7" y1="390.4" x2="270.7" y2="401.3"/>
<path class="st0" d="M270.7,403.3l1.9-4c-1.3,0.6-2.5,0.6-3.8,0L270.7,403.3"/>
<line class="st7" x1="163.1" y1="390.4" x2="163.1" y2="401.3"/>
<path class="st0" d="M163.1,403.3l1.9-4c-1.3,0.6-2.5,0.6-3.8,0L163.1,403.3"/>
<line class="st7" x1="379.1" y1="390.6" x2="379.1" y2="401.5"/>
<path class="st0" d="M379.1,403.5l1.9-4c-1.3,0.6-2.5,0.6-3.8,0L379.1,403.5"/>
<line class="st7" x1="384.3" y1="390.6" x2="384.3" y2="401.4"/>
<path class="st0" d="M384.3,403.4l1.9-4c-1.3,0.6-2.5,0.6-3.8,0L384.3,403.4"/>
<line class="st7" x1="215.9" y1="392.4" x2="215.9" y2="401.3"/>
<path class="st0" d="M215.9,390.4l1.9,4c-1.3-0.6-2.5-0.6-3.8,0L215.9,390.4"/>
<path class="st0" d="M215.9,403.3l1.9-4c-1.3,0.6-2.5,0.6-3.8,0L215.9,403.3"/>
<line class="st7" x1="108.3" y1="392.4" x2="108.3" y2="401.3"/>
<path class="st0" d="M108.3,390.4l1.9,4c-1.3-0.6-2.5-0.6-3.8,0L108.3,390.4"/>
<path class="st0" d="M108.3,403.3l1.9-4c-1.3,0.6-2.5,0.6-3.8,0L108.3,403.3"/>
<line class="st7" x1="324.2" y1="392.6" x2="324.2" y2="401.4"/>
<path class="st0" d="M324.2,390.6l1.9,4c-1.3-0.6-2.5-0.6-3.8,0L324.2,390.6"/>
<path class="st0" d="M324.2,403.4l1.9-4c-1.3,0.6-2.5,0.6-3.8,0L324.2,403.4"/>
<line class="st7" x1="329.5" y1="392.6" x2="329.5" y2="401.4"/>
<path class="st0" d="M329.5,390.6l1.9,4c-1.3-0.6-2.5-0.6-3.8,0L329.5,390.6"/>
<path class="st0" d="M329.5,403.4l1.9-4c-1.3,0.6-2.5,0.6-3.8,0L329.5,403.4"/>
<line class="st7" x1="276" y1="390.4" x2="276" y2="401.3"/>
<path class="st0" d="M276,403.3l1.9-4c-1.3,0.6-2.5,0.6-3.8,0L276,403.3"/>
<line class="st7" x1="168.4" y1="390.4" x2="168.4" y2="401.3"/>
<path class="st0" d="M168.4,403.3l1.9-4c-1.3,0.6-2.5,0.6-3.8,0L168.4,403.3"/>
<line class="st7" x1="221.2" y1="392.4" x2="221.2" y2="401.3"/>
<path class="st0" d="M221.2,390.4l1.9,4c-1.3-0.6-2.5-0.6-3.8,0L221.2,390.4"/>
<path class="st0" d="M221.2,403.3l1.9-4c-1.3,0.6-2.5,0.6-3.8,0L221.2,403.3"/>
<line class="st7" x1="113.6" y1="392.4" x2="113.6" y2="401.3"/>
<path class="st0" d="M113.6,390.4l1.9,4c-1.3-0.6-2.5-0.6-3.8,0L113.6,390.4"/>
<path class="st0" d="M113.6,403.3l1.9-4c-1.3,0.6-2.5,0.6-3.8,0L113.6,403.3"/>
<rect x="180.6" y="403.3" class="st5" width="98.9" height="12.8"/>
<rect x="73" y="403.3" class="st5" width="98.9" height="12.8"/>
<rect x="288.9" y="403.5" class="st5" width="98.9" height="12.8"/>
<rect x="313.2" y="62.5" class="st5" width="98.9" height="12.8"/>
<line class="st7" x1="193.1" y1="418.1" x2="193.1" y2="439.7"/>
<path class="st0" d="M193.1,416.1l1.9,4c-1.3-0.6-2.5-0.6-3.8,0L193.1,416.1"/>
<path class="st0" d="M193.1,441.7l1.9-4c-1.3,0.6-2.5,0.6-3.8,0L193.1,441.7"/>
<line class="st7" x1="301.4" y1="418.2" x2="301.4" y2="439.9"/>
<path class="st0" d="M301.3,416.2l1.9,4c-1.3-0.6-2.5-0.6-3.8,0L301.3,416.2"/>
<path class="st0" d="M301.3,441.9l1.9-4c-1.3,0.6-2.5,0.6-3.8,0L301.3,441.9"/>
<line class="st7" x1="325.6" y1="38.8" x2="325.6" y2="62.5"/>
<path class="st0" d="M325.6,36.8l1.9,4c-1.3-0.6-2.5-0.6-3.8,0L325.6,36.8"/>
<line class="st7" x1="203.7" y1="418.1" x2="203.7" y2="439.7"/>
<path class="st0" d="M203.6,416.1l1.9,4c-1.3-0.6-2.5-0.6-3.8,0L203.6,416.1"/>
<path class="st0" d="M203.6,441.7l1.9-4c-1.3,0.6-2.5,0.6-3.8,0L203.6,441.7"/>
<line class="st7" x1="96" y1="418.1" x2="96" y2="439.7"/>
<path class="st0" d="M96,416.1l1.9,4c-1.3-0.6-2.5-0.6-3.8,0L96,416.1"/>
<path class="st0" d="M96,441.7l1.9-4c-1.3,0.6-2.5,0.6-3.8,0L96,441.7"/>
<line class="st7" x1="311.8" y1="418.3" x2="312" y2="439.9"/>
<path class="st0" d="M311.8,416.3l1.9,4c-1.3-0.6-2.5-0.6-3.8,0L311.8,416.3"/>
<path class="st0" d="M312,441.9l1.8-4c-1.3,0.6-2.5,0.6-3.8,0L312,441.9"/>
<line class="st7" x1="336" y1="38.9" x2="336.3" y2="62.5"/>
<path class="st0" d="M336,36.9l1.9,4c-1.3-0.6-2.5-0.6-3.8,0L336,36.9"/>
<line class="st7" x1="224.8" y1="418.1" x2="224.8" y2="439.7"/>
<path class="st0" d="M224.8,416.1l1.9,4c-1.3-0.6-2.5-0.6-3.8,0L224.8,416.1"/>
<path class="st0" d="M224.8,441.7l1.9-4c-1.3,0.6-2.5,0.6-3.8,0L224.8,441.7"/>
<line class="st7" x1="333.2" y1="418.3" x2="333.2" y2="439.9"/>
<path class="st0" d="M333.2,416.3l1.9,4c-1.3-0.6-2.5-0.6-3.8,0L333.2,416.3"/>
<path class="st0" d="M333.2,441.9l1.9-4c-1.3,0.6-2.5,0.6-3.8,0L333.2,441.9"/>
<text transform="matrix(1.1649 0 0 1 226.8199 411.1015)" class="st0 st4 st12">B</text>
<text transform="matrix(1.1018 0 0 1 118.2701 411.6113)" class="st0 st4 st2">E</text>
<text transform="matrix(1.1018 0 0 1 329.7164 411.2343)" class="st0 st4 st2">D</text>
<text transform="matrix(1.1018 0 0 1 355.9317 70.5419)" class="st0 st4 st2">C</text>
<text transform="matrix(1.1018 0 0 1 359.5274 70.5419)" class="st0 st1 st2"> DRIVERS</text>
<line class="st7" x1="203.6" y1="355.4" x2="203.6" y2="374.8"/>
<path class="st0" d="M203.6,353.4l1.9,4c-1.3-0.6-2.5-0.6-3.8,0L203.6,353.4"/>
<path class="st0" d="M203.6,377.5l1.9-4c-1.3,0.6-2.5,0.6-3.8,0L203.6,377.5"/>
<line class="st7" x1="91.2" y1="355.4" x2="91.2" y2="374.4"/>
<path class="st0" d="M91.2,353.4l1.9,4c-1.3-0.6-2.5-0.6-3.8,0L91.2,353.4"/>
<path class="st0" d="M91.2,377.6l1.9-4c-1.3,0.6-2.5,0.6-3.8,0L91.2,377.6"/>
<line class="st13" x1="315.2" y1="355.7" x2="315.2" y2="375"/>
<path class="st0" d="M315.2,377.8l1.9-4c-1.3,0.6-2.5,0.6-3.8,0L315.2,377.8"/>
<line class="st13" x1="257.9" y1="354.4" x2="257.9" y2="374.4"/>
<path class="st0" d="M257.9,353.7l1.9,4c-1.3-0.6-2.5-0.6-3.8,0L257.9,353.7"/>
<path class="st0" d="M257.8,377.5l1.9-4c-1.3,0.6-2.5,0.6-3.8,0L257.8,377.5"/>
<line class="st13" x1="149.7" y1="354.7" x2="149.7" y2="374.8"/>
<path class="st0" d="M149.8,353.5l1.9,4c-1.3-0.6-2.5-0.6-3.8,0L149.8,353.5"/>
<path class="st0" d="M149.7,377.5l1.9-4c-1.3,0.6-2.5,0.6-3.8,0L149.7,377.5"/>
<line class="st7" x1="365.6" y1="355.7" x2="365.6" y2="375.2"/>
<path class="st0" d="M365.6,377.6l1.9-4c-1.3,0.6-2.5,0.6-3.8,0L365.6,377.6"/>
<text transform="matrix(1.1018 0 0 1 188.782 448.1862)" class="st0 st1 st2">PB7 </text>
<text transform="matrix(1.1018 0 0 1 91.732 447.8085)" class="st0 st1 st2">PE6</text>
<text transform="matrix(-5.557482e-17 -0.9076 1 -6.123361e-17 450.4654 39.79)" class="st0 st1 st14">RESET</text>
<rect x="423.9" y="15.9" class="st7" width="7" height="9.6"/>
<line class="st5" x1="422.1" y1="17.5" x2="422.1" y2="24"/>
<line class="st5" x1="432.7" y1="17.5" x2="432.7" y2="24"/>
<line class="st5" x1="413.4" y1="10.2" x2="420.4" y2="10.2"/>
<line class="st5" x1="413.4" y1="8.7" x2="420.4" y2="8.7"/>
<line class="st5" x1="434.2" y1="10.1" x2="441.2" y2="10.1"/>
<line class="st5" x1="434.2" y1="8.5" x2="441.2" y2="8.5"/>
<line class="st5" x1="411.6" y1="3.8" x2="422.2" y2="3.8"/>
<line class="st5" x1="432.4" y1="3.7" x2="443" y2="3.7"/>
<line class="st5" x1="15.9" y1="89.1" x2="5.4" y2="89.1"/>
<line class="st5" x1="434.2" y1="2" x2="441.2" y2="2"/>
<line class="st5" x1="413.4" y1="2.2" x2="420.4" y2="2.2"/>
<line class="st5" x1="14.2" y1="90.7" x2="7.2" y2="90.7"/>
<line class="st5" x1="435.9" y1="0.4" x2="439.4" y2="0.4"/>
<line class="st5" x1="415.1" y1="0.6" x2="418.7" y2="0.6"/>
<line class="st5" x1="12.4" y1="92.3" x2="8.9" y2="92.3"/>
<line class="st7" x1="437.7" y1="3.7" x2="437.7" y2="8.5"/>
<line class="st7" x1="416.9" y1="4" x2="416.9" y2="8.8"/>
<line class="st7" x1="416.9" y1="20.7" x2="422.1" y2="20.7"/>
<line class="st7" x1="432.7" y1="20.7" x2="437.8" y2="20.7"/>
<path class="st0" d="M416.9,20c0.4,0,0.9,0.4,0.9,0.8c0,0.4-0.4,0.8-0.9,0.8c-0.4,0-0.9-0.4-0.9-0.8C416,20.3,416.5,20,416.9,20z"/>
<path class="st7" d="M416.9,20c0.4,0,0.9,0.4,0.9,0.8c0,0.4-0.4,0.8-0.9,0.8c-0.4,0-0.9-0.4-0.9-0.8C416,20.3,416.5,20,416.9,20z"/>
<path class="st0" d="M437.6,19.8c0.4,0,0.9,0.4,0.9,0.8c0,0.4-0.4,0.8-0.9,0.8c-0.4,0-0.8-0.4-0.8-0.8
	C436.8,20.2,437.2,19.8,437.6,19.8z"/>
<path class="st7" d="M437.6,19.8c0.4,0,0.9,0.4,0.9,0.8c0,0.4-0.4,0.8-0.9,0.8c-0.4,0-0.8-0.4-0.8-0.8
	C436.8,20.2,437.2,19.8,437.6,19.8z"/>
<polyline class="st7" points="10.7,89 10.7,82.6 30.9,82.6 "/>
<polyline class="st7" points="46.2,71.5 10.7,71.4 10.7,63.8 "/>
<path class="st0" d="M10.7,61.8l-1.9,4c1.3-0.6,2.5-0.6,3.8,0L10.7,61.8"/>
<text transform="matrix(1.1018 0 0 1 16.8487 69.7656)" class="st0 st1 st2">VCC</text>
<text transform="matrix(1.1018 0 0 1 16.3106 81.0058)" class="st0 st1 st2">GND</text>
<text transform="matrix(-5.557482e-17 -0.9076 1 -6.123361e-17 415.1861 39.7381)" class="st0 st1 st14">XTAL1</text>
<polyline class="st7" points="236.9,161.8 136.6,161.8 136.6,165.1 "/>
<path class="st0" d="M239,161.8l-4.4,1.7c0.6-1.1,0.6-2.3,0-3.4L239,161.8"/>
<path class="st0" d="M179,129.2l-4.4,1.7c0.6-1.1,0.6-2.3,0-3.4L179,129.2"/>
<path class="st0" d="M179,136.7l-4.4,1.7c0.6-1.1,0.6-2.3,0-3.4L179,136.7"/>
<path class="st0" d="M136.6,167.4l1.9-4c-1.3,0.6-2.5,0.6-3.8,0L136.6,167.4"/>
<line class="st7" x1="223.6" y1="173.9" x2="236.9" y2="173.9"/>
<path class="st0" d="M221.4,173.9l4.4-1.7c-0.6,1.1-0.6,2.3,0,3.4L221.4,173.9"/>
<path class="st0" d="M239.1,173.9l-4.4-1.7c0.6,1.1,0.6,2.3,0,3.4L239.1,173.9"/>
<line class="st7" x1="236.9" y1="199.5" x2="223.6" y2="199.5"/>
<path class="st0" d="M239.1,199.5l-4.4,1.7c0.6-1.1,0.6-2.3,0-3.4L239.1,199.5"/>
<path class="st0" d="M221.4,199.5l4.4,1.7c-0.6-1.1-0.6-2.3,0-3.4L221.4,199.5"/>
<line class="st7" x1="223.5" y1="229.5" x2="236.8" y2="229.5"/>
<path class="st0" d="M221.3,229.5l4.4-1.7c-0.6,1.1-0.6,2.3,0,3.4L221.3,229.5"/>
<path class="st0" d="M239,229.5l-4.4-1.7c0.6,1.1,0.6,2.3,0,3.4L239,229.5"/>
<line class="st7" x1="261.6" y1="169.9" x2="248.3" y2="169.9"/>
<path class="st0" d="M263.8,169.9l-4.4,1.7c0.6-1.1,0.6-2.3,0-3.4L263.8,169.9"/>
<path class="st0" d="M246.1,169.9l4.4,1.7c-0.6-1.1-0.6-2.3,0-3.4L246.1,169.9"/>
<line class="st7" x1="261.6" y1="199.5" x2="248.3" y2="199.5"/>
<path class="st0" d="M263.8,199.5l-4.4,1.7c0.6-1.1,0.6-2.3,0-3.4L263.8,199.5"/>
<path class="st0" d="M246.1,199.5l4.4,1.7c-0.6-1.1-0.6-2.3,0-3.4L246.1,199.5"/>
<line class="st7" x1="261.2" y1="219.9" x2="247.9" y2="219.9"/>
<path class="st0" d="M263.4,219.9l-4.4,1.7c0.6-1.1,0.6-2.3,0-3.4L263.4,219.9"/>
<path class="st0" d="M245.7,219.9l4.4,1.7c-0.6-1.1-0.6-2.3,0-3.4L245.7,219.9"/>
<line class="st7" x1="260.8" y1="238.8" x2="247.5" y2="238.8"/>
<path class="st0" d="M263,238.8l-4.4,1.7c0.6-1.1,0.6-2.3,0-3.4L263,238.8"/>
<path class="st0" d="M245.3,238.8l4.4,1.7c-0.6-1.1-0.6-2.3,0-3.4L245.3,238.8"/>
<line class="st7" x1="261.1" y1="256.2" x2="247.8" y2="256.2"/>
<path class="st0" d="M263.3,256.2l-4.4,1.7c0.6-1.1,0.6-2.3,0-3.4L263.3,256.2"/>
<path class="st0" d="M245.6,256.2l4.4,1.7c-0.6-1.1-0.6-2.3,0-3.4L245.6,256.2"/>
<line class="st7" x1="248.8" y1="324.8" x2="262" y2="324.8"/>
<path class="st0" d="M246.5,324.8l4.4-1.7c-0.6,1.1-0.6,2.3,0,3.4L246.5,324.8"/>
<path class="st0" d="M264.2,324.8l-4.4-1.7c0.6,1.1,0.6,2.3,0,3.4L264.2,324.8"/>
<line class="st15" x1="249.1" y1="269.9" x2="338.5" y2="269.9"/>
<line class="st7" x1="249.1" y1="269.9" x2="338.5" y2="269.9"/>
<path class="st0" d="M247.3,269.9l4.4-1.7c-0.6,1.1-0.6,2.3,0,3.4L247.3,269.9"/>
<line class="st7" x1="223.6" y1="299.8" x2="236.9" y2="299.8"/>
<path class="st0" d="M221.4,299.8l4.4-1.7c-0.6,1.1-0.6,2.3,0,3.4L221.4,299.8"/>
<path class="st0" d="M239.1,299.8l-4.4-1.7c0.6,1.1,0.6,2.3,0,3.4L239.1,299.8"/>
<line class="st7" x1="136.6" y1="180.3" x2="136.6" y2="191.1"/>
<path class="st0" d="M136.6,193.1l1.9-4c-1.3,0.6-2.5,0.6-3.8,0L136.6,193.1"/>
<line class="st7" x1="136.6" y1="206" x2="136.6" y2="216.8"/>
<path class="st0" d="M136.6,218.8l1.9-4c-1.3,0.6-2.5,0.6-3.8,0L136.6,218.8"/>
<line class="st7" x1="136.6" y1="231.6" x2="136.6" y2="242.4"/>
<path class="st0" d="M136.6,244.4l1.9-4c-1.3,0.6-2.5,0.6-3.8,0L136.6,244.4"/>
<line class="st7" x1="200.2" y1="180.3" x2="200.2" y2="191.1"/>
<path class="st0" d="M200.2,193.1l1.9-4c-1.3,0.6-2.5,0.6-3.8,0L200.2,193.1"/>
<line class="st7" x1="136.6" y1="257.2" x2="136.6" y2="268.1"/>
<path class="st0" d="M136.6,270.1l1.9-4c-1.3,0.6-2.5,0.6-3.8,0L136.6,270.1"/>
<text transform="matrix(1.1018 0 0 1 129.3775 279.955)" class="st0 st1 st2">LINES</text>
<line class="st7" x1="187.8" y1="257.2" x2="187.8" y2="264.9"/>
<path class="st0" d="M187.8,266.9l1.9-4c-1.3,0.6-2.5,0.6-3.8,0L187.8,266.9"/>
<line class="st7" x1="212.6" y1="257.2" x2="212.6" y2="264.9"/>
<path class="st0" d="M212.6,266.9l1.9-4c-1.3,0.6-2.5,0.6-3.8,0L212.6,266.9"/>
<line class="st7" x1="200.2" y1="283.3" x2="200.2" y2="291.4"/>
<line class="st7" x1="200.2" y1="287" x2="236.9" y2="287"/>
<path class="st0" d="M239.1,287l-4.4-1.7c0.6,1.1,0.6,2.3,0,3.4L239.1,287"/>
<polyline class="st7" points="136.6,238 166.6,238 166.6,196.3 176.8,196.3 "/>
<path class="st0" d="M179,196.3l-4.4-1.7c0.6,1.1,0.6,2.3,0,3.4L179,196.3"/>
<line class="st7" x1="166.6" y1="229.4" x2="176.8" y2="229.4"/>
<path class="st0" d="M179,229.4l-4.4-1.7c0.6,1.1,0.6,2.3,0,3.4L179,229.4"/>
<line class="st7" x1="179" y1="242.2" x2="174.2" y2="242.2"/>
<path class="st0" d="M172,242.2l4.4,1.7c-0.6-1.1-0.6-2.3,0-3.4L172,242.2"/>
<line class="st7" x1="179" y1="248.1" x2="174.2" y2="248.1"/>
<path class="st0" d="M172,248.1l4.4,1.7c-0.6-1.1-0.6-2.3,0-3.4L172,248.1"/>
<polyline class="st7" points="179,254.1 172,254.1 172,173.9 160.1,173.9 "/>
<path class="st0" d="M157.9,173.9l4.4,1.7c-0.6-1.1-0.6-2.3,0-3.4L157.9,173.9"/>
<path class="st0" d="M221.7,136.7l4.4,1.7c-0.6-1.1-0.6-2.3,0-3.4L221.7,136.7"/>
<path class="st0" d="M179,129l-4.4,1.7c0.6-1.1,0.6-2.3,0-3.4L179,129"/>
<path class="st0" d="M221.7,129l4.4,1.7c-0.6-1.1-0.6-2.3,0-3.4L221.7,129"/>
<line class="st7" x1="171.9" y1="201.8" x2="176.8" y2="201.8"/>
<path class="st0" d="M179,201.8l-4.4-1.7c0.6,1.1,0.6,2.3,0,3.4L179,201.8"/>
<polyline class="st7" points="329.1,161.4 323.3,161.4 323.3,193.8 326.5,193.8 "/>
<polyline class="st7" points="306.4,167.7 309.9,167.7 309.9,200.7 325.2,200.7 "/>
<polyline class="st7" points="308,234.8 348.2,234.8 348.2,208.1 "/>
<path class="st0" d="M306.2,234.8l4.4-1.7c-0.6,1.1-0.6,2.3,0,3.4L306.2,234.8"/>
<path class="st0" d="M348.2,205.7l-1.9,4c1.3-0.6,2.5-0.6,3.8,0L348.2,205.7"/>
<line class="st7" x1="308" y1="218.1" x2="348.5" y2="218.1"/>
<path class="st0" d="M306.2,218l4.4-1.7c-0.6,1.1-0.6,2.3,0,3.4L306.2,218"/>
<line class="st7" x1="306.2" y1="204.1" x2="325.2" y2="204.1"/>
<path class="st0" d="M305.8,243.1l4.4,1.7c-0.6-1.1-0.6-2.3,0-3.4L305.8,243.1"/>
<line class="st13" x1="284.7" y1="334.3" x2="284.7" y2="343.4"/>
<path class="st0" d="M284.7,346.8l1.9-4c-1.3,0.6-2.5,0.6-3.8,0L284.7,346.8"/>
<path class="st0" d="M293.2,321l1.9-4c-1.3,0.6-2.5,0.6-3.8,0L293.2,321"/>
<text transform="matrix(1.1018 0 0 1 319.1578 34.3984)" class="st0 st1 st2">PC7</text>
<polyline class="st7" points="306.1,374.6 306.1,366.4 320.4,366.4 320.4,222.4 308.5,222.4 "/>
<path class="st0" d="M305.7,222.5l4.4,1.7c-0.6-1.1-0.6-2.3,0-3.4L305.7,222.5"/>
<text transform="matrix(1.1018 0 0 1 272.6563 140.7958)" class="st0 st1 st2">INTERNAL</text>
<text transform="matrix(1.1018 0 0 1 271.3246 166.3276)" class="st0 st1 st2">WATCHDOG</text>
<text transform="matrix(1.1018 0 0 1 277.233 171.5029)" class="st0 st1 st2">TIMER</text>
<rect x="263.8" y="135.2" class="st5" width="42.4" height="12.8"/>
<rect x="263.8" y="160.8" class="st5" width="42.4" height="12.8"/>
<line class="st7" x1="285" y1="148" x2="285" y2="158.8"/>
<path class="st0" d="M285,160.8l1.9-4c-1.3,0.6-2.5,0.6-3.8,0L285,160.8"/>
<polyline class="st7" points="371.8,159.4 417.4,159.4 417.2,10.2 "/>
<polyline class="st7" points="371.9,163.1 438.3,163.1 438.1,10.2 "/>
<text transform="matrix(1.1018 0 0 1 254.1003 110.1182)" class="st0 st1 st2">8</text>
<text transform="matrix(1.1018 0 0 1 256.9755 109.4934)" class="st0 st1 st2">-</text>
<text transform="matrix(1.1018 0 0 1 258.643 110.118)" class="st0 st1 st2">BIT </text>
<text transform="matrix(1.1018 0 0 1 267.8739 110.1178)" class="st0 st1 st2">D</text>
<text transform="matrix(1.1018 0 0 1 271.3248 110.118)" class="st0 st1 st2">A</text>
<text transform="matrix(1.1018 0 0 1 273.9089 110.1181)" class="st0 st1 st2">T</text>
<text transform="matrix(1.1018 0 0 1 276.4533 110.1182)" class="st0 st1 st2">A </text>
<text transform="matrix(1.1018 0 0 1 282.5708 109.7851)" class="st0 st1 st2">B</text>
<text transform="matrix(1.1018 0 0 1 285.6283 109.7848)" class="st0 st1 st2">US</text>
<path class="st0" d="M115.3,173.9l-4.4-1.7c0.6,1.1,0.6,2.3,0,3.4L115.3,173.9"/>
<line class="st7" x1="113.2" y1="199.5" x2="108.5" y2="199.5"/>
<path class="st0" d="M115.4,199.5l-4.4-1.7c0.6,1.1,0.6,2.3,0,3.4L115.4,199.5"/>
<line class="st7" x1="445.1" y1="39.8" x2="445.1" y2="23.7"/>
<path class="st0" d="M81.4,377.6l1.9-4c-1.3,0.6-2.5,0.6-3.8,0L81.4,377.6"/>
<rect x="331.2" y="303.1" class="st5" width="33.7" height="30.9"/>
<path class="st0" d="M315.2,353.2l1.9,4c-1.3-0.6-2.5-0.6-3.8,0L315.2,353.2"/>
<path class="st0" d="M365.5,353.6l1.9,4c-1.3-0.6-2.5-0.6-3.8,0L365.5,353.6"/>
<rect x="372.6" y="321.2" class="st5" width="53.8" height="12.8"/>
<line class="st7" x1="348.5" y1="336.1" x2="348.5" y2="343.1"/>
<path class="st0" d="M348.4,345.9l1.9-4c-1.3,0.6-2.5,0.6-3.8,0L348.4,345.9"/>
<path class="st0" d="M348.7,334.4l1.9,4c-1.3-0.6-2.5-0.6-3.8,0L348.7,334.4"/>
<line class="st7" x1="400" y1="337.4" x2="400" y2="346.2"/>
<path class="st0" d="M400,347.5l1.9-4c-1.3,0.6-2.5,0.6-3.8,0L400,347.5"/>
<path class="st0" d="M400.1,334.4l1.9,4c-1.3-0.6-2.5-0.6-3.8,0L400.1,334.4"/>
<text transform="matrix(1.1018 0 0 1 335.9781 198.2343)" class="st0 st1 st2">TIMING AND</text>
<rect x="329.6" y="192.2" class="st16" width="42.5" height="13.4"/>
<rect x="329.3" y="154.8" class="st5" width="42.4" height="12.8"/>
<rect x="329.1" y="135.2" class="st5" width="42.4" height="12.8"/>
<path class="st0" d="M329.3,197.4l-4.4-1.8c0.6,1.2,0.6,2.4,0,3.6L329.3,197.4"/>
<path class="st0" d="M329.3,200.7l-4.4-1.8c0.6,1.2,0.6,2.4,0,3.6L329.3,200.7"/>
<path class="st0" d="M329.3,204.1l-4.4-1.8c0.6,1.2,0.6,2.4,0,3.6L329.3,204.1"/>
<path class="st0" d="M329.3,193.8l-4.4-1.8c0.6,1.2,0.6,2.4,0,3.6L329.3,193.8"/>
<path class="st0" d="M324.6,193.8"/>
<polyline class="st7" points="327.8,197.4 320.3,197.4 320.3,141.9 328.7,141.9 "/>
<text transform="matrix(1.1479 0 0 1 341.6659 99.8784)" class="st0 st4 st2">C</text>
<rect x="368.4" y="88.3" class="st5" width="44.2" height="12.8"/>
<rect x="313.6" y="88.4" class="st5" width="44.2" height="12.8"/>
<line class="st7" x1="372" y1="88.4" x2="372" y2="77.6"/>
<path class="st0" d="M372,75.6l-1.9,4c1.3-0.6,2.5-0.6,3.8,0L372,75.6"/>
<line class="st7" x1="317.1" y1="77.6" x2="317.1" y2="86.5"/>
<path class="st0" d="M317.1,75.6l1.9,4c-1.3-0.6-2.5-0.6-3.8,0L317.1,75.6"/>
<path class="st0" d="M317.1,88.4l1.9-4c-1.3,0.6-2.5,0.6-3.8,0L317.1,88.4"/>
<line class="st7" x1="377.3" y1="88.4" x2="377.3" y2="77.6"/>
<path class="st0" d="M377.3,75.6l-1.9,4c1.3-0.6,2.5-0.6,3.8,0L377.3,75.6"/>
<line class="st7" x1="322.4" y1="77.6" x2="322.4" y2="86.5"/>
<path class="st0" d="M322.4,75.6l1.9,4c-1.3-0.6-2.5-0.6-3.8,0L322.4,75.6"/>
<path class="st0" d="M322.4,88.4l1.9-4c-1.3,0.6-2.5,0.6-3.8,0L322.4,88.4"/>
<line class="st7" x1="382.6" y1="88.4" x2="382.6" y2="77.6"/>
<path class="st0" d="M382.6,75.6l-1.9,4c1.3-0.6,2.5-0.6,3.8,0L382.6,75.6"/>
<line class="st7" x1="327.7" y1="77.6" x2="327.7" y2="86.5"/>
<path class="st0" d="M327.7,75.6l1.9,4c-1.3-0.6-2.5-0.6-3.8,0L327.7,75.6"/>
<path class="st0" d="M327.7,88.4l1.9-4c-1.3,0.6-2.5,0.6-3.8,0L327.7,88.4"/>
<line class="st7" x1="387.9" y1="88.4" x2="387.9" y2="77.6"/>
<path class="st0" d="M387.9,75.6l-1.9,4c1.3-0.6,2.5-0.6,3.8,0L387.9,75.6"/>
<line class="st7" x1="333" y1="77.6" x2="333" y2="86.5"/>
<path class="st0" d="M333,75.6l1.9,4c-1.3-0.6-2.5-0.6-3.8,0L333,75.6"/>
<path class="st0" d="M333,88.4l1.9-4c-1.3,0.6-2.5,0.6-3.8,0L333,88.4"/>
<line class="st7" x1="393.2" y1="88.4" x2="393.2" y2="77.6"/>
<path class="st0" d="M393.2,75.6l-1.9,4c1.3-0.6,2.5-0.6,3.8,0L393.2,75.6"/>
<line class="st7" x1="338.3" y1="77.6" x2="338.3" y2="86.4"/>
<path class="st0" d="M338.3,75.6l1.9,4c-1.3-0.6-2.5-0.6-3.8,0L338.3,75.6"/>
<path class="st0" d="M338.3,88.4l1.9-4c-1.3,0.6-2.5,0.6-3.8,0L338.3,88.4"/>
<line class="st7" x1="334.8" y1="103.2" x2="334.8" y2="112"/>
<path class="st0" d="M334.8,101.2l1.9,4c-1.3-0.6-2.5-0.6-3.8,0L334.8,101.2"/>
<path class="st0" d="M334.8,114l1.9-4c-1.3,0.6-2.5,0.6-3.8,0L334.8,114"/>
<line class="st7" x1="389.6" y1="103.2" x2="389.6" y2="112"/>
<path class="st0" d="M389.5,101.2l1.9,4c-1.3-0.6-2.5-0.6-3.8,0L389.5,101.2"/>
<path class="st0" d="M389.5,114l1.9-4c-1.3,0.6-2.5,0.6-3.8,0L389.5,114"/>
<line class="st7" x1="398.5" y1="88.4" x2="398.5" y2="77.6"/>
<path class="st0" d="M398.5,75.6l-1.9,4c1.3-0.6,2.5-0.6,3.8,0L398.5,75.6"/>
<line class="st7" x1="343.6" y1="77.6" x2="343.6" y2="86.5"/>
<path class="st0" d="M343.6,75.6l1.9,4c-1.3-0.6-2.5-0.6-3.8,0L343.6,75.6"/>
<path class="st0" d="M343.6,88.4l1.9-4c-1.3,0.6-2.5,0.6-3.8,0L343.6,88.4"/>
<line class="st7" x1="403.8" y1="88.4" x2="403.8" y2="77.6"/>
<path class="st0" d="M403.8,75.6l-1.9,4c1.3-0.6,2.5-0.6,3.8,0L403.8,75.6"/>
<line class="st7" x1="348.9" y1="77.6" x2="348.9" y2="86.5"/>
<path class="st0" d="M348.9,75.6l1.9,4c-1.3-0.6-2.5-0.6-3.8,0L348.9,75.6"/>
<path class="st0" d="M348.9,88.4l1.9-4c-1.3,0.6-2.5,0.6-3.8,0L348.9,88.4"/>
<line class="st7" x1="409.1" y1="88.4" x2="409.1" y2="77.6"/>
<path class="st0" d="M409.1,75.6l-1.9,4c1.3-0.6,2.5-0.6,3.8,0L409.1,75.6"/>
<line class="st7" x1="354.2" y1="77.6" x2="354.2" y2="86.5"/>
<path class="st0" d="M354.2,75.6l1.9,4c-1.3-0.6-2.5-0.6-3.8,0L354.2,75.6"/>
<path class="st0" d="M354.2,88.4l1.9-4c-1.3,0.6-2.5,0.6-3.8,0L354.2,88.4"/>
<rect x="47.5" y="193.3" class="st5" width="42.5" height="12.8"/>
<rect x="47.3" y="168" class="st5" width="42.5" height="12.8"/>
<rect x="134.9" y="184.4" class="st5" width="3.3" height="2.8"/>
<rect x="135.1" y="209.8" class="st5" width="2.9" height="2.8"/>
<polyline class="st7" points="138.5,185.9 161.9,186 161.9,211.3 138,211.3 "/>
<path class="st0" d="M134.6,186.2l-4.4-1.7c0.6,1.1,0.6,2.3,0,3.4L134.6,186.2"/>
<path class="st0" d="M138.1,211.2l4.4,1.7c-0.6-1.1-0.6-2.3,0-3.4L138.1,211.2"/>
<path class="st0" d="M90,202.5l4.4,1.7c-0.6-1.1-0.6-2.3,0-3.4L90,202.5"/>
<path class="st0" d="M70,193.4l1.9-4c-1.3,0.6-2.5,0.6-3.8,0L70,193.4"/>
<line class="st7" x1="70" y1="193.4" x2="69.8" y2="181"/>
<path class="st0" d="M69.9,180.8l-1.9,4c1.3-0.6,2.5-0.6,3.8,0L69.9,180.8"/>
<rect x="47.7" y="216.4" class="st5" width="42.5" height="12.8"/>
<text transform="matrix(1.1018 0 0 1 61.0982 252.7402)" class="st0 st1 st2">LOGIC</text>
<rect x="47.6" y="242.1" class="st5" width="42.4" height="12.8"/>
<polyline class="st7" points="89.9,247.1 108.3,247.1 108.3,173.9 112.7,173.9 "/>
<text transform="matrix(1.1018 0 0 1 62.5924 227.3739)" class="st0 st1 st2">SCAN</text>
<line class="st7" x1="47.4" y1="175.9" x2="40.1" y2="175.9"/>
<line class="st7" x1="47.2" y1="199.8" x2="39.9" y2="199.8"/>
<line class="st7" x1="47.4" y1="223.1" x2="40.1" y2="223.1"/>
<line class="st7" x1="47.5" y1="249.5" x2="40.2" y2="249.5"/>
<line class="st17" x1="40.1" y1="175.6" x2="40.1" y2="249.7"/>
<path class="st0" d="M47.5,223.1l-4.4-1.7c0.6,1.1,0.6,2.3,0,3.4L47.5,223.1"/>
<path class="st0" d="M47.3,199.8l-4.4-1.7c0.6,1.1,0.6,2.3,0,3.4L47.3,199.8"/>
<path class="st0" d="M47.5,249.5l-4.4-1.7c0.6,1.1,0.6,2.3,0,3.4L47.5,249.5"/>
<polyline class="st7" points="258.5,260.6 78.6,260.6 78.6,255.4 "/>
<path class="st0" d="M47.6,175.9l-4.4-1.7c0.6,1.1,0.6,2.3,0,3.4L47.6,175.9"/>
<line class="st7" x1="158.5" y1="337.4" x2="158.5" y2="346.2"/>
<path class="st0" d="M158.5,347.5l1.9-4c-1.3,0.6-2.5,0.6-3.8,0L158.5,347.5"/>
<path class="st0" d="M158.4,334.8l1.9,4c-1.3-0.6-2.5-0.6-3.8,0L158.4,334.8"/>
<polyline class="st7" points="59.1,255 59.2,311.4 277.5,311.3 277.5,321.3 "/>
<path class="st0" d="M59,255.1l1.9,4c-1.3-0.6-2.5-0.6-3.8,0L59,255.1"/>
<line class="st7" x1="81.3" y1="375.2" x2="81.5" y2="341"/>
<polyline class="st18" points="212.2,374.5 212,329.8 264.3,329.7 "/>
<path class="st0" d="M212.1,377.4l1.9-4c-1.3,0.6-2.5,0.6-3.8,0L212.1,377.4"/>
<path class="st0" d="M264.1,329.4l-4.4-1.7c0.6,1.1,0.6,2.3,0,3.4L264.1,329.4"/>
<path class="st0" d="M330.8,328.8"/>
<path class="st7" d="M330.8,328.8"/>
<path class="st0" d="M320.4,329"/>
<path class="st7" d="M320.4,329"/>
<path class="st0" d="M320.4,303.3"/>
<path class="st0" d="M400.3,321l1.9-4c-1.3,0.6-2.5,0.6-3.8,0L400.3,321"/>
<rect x="179" y="125.3" class="st19" width="42.5" height="16"/>
<text transform="matrix(1.1479 0 0 1 185.7823 131.4892)" class="st0 st1 st2">POR </text>
<text transform="matrix(1.1479 0 0 1 199.4859 131.4892)" class="st0 st1 st2">-</text>
<text transform="matrix(1.1479 0 0 1 201.6656 131.4892)" class="st0 st1 st2"> BOD</text>
<text transform="matrix(1.1479 0 0 1 192.502 137.4833)" class="st0 st1 st2">RESET</text>
<path class="st7" d="M416.1,418.3"/>
<line class="st15" x1="416.1" y1="416.3" x2="416.1" y2="416.3"/>
<path class="st7" d="M458.5,418.3"/>
<line class="st15" x1="458.5" y1="416.3" x2="458.5" y2="416.3"/>
<line class="st15" x1="458.5" y1="442" x2="458.5" y2="442"/>
<rect x="31" y="43.9" class="st20" width="446.2" height="386.8"/>
<path class="st0" d="M306.4,377.4l1.9-4c-1.3,0.6-2.5,0.6-3.8,0L306.4,377.4"/>
<path class="st0" d="M325.6,62.5l1.9-4c-1.3,0.6-2.5,0.6-3.8,0L325.6,62.5"/>
<path class="st0" d="M336,62.4l1.9-4c-1.3,0.6-2.5,0.6-3.8,0L336,62.4"/>
<path class="st21" d="M324.4,311.3"/>
<path class="st0" d="M200.2,293.3l1.9-4c-1.3,0.6-2.5,0.6-3.8,0L200.2,293.3"/>
<path class="st0" d="M277.5,321l1.9-4c-1.3,0.6-2.5,0.6-3.8,0L277.5,321"/>
<path class="st13" d="M103.2,364.6"/>
<path class="st7" d="M122.3,359.4"/>
<path class="st0" d="M284.7,333.9l1.9,4c-1.3-0.6-2.5-0.6-3.8,0L284.7,333.9"/>
<line class="st13" x1="297.1" y1="342" x2="297.1" y2="374.7"/>
<path class="st0" d="M297.1,377.6l1.9-4c-1.3,0.6-2.5,0.6-3.8,0L297.1,377.6"/>
<path class="st0" d="M297,340.7l1.9,4c-1.3-0.6-2.5-0.6-3.8,0L297,340.7"/>
<path class="st0" d="M158.7,320.9l1.9-4c-1.3,0.6-2.5,0.6-3.8,0L158.7,320.9"/>
<path class="st0" d="M293.1,315.1"/>
<polyline class="st7" points="293.2,318.4 293.2,315.1 158.8,315.3 158.7,321.3 "/>
<path class="st0" d="M109.6,377.5l1.9-4c-1.3,0.6-2.5,0.6-3.8,0L109.6,377.5"/>
<line class="st15" x1="109.5" y1="366.3" x2="306.1" y2="366.3"/>
<line class="st22" x1="109.5" y1="366.3" x2="306.1" y2="366.3"/>
<line class="st7" x1="109.5" y1="375.2" x2="109.5" y2="366.3"/>
<line class="st7" x1="194.5" y1="367.4" x2="194.5" y2="374.8"/>
<path class="st0" d="M194.5,366.1l1.9,4c-1.3-0.6-2.5-0.6-3.8,0L194.5,366.1"/>
<path class="st0" d="M194.5,377.5l1.9-4c-1.3,0.6-2.5,0.6-3.8,0L194.5,377.5"/>
<polyline class="st7" points="90.2,197.5 102.8,197.5 102.8,186.1 131.6,186.1 "/>
<polyline class="st7" points="90.4,223.7 96.9,223.7 96.9,136.7 178.5,136.7 "/>
<polyline class="st7" points="263.9,164.7 254.7,164.7 254.7,136.7 223.2,136.7 "/>
<polyline class="st7" points="92.9,202.4 102.8,202.4 102.8,211.2 134.9,211.2 "/>
<line class="st7" x1="452.1" y1="129" x2="221.7" y2="129"/>
<polyline class="st7" points="178.9,129.1 46.2,129.1 46.2,71.4 "/>
<polyline class="st13" points="293.2,315 326.4,315 326.4,263.1 400.6,263.1 400.3,320.1 "/>
<text transform="matrix(1.1018 0 0 1 343.6143 285.2626)" class="st0 st1 st2">PLL</text>
<rect x="330.8" y="276.6" class="st5" width="34.6" height="12.8"/>
<path class="st7" d="M348.5,283"/>
<path class="st0" d="M330.8,291.7"/>
<path class="st7" d="M330.8,291.7"/>
<path class="st0" d="M348.2,276.8l-1.9-4c1.3,0.6,2.5,0.6,3.8,0L348.2,276.8"/>
<line class="st13" x1="348.2" y1="234.8" x2="348.2" y2="273.5"/>
<rect x="263.4" y="279.7" class="st5" width="42.4" height="20"/>
<text transform="matrix(1.1018 0 0 1 268.3648 288.1152)" class="st0 st1 st2">HIGH SPEED</text>
<line class="st7" x1="261.2" y1="289.8" x2="247.9" y2="289.8"/>
<path class="st0" d="M263.4,289.8l-4.4,1.7c0.6-1.1,0.6-2.3,0-3.4L263.4,289.8"/>
<path class="st0" d="M245.7,289.8l4.4,1.7c-0.6-1.1-0.6-2.3,0-3.4L245.7,289.8"/>
<line class="st7" x1="348.5" y1="295.9" x2="308.6" y2="295.9"/>
<text transform="matrix(1.1018 0 0 1 331.8311 34.5878)" class="st0 st1 st2">PC6</text>
<path class="st0" d="M306.1,366.2l1.9,4c-1.3-0.6-2.5-0.6-3.8,0L306.1,366.2"/>
<rect x="412.1" y="243.7" class="st5" width="42.4" height="30.4"/>
<path class="st23" d="M455.2,249.1c1.4-0.5,3.2-1.3,4.3-2.2l-0.9,2.2l0.9,2.2C458.3,250.4,456.6,249.6,455.2,249.1"/>
<line class="st24" x1="458.2" y1="249.1" x2="495" y2="249.1"/>
<path class="st0" d="M455.2,249.1c1.4-0.5,3.2-1.3,4.3-2.2l-0.9,2.2l0.9,2.2C458.3,250.4,456.6,249.6,455.2,249.1"/>
<path class="st23" d="M455.2,249.1c1.4-0.5,3.2-1.3,4.3-2.2l-0.9,2.2l0.9,2.2C458.3,250.4,456.6,249.6,455.2,249.1"/>
<line class="st24" x1="494.7" y1="249.2" x2="494.7" y2="243.8"/>
<line class="st24" x1="492.8" y1="243.7" x2="495.9" y2="243.7"/>
<line class="st24" x1="494.3" y1="267.8" x2="494.3" y2="277"/>
<line class="st24" x1="490.4" y1="277" x2="498.2" y2="277"/>
<line class="st24" x1="490.4" y1="279.6" x2="498.2" y2="279.6"/>
<line class="st24" x1="494.1" y1="279.5" x2="494.1" y2="285.6"/>
<text transform="matrix(1.1018 0 0 1 499.4293 279.6035)" class="st0 st25 st26">1uF</text>
<line class="st5" x1="498.9" y1="285.9" x2="488.3" y2="285.9"/>
<line class="st5" x1="497.2" y1="287.5" x2="490.1" y2="287.5"/>
<line class="st5" x1="495.4" y1="289.1" x2="491.9" y2="289.1"/>
<path class="st0" d="M455,248.6l4.4-1.7c-0.6,1.1-0.6,2.3,0,3.4L455,248.6"/>
<line class="st27" x1="494.3" y1="267.8" x2="454.8" y2="267.9"/>
<line class="st15" x1="357.7" y1="299.8" x2="357.7" y2="294.5"/>
<line class="st27" x1="357.7" y1="299.8" x2="357.7" y2="294.5"/>
<line class="st15" x1="357.7" y1="294.5" x2="467.1" y2="294.5"/>
<line class="st27" x1="357.7" y1="294.5" x2="467.1" y2="294.5"/>
<line class="st15" x1="467" y1="294.5" x2="467" y2="267.8"/>
<line class="st27" x1="467" y1="294.5" x2="467" y2="267.8"/>
<line class="st13" x1="219.6" y1="341.8" x2="219.6" y2="374.5"/>
<path class="st0" d="M219.6,340.9l1.9,4c-1.3-0.6-2.5-0.6-3.8,0L219.6,340.9"/>
<path class="st0" d="M219.6,377.4l1.9-4c-1.3,0.6-2.5,0.6-3.8,0L219.6,377.4"/>
<line class="st27" x1="308.6" y1="243" x2="316.1" y2="243"/>
<polyline class="st27" points="315.6,243 315.6,341 81.4,341 "/>
<path class="st0" d="M262.7,260.5l-4.4,1.7c0.6-1.1,0.6-2.3,0-3.4L262.7,260.5"/>
<path class="st0" d="M338.5,276.8l-1.9-4c1.3,0.6,2.5,0.6,3.8,0L338.5,276.8"/>
<polyline class="st13" points="311.5,283.4 311.5,256.2 347.6,256.2 "/>
<path class="st0" d="M305.8,296l4.4,1.7c-0.6-1.1-0.6-2.3,0-3.4L305.8,296"/>
<line class="st7" x1="305.4" y1="287.8" x2="319.9" y2="287.8"/>
<path class="st0" d="M306.3,283.5l4.4,1.7c-0.6-1.1-0.6-2.3,0-3.4L306.3,283.5"/>
<line class="st27" x1="348.5" y1="289" x2="348.5" y2="300.3"/>
<path class="st0" d="M348.4,303.3l-1.9-4c1.3,0.6,2.5,0.6,3.8,0L348.4,303.3"/>
<line class="st7" x1="338.5" y1="274.3" x2="338.5" y2="270.2"/>
<polyline class="st7" points="452.3,23.9 452.3,199.3 372.2,199.3 "/>
<path class="st0" d="M372.1,199.1l4.4-1.7c-0.6,1.1-0.6,2.3,0,3.4L372.1,199.1"/>
<path class="st0" d="M357.5,303.2l-1.9-4c1.3,0.6,2.5,0.6,3.8,0L357.5,303.2"/>
<line class="st27" x1="364.8" y1="313.9" x2="451.1" y2="313.9"/>
<line class="st27" x1="365.1" y1="309.7" x2="493.2" y2="309.7"/>
<polyline class="st27" points="365.1,305.7 450.8,305.7 450.7,301.3 "/>
<line class="st27" x1="451.1" y1="313.9" x2="451.1" y2="318.6"/>
<line class="st27" x1="450.7" y1="301.3" x2="492.6" y2="301.3"/>
<line class="st27" x1="451.1" y1="318.6" x2="492.9" y2="318.6"/>
<text transform="matrix(1.1018 0 0 1 494.983 311.5624)" class="st0 st1 st2">DP</text>
<text transform="matrix(1.1018 0 0 1 495.19 320.4238)" class="st0 st1 st2">DM</text>
<path class="st0" d="M320.5,286.9c0.4,0,0.9,0.4,0.9,0.8s-0.4,0.8-0.9,0.8c-0.4,0-0.9-0.4-0.9-0.8
	C319.7,287.3,320.1,286.9,320.5,286.9z"/>
<path class="st7" d="M320.5,286.9c0.4,0,0.9,0.4,0.9,0.8s-0.4,0.8-0.9,0.8c-0.4,0-0.9-0.4-0.9-0.8
	C319.7,287.3,320.1,286.9,320.5,286.9z"/>
<path class="st0" d="M348.3,295c0.4,0,0.9,0.4,0.9,0.8s-0.4,0.8-0.9,0.8c-0.4,0-0.9-0.4-0.9-0.8C347.5,295.4,347.9,295,348.3,295z"
	/>
<path class="st7" d="M348.3,295c0.4,0,0.9,0.4,0.9,0.8s-0.4,0.8-0.9,0.8c-0.4,0-0.9-0.4-0.9-0.8C347.5,295.4,347.9,295,348.3,295z"
	/>
<path class="st0" d="M306.2,287.8l4.4,1.7c-0.6-1.1-0.6-2.3,0-3.4L306.2,287.8"/>
<path class="st0" d="M305.9,291.5l4.4,1.7c-0.6-1.1-0.6-2.3,0-3.4L305.9,291.5"/>
<line class="st7" x1="309" y1="291.6" x2="314.9" y2="291.6"/>
<path class="st0" d="M315.3,290.8c0.4,0,0.9,0.4,0.9,0.8s-0.4,0.8-0.9,0.8c-0.4,0-0.9-0.4-0.9-0.8
	C314.5,291.1,314.9,290.8,315.3,290.8z"/>
<path class="st7" d="M315.3,290.8c0.4,0,0.9,0.4,0.9,0.8s-0.4,0.8-0.9,0.8c-0.4,0-0.9-0.4-0.9-0.8
	C314.5,291.1,314.9,290.8,315.3,290.8z"/>
<line class="st13" x1="309.3" y1="283.4" x2="311.2" y2="283.4"/>
<path class="st0" d="M365.1,305.6l4.4,1.7c-0.6-1.1-0.6-2.3,0-3.4L365.1,305.6"/>
<path class="st0" d="M364.8,309.3l4.4,1.7c-0.6-1.1-0.6-2.3,0-3.4L364.8,309.3"/>
<path class="st0" d="M365.1,313.5l4.4,1.7c-0.6-1.1-0.6-2.3,0-3.4L365.1,313.5"/>
<text transform="matrix(1.1018 0 0 1 335.8414 70.4609)" class="st0 st1 st2">PO</text>
<text transform="matrix(1.1018 0 0 1 343.2243 70.4609)" class="st0 st1 st2">R</text>
<text transform="matrix(1.1018 0 0 1 347.0007 70.4609)" class="st0 st1 st2">T</text>
<text transform="matrix(-5.557482e-17 -0.9076 1 -6.123361e-17 435.2503 39.8274)" class="st0 st1 st14">XTAL2</text>
<text transform="matrix(1.3623 0 0 1 376.9431 93.3261)" class="st0 st1 st2">D</text>
<text transform="matrix(1.1479 0 0 1 381.3905 93.3258)" class="st0 st1 st2">A</text>
<text transform="matrix(1.1479 0 0 1 384.3922 93.3258)" class="st0 st1 st2">T</text>
<text transform="matrix(1.1479 0 0 1 387.5755 93.3258)" class="st0 st1 st2 st28">A</text>
<text transform="matrix(1.1479 0 0 1 392.4923 93.3258)" class="st0 st1 st2">DIR</text>
<text transform="matrix(1.1479 0 0 1 401.0921 93.3258)" class="st0 st1 st2">.</text>
<text transform="matrix(1.1479 0 0 1 373.4361 98.6677)" class="st0 st1 st2">REG</text>
<text transform="matrix(1.1479 0 0 1 379.2901 98.6677)" class="st0 st1 st2 st28">.</text>
<text transform="matrix(1.1479 0 0 1 386.8724 98.6676)" class="st0 st1 st2">PO</text>
<text transform="matrix(1.1479 0 0 1 394.0265 98.6676)" class="st0 st1 st2">R</text>
<text transform="matrix(1.1479 0 0 1 397.6649 98.7097)" class="st0 st1 st2">T</text>
<text transform="matrix(1.1479 0 0 1 315.1998 94.7684)" class="st0 st1 st2">D</text>
<text transform="matrix(1.1479 0 0 1 324.6598 94.7274)" class="st0 st1 st2">A</text>
<text transform="matrix(1.1479 0 0 1 321.6871 94.7684)" class="st0 st1 st2">T</text>
<text transform="matrix(1.1479 0 0 1 318.7018 94.7684)" class="st0 st1 st2 st28">A</text>
<text transform="matrix(1.1479 0 0 1 329.2086 94.7684)" class="st0 st1 st2">REGISTER</text>
<text transform="matrix(1.1018 0 0 1 325.4039 99.7362)" class="st0 st1 st2">PO</text>
<text transform="matrix(1.1018 0 0 1 332.7867 99.7362)" class="st0 st1 st2">R</text>
<text transform="matrix(1.1018 0 0 1 336.5631 99.7362)" class="st0 st1 st2">T</text>
<text transform="matrix(1.1479 0 0 1 401.7631 98.8099)" class="st0 st4 st2">C</text>
<text transform="matrix(1.1479 0 0 1 270.627 145.8525)" class="st0 st1 st2">OSCILATOR</text>
<text transform="matrix(1.1018 0 0 1 336.8998 143.0776)" class="st0 st1 st2">CALIB. OSC</text>
<text transform="matrix(1.1018 0 0 1 335.6997 162.6276)" class="st0 st1 st2">OSCILLATOR</text>
<text transform="matrix(1.1018 0 0 1 193.1129 173.1308)" class="st0 st1 st2">STACK</text>
<text transform="matrix(1.1018 0 0 1 124.3961 173.1308)" class="st0 st1 st2">PROGRAM</text>
<text transform="matrix(1.1018 0 0 1 57.4231 175.6273)" class="st0 st1 st2">JTAG TAP</text>
<text transform="matrix(1.1018 0 0 1 48.5661 201.5275)" class="st0 st1 st2">ON-CHIP DEBUG</text>
<text transform="matrix(1.1018 0 0 1 55.0661 222.0278)" class="st0 st1 st2">BOUNDARY-</text>
<text transform="matrix(1.1018 0 0 1 49.6913 247.1276)" class="st0 st1 st2">PROGRAMMING</text>
<text transform="matrix(1.1018 0 0 1 125.0503 198.7878)" class="st0 st1 st2">PROGRAM</text>
<text transform="matrix(1.1018 0 0 1 120.5999 224.1745)" class="st0 st1 st2">INSTRUCTION</text>
<text transform="matrix(1.1018 0 0 1 121.2002 249.8273)" class="st0 st1 st2">INSTRUCTION</text>
<text transform="matrix(1.1018 0 0 1 125.0503 274.08)" class="st0 st1 st2">CONTROL</text>
<text transform="matrix(1.1018 0 0 1 190.4254 299.8278)" class="st0 st1 st2">STATUS</text>
<text transform="matrix(1.1479 0 0 1 147.9 329.7276)" class="st0 st1 st2">USART1</text>
<text transform="matrix(1.1018 0 0 1 266.1285 198.7878)" class="st0 st1 st2">MCU CONTROL</text>
<text transform="matrix(1.1018 0 0 1 338.5003 203.2978)" class="st0 st1 st2">CONTROL</text>
<text transform="matrix(1.1018 0 0 1 270.6275 219.2275)" class="st0 st1 st2">TIMERS/</text>
<text transform="matrix(1.1018 0 0 1 270.627 238.2538)" class="st0 st1 st2">INTERRUPT</text>
<text transform="matrix(1.1018 0 0 1 273.9089 259.5038)" class="st0 st1 st2">EEPROM</text>
<text transform="matrix(1.1018 0 0 1 269.7546 295.0274)" class="st0 st1 st2">TIMER/PWM</text>
<text transform="matrix(1.1018 0 0 1 338.3995 320.4238)" class="st0 st1 st2">USB 2.0</text>
<text transform="matrix(1.1018 0 0 1 378.1495 327.0775)" class="st29"><tspan x="0" y="0" class="st0 st1 st2">TWO-WIRE SERIAL</tspan><tspan x="0" y="5.4" class="st0 st1 st2">      INTERFACE</tspan></text>
<text transform="matrix(1.1018 0 0 1 417.149 254.1774)" class="st29"><tspan x="0" y="0" class="st0 st1 st2">ON-CHIP</tspan><tspan x="0" y="5.4" class="st0 st1 st2">USB PAD 3V</tspan><tspan x="0" y="10.8" class="st0 st1 st2">REGULATOR</tspan></text>
<text transform="matrix(1.1018 0 0 1 490.0999 241.3608)" class="st0 st1 st2">UVcc</text>
<text transform="matrix(1.1018 0 0 1 489.0999 266.1942)" class="st0 st1 st2">UCap</text>
<text transform="matrix(1.1018 0 0 1 495.3997 302.8608)" class="st0 st1 st2">VBUS</text>
<text transform="matrix(1.1018 0 0 1 307.8727 411.6113)" class="st0 st1 st2">PO</text>
<text transform="matrix(1.1018 0 0 1 315.2555 411.6113)" class="st0 st1 st2">R</text>
<text transform="matrix(1.1018 0 0 1 319.0318 411.6113)" class="st0 st1 st2">T</text>
<text transform="matrix(1.1018 0 0 1 340.5274 411.5302)" class="st0 st1 st2"> DRIVERS</text>
<text transform="matrix(1.1018 0 0 1 95.1726 411.6518)" class="st0 st1 st2">PO</text>
<text transform="matrix(1.1018 0 0 1 102.5555 411.6518)" class="st0 st1 st2">R</text>
<text transform="matrix(1.1018 0 0 1 106.3319 411.6518)" class="st0 st1 st2">T</text>
<text transform="matrix(1.1018 0 0 1 127.8274 411.5707)" class="st0 st1 st2"> DRIVERS</text>
<text transform="matrix(1.1018 0 0 1 202.9726 410.6923)" class="st0 st1 st2">PO</text>
<text transform="matrix(1.1018 0 0 1 210.3556 410.6923)" class="st0 st1 st2">R</text>
<text transform="matrix(1.1018 0 0 1 214.1319 410.6923)" class="st0 st1 st2">T</text>
<text transform="matrix(1.1018 0 0 1 235.6274 410.6113)" class="st0 st1 st2"> DRIVERS</text>
<text transform="matrix(1.3623 0 0 1 352.9562 383.2289)" class="st0 st1 st2">D</text>
<text transform="matrix(1.1479 0 0 1 357.4038 383.2287)" class="st0 st1 st2">A</text>
<text transform="matrix(1.1479 0 0 1 360.4054 383.2287)" class="st0 st1 st2">T</text>
<text transform="matrix(1.1479 0 0 1 363.5887 383.2287)" class="st0 st1 st2 st28">A</text>
<text transform="matrix(1.1479 0 0 1 368.5055 383.2287)" class="st0 st1 st2">DIR</text>
<text transform="matrix(1.1479 0 0 1 377.1054 383.2287)" class="st0 st1 st2">.</text>
<text transform="matrix(1.1479 0 0 1 349.4493 388.5705)" class="st0 st1 st2">REG</text>
<text transform="matrix(1.1479 0 0 1 362.8856 388.5704)" class="st0 st1 st2">PO</text>
<text transform="matrix(1.1479 0 0 1 370.0396 388.5704)" class="st0 st1 st2">R</text>
<text transform="matrix(1.1479 0 0 1 373.6781 388.6125)" class="st0 st1 st2">T</text>
<text transform="matrix(1.1479 0 0 1 290.6944 383.6027)" class="st0 st1 st2">D</text>
<text transform="matrix(1.1479 0 0 1 300.1544 383.5617)" class="st0 st1 st2">A</text>
<text transform="matrix(1.1479 0 0 1 297.1817 383.6027)" class="st0 st1 st2">T</text>
<text transform="matrix(1.1479 0 0 1 294.1964 383.6027)" class="st0 st1 st2 st28">A</text>
<text transform="matrix(1.1479 0 0 1 304.7032 383.6027)" class="st0 st1 st2">REGISTER</text>
<text transform="matrix(1.1018 0 0 1 300.8985 388.5705)" class="st0 st1 st2">PO</text>
<text transform="matrix(1.1018 0 0 1 308.2813 388.5705)" class="st0 st1 st2">R</text>
<text transform="matrix(1.1018 0 0 1 312.0577 388.5705)" class="st0 st1 st2">T</text>
<text transform="matrix(1.3623 0 0 1 137.3263 383.2287)" class="st0 st1 st2">D</text>
<text transform="matrix(1.1479 0 0 1 141.7738 383.2285)" class="st0 st1 st2">A</text>
<text transform="matrix(1.1479 0 0 1 144.7755 383.2285)" class="st0 st1 st2">T</text>
<text transform="matrix(1.1479 0 0 1 147.9588 383.2285)" class="st0 st1 st2 st28">A</text>
<text transform="matrix(1.1479 0 0 1 152.8755 383.2285)" class="st0 st1 st2">DIR</text>
<text transform="matrix(1.1479 0 0 1 161.4755 383.2285)" class="st0 st1 st2">.</text>
<text transform="matrix(1.1479 0 0 1 133.8194 388.5703)" class="st0 st1 st2">REG</text>
<text transform="matrix(1.1479 0 0 1 147.2557 388.5701)" class="st0 st1 st2">PO</text>
<text transform="matrix(1.1479 0 0 1 154.4097 388.5701)" class="st0 st1 st2">R</text>
<text transform="matrix(1.1479 0 0 1 158.0482 388.6122)" class="st0 st1 st2">T</text>
<text transform="matrix(1.1479 0 0 1 75.0644 383.6025)" class="st0 st1 st2">D</text>
<text transform="matrix(1.1479 0 0 1 84.5244 383.5615)" class="st0 st1 st2">A</text>
<text transform="matrix(1.1479 0 0 1 81.5517 383.6025)" class="st0 st1 st2">T</text>
<text transform="matrix(1.1479 0 0 1 78.5664 383.6025)" class="st0 st1 st2 st28">A</text>
<text transform="matrix(1.1479 0 0 1 89.0732 383.6025)" class="st0 st1 st2">REGISTER</text>
<text transform="matrix(1.1018 0 0 1 85.2685 388.5703)" class="st0 st1 st2">PO</text>
<text transform="matrix(1.1018 0 0 1 92.6515 388.5703)" class="st0 st1 st2">R</text>
<text transform="matrix(1.1018 0 0 1 96.4278 388.5703)" class="st0 st1 st2">T</text>
<text transform="matrix(1.3623 0 0 1 244.5562 382.8537)" class="st0 st1 st2">D</text>
<text transform="matrix(1.1479 0 0 1 249.0038 382.8535)" class="st0 st1 st2">A</text>
<text transform="matrix(1.1479 0 0 1 252.0055 382.8535)" class="st0 st1 st2">T</text>
<text transform="matrix(1.1479 0 0 1 255.1887 382.8535)" class="st0 st1 st2 st28">A</text>
<text transform="matrix(1.1479 0 0 1 260.1054 382.8535)" class="st0 st1 st2">DIR</text>
<text transform="matrix(1.1479 0 0 1 268.7054 382.8535)" class="st0 st1 st2">.</text>
<text transform="matrix(1.1479 0 0 1 241.0494 388.1953)" class="st0 st1 st2">REG</text>
<text transform="matrix(1.1479 0 0 1 254.4857 388.1951)" class="st0 st1 st2">PO</text>
<text transform="matrix(1.1479 0 0 1 261.6396 388.1951)" class="st0 st1 st2">R</text>
<text transform="matrix(1.1479 0 0 1 265.2782 388.2372)" class="st0 st1 st2">T</text>
<text transform="matrix(1.1479 0 0 1 182.2944 383.2275)" class="st0 st1 st2">D</text>
<text transform="matrix(1.1479 0 0 1 191.7544 383.1865)" class="st0 st1 st2">A</text>
<text transform="matrix(1.1479 0 0 1 188.7817 383.2275)" class="st0 st1 st2">T</text>
<text transform="matrix(1.1479 0 0 1 185.7964 383.2275)" class="st0 st1 st2 st28">A</text>
<text transform="matrix(1.1479 0 0 1 196.3032 383.2275)" class="st0 st1 st2">REGISTER</text>
<text transform="matrix(1.1018 0 0 1 192.4985 388.1953)" class="st0 st1 st2">PO</text>
<text transform="matrix(1.1018 0 0 1 199.8814 388.1953)" class="st0 st1 st2">R</text>
<text transform="matrix(1.1018 0 0 1 203.6578 388.1953)" class="st0 st1 st2">T</text>
<text transform="matrix(1.1018 0 0 1 199.8816 448.1867)" class="st0 st1 st2">PB6 </text>
<text transform="matrix(1.1018 0 0 1 219.5998 448.1862)" class="st0 st1 st2">PB4 </text>
<text transform="matrix(1.1018 0 0 1 296.291 446.1862)" class="st0 st1 st2">PD7 </text>
<text transform="matrix(1.1018 0 0 1 307.3906 446.1867)" class="st0 st1 st2">PD6 </text>
<text transform="matrix(1.1018 0 0 1 327.1087 446.1862)" class="st0 st1 st2">PD4 </text>
</svg>
